<svg width="16" height="30" viewBox="0 0 16 30" fill="none" xmlns="http://www.w3.org/2000/svg">
<path fill-rule="evenodd" clip-rule="evenodd" d="M11.7501 26.25C11.7501 27.2446 11.355 28.1984 10.6517 28.9016C9.94847 29.6049 8.99464 30 8.00008 30C7.00552 30 6.05169 29.6049 5.34843 28.9016C4.64517 28.1984 4.25008 27.2446 4.25008 26.25C4.25008 25.2554 4.64517 24.3016 5.34843 23.5984C6.05169 22.8951 7.00552 22.5 8.00008 22.5C8.99464 22.5 9.94847 22.8951 10.6517 23.5984C11.355 24.3016 11.7501 25.2554 11.7501 26.25ZM15.0876 9.67313C14.8239 9.40978 14.4665 9.26186 14.0938 9.26186C13.7212 9.26186 13.3638 9.40978 13.1001 9.67313L9.40633 13.3669V1.40625C9.40633 1.03329 9.25817 0.675604 8.99445 0.411881C8.73072 0.148158 8.37304 0 8.00008 0C7.62712 0 7.26943 0.148158 7.00571 0.411881C6.74199 0.675604 6.59383 1.03329 6.59383 1.40625V13.3669L2.90008 9.67313C2.6335 9.42472 2.28091 9.28949 1.9166 9.29592C1.55228 9.30235 1.20469 9.44993 0.947037 9.70758C0.689388 9.96523 0.541803 10.3128 0.535375 10.6771C0.528947 11.0415 0.664178 11.394 0.912578 11.6606L7.00633 17.7544L8.00008 18.75L8.99383 17.7563L15.0876 11.6625C15.2183 11.5319 15.3219 11.3768 15.3926 11.2062C15.4634 11.0355 15.4998 10.8526 15.4998 10.6678C15.4998 10.4831 15.4634 10.3001 15.3926 10.1295C15.3219 9.95878 15.2183 9.80372 15.0876 9.67313Z" fill="white"/>
</svg>
