<svg width="54" height="53" viewBox="0 0 54 53" fill="none" xmlns="http://www.w3.org/2000/svg">
<path d="M19.6046 26.4302C20.0582 26.4209 20.5314 26.4236 21.0256 26.4387L21.7841 26.4704L22.5761 26.5195L23.4046 26.5869L24.2707 26.6713L25.177 26.7727C25.3314 26.791 25.4877 26.8102 25.6453 26.8298L26.6145 26.9566L27.6279 27.0999L29.2354 27.345L31.5515 27.7267L34.2824 28.203L36.1042 28.5124L37.2529 28.6977L38.8815 28.9423L39.9065 29.0838L40.8855 29.2066C41.2042 29.2445 41.5158 29.2793 41.8199 29.3115L42.7123 29.3972C42.8574 29.4101 43.0011 29.4222 43.1431 29.4334L43.9748 29.491L44.7685 29.5293L45.5266 29.5476C48.6118 29.5847 50.8064 29.1043 52.7074 28.0182C53.152 27.7641 53.7047 28.0851 53.7047 28.5967V50.4847C53.7047 50.724 53.5766 50.9446 53.369 51.0633C51.0846 52.3687 48.6587 52.8982 45.0449 52.7799L44.306 52.7473C44.0542 52.7339 43.7966 52.7174 43.5337 52.6982L42.7257 52.6317L41.8806 52.5491C41.7368 52.5339 41.5908 52.5183 41.4435 52.5018L40.5391 52.3942C40.385 52.375 40.2292 52.3553 40.0712 52.3348L39.1033 52.2035C38.9386 52.1803 38.7716 52.1567 38.6029 52.1321L37.0315 51.8942L35.3516 51.6223L34.1681 51.4223L32.315 51.1L30.5459 50.7991L29.4307 50.6169L27.8513 50.3723L26.3767 50.1616L25.4495 50.041L24.5647 49.9361L23.72 49.8473C23.5825 49.8339 23.4468 49.821 23.3125 49.8089L22.5254 49.7442L21.7745 49.6964C21.6522 49.6897 21.5317 49.6839 21.412 49.6785L20.7116 49.6553C17.5178 49.5875 15.3526 50.0723 13.3861 51.1959C12.9414 51.4499 12.3883 51.1289 12.3883 50.6173V28.7293C12.3883 28.49 12.5169 28.2695 12.7245 28.1508C14.52 27.1244 16.4343 26.5807 18.9378 26.4538L19.6046 26.4302ZM19.4019 28.337C19.3167 28.3374 19.2327 28.3388 19.1497 28.3406L18.6653 28.3589L18.2064 28.3915C18.1323 28.3977 18.0586 28.4048 17.9863 28.4129L17.5626 28.466C17.4939 28.4763 17.426 28.487 17.3591 28.4982L16.9662 28.5727L16.7769 28.6156L16.4113 28.7115L16.0609 28.8223C15.8323 28.9008 15.6131 28.9892 15.4002 29.087L15.0859 29.2415C14.9823 29.2955 14.8805 29.3517 14.7796 29.4107C14.5747 29.5303 14.4488 29.7495 14.4488 29.9866V47.9226C14.4488 48.4034 14.9426 48.7261 15.3828 48.5333C15.7131 48.3891 16.0578 48.2632 16.4221 48.1556L16.868 48.0351C18.0082 47.7565 19.3385 47.6409 20.9881 47.6793L21.6654 47.7029C21.781 47.7083 21.8984 47.7141 22.0172 47.7208L22.7493 47.769L23.5198 47.8328L24.331 47.9127L25.1841 48.0087L26.0819 48.1203L27.0256 48.2471L28.0172 48.3895L29.0587 48.5471L30.7181 48.8118L31.8918 49.0074L35.5745 49.631L37.1794 49.8891L39.1494 50.1837L40.065 50.3096L40.9374 50.4212L41.7673 50.5176L42.5561 50.5993L43.3066 50.6654C43.4284 50.6752 43.549 50.6846 43.6677 50.6931L44.3624 50.7364L45.0222 50.7641C45.5583 50.7806 46.0592 50.7806 46.5302 50.7636L47.0806 50.7355C47.3489 50.7172 47.6065 50.6926 47.8552 50.6618L48.34 50.5917C48.4976 50.5659 48.6512 50.5368 48.8012 50.5051L49.2405 50.4011C50.0266 50.1949 50.7105 49.9011 51.3378 49.5154C51.5351 49.394 51.6552 49.1792 51.6552 48.9475V31.5235C51.6552 31.0682 51.2093 30.7472 50.7776 30.8909C49.1977 31.4177 47.3445 31.6347 44.9464 31.5691L44.1709 31.5392C43.9057 31.5258 43.6347 31.5097 43.3566 31.4905L42.503 31.4231C42.3571 31.4106 42.2097 31.3972 42.0602 31.3829L41.1428 31.2887C40.9861 31.2713 40.8276 31.2534 40.6669 31.2347L39.6816 31.1133L38.6481 30.9749L37.5655 30.8186L36.4307 30.645L34.6284 30.3526L30.1928 29.5972L28.1195 29.2593L26.6977 29.0392L24.9677 28.7918L24.1695 28.6878L23.4137 28.5972L22.6981 28.5195L22.0213 28.4557L21.3807 28.4052L20.7753 28.3686L20.203 28.3454C20.1101 28.3427 20.0186 28.3405 19.9284 28.3387L19.4019 28.337ZM19.8064 29.6834L20.3252 29.6954L20.8756 29.72L21.46 29.7579L22.0787 29.8084L23.0769 29.9084L24.1631 30.037L25.3434 30.1941L26.6229 30.3798L28.9917 30.7517L30.0265 30.9222L34.4216 31.6704L36.3778 31.987L37.6055 32.1736L38.7743 32.3396L39.8868 32.4856L40.9457 32.6106C44.9055 33.0508 47.7386 33.0294 50.0815 32.4736L50.3208 32.4146V48.5609L50.1623 48.6426C49.5007 48.9672 48.7319 49.189 47.7993 49.3132L47.3194 49.3672C47.2373 49.3748 47.1538 49.3815 47.069 49.3877L46.5449 49.4176C46.4551 49.4212 46.3641 49.4243 46.2716 49.4266L45.7002 49.4324C45.6024 49.4324 45.5033 49.431 45.4024 49.4297L44.7806 49.4118L44.123 49.3788L43.4279 49.3301L42.6935 49.2663L41.5163 49.1422L40.6783 49.0408L39.3373 48.8614L37.8913 48.6489L36.3351 48.4038L34.0793 48.0279L31.4941 47.5886L30.3065 47.394L29.1744 47.2149L27.577 46.9766L26.5753 46.8382L25.6226 46.7154L24.7159 46.6096L23.8538 46.5208L23.0337 46.4484L22.2543 46.3935C22.1275 46.3859 22.002 46.3788 21.8788 46.3725L21.1552 46.3435L20.4668 46.3324C18.6752 46.3257 17.2347 46.5087 15.9663 46.898L15.7824 46.9556V30.3842L15.8569 30.3484C16.0895 30.2377 16.3355 30.1413 16.5989 30.0583L16.9235 29.9654C16.9793 29.9511 17.0355 29.9373 17.0927 29.9239L17.4458 29.8511C17.506 29.84 17.5676 29.8292 17.6297 29.8194L18.015 29.7658L18.4235 29.7261C18.4935 29.7203 18.565 29.7154 18.6368 29.7109L19.0837 29.6904L19.5583 29.6828L19.8064 29.6834ZM33.0133 32.7909C29.2669 32.7909 26.2298 35.828 26.2298 39.5744C26.2298 43.3203 29.2669 46.3574 33.0133 46.3574C36.7597 46.3574 39.7967 43.3204 39.7967 39.5744C39.7967 35.828 36.7597 32.7909 33.0133 32.7909ZM33.0133 34.1244C36.0231 34.1244 38.4633 36.5642 38.4633 39.5745C38.4633 42.5843 36.0231 45.0245 33.0133 45.0245C30.0034 45.0245 27.5632 42.5843 27.5632 39.5745C27.5632 36.5642 30.0034 34.1244 33.0133 34.1244ZM33.0516 35.1057C32.6833 35.1057 32.3851 35.4043 32.3851 35.7726L32.3842 36.3646C31.5985 36.5083 31.0199 36.8811 30.7437 37.4637C30.1687 38.6749 31.2245 39.8949 32.9749 40.2195C33.9677 40.4329 34.3388 40.8909 34.2061 41.1561C34.0846 41.3994 33.6931 41.5713 33.0833 41.59L33.0516 41.5864C33.0324 41.5864 33.0137 41.5873 32.9949 41.5887C32.5476 41.5949 31.9895 41.5186 31.3413 41.3333C30.9873 41.232 30.6181 41.4373 30.5168 41.7913C30.4159 42.1454 30.6208 42.5141 30.9748 42.6154C31.4708 42.757 31.9436 42.848 32.3846 42.89L32.3851 43.4418L32.3958 43.5619C32.452 43.8726 32.7244 44.1087 33.0516 44.1087C33.4199 44.1087 33.7181 43.8101 33.7181 43.4418L33.7186 42.8512C34.515 42.7087 35.1069 42.336 35.3984 41.7525C36.0042 40.5422 34.9873 39.2878 33.2364 38.9119L33.0266 38.8677C32.1605 38.6601 31.8395 38.2637 31.948 38.0356C32.056 37.8079 32.4257 37.6441 33.01 37.624L33.0516 37.628C33.0757 37.628 33.0993 37.6267 33.123 37.6244C33.5636 37.6204 34.1163 37.6967 34.7619 37.8816C35.1159 37.9825 35.4851 37.7775 35.5864 37.4235C35.6873 37.0695 35.4824 36.7008 35.1284 36.5994C34.631 36.4575 34.1583 36.3664 33.7176 36.3244L33.7181 35.7727L33.7074 35.6526C33.6511 35.3418 33.3789 35.1057 33.0516 35.1057ZM45.1362 38.3691C43.7545 38.3691 42.6344 39.4887 42.6344 40.8705C42.6344 42.2522 43.7545 43.3723 45.1362 43.3723C46.518 43.3723 47.638 42.2522 47.638 40.8705C47.638 39.4888 46.518 38.3691 45.1362 38.3691ZM45.1362 39.7021C45.7813 39.7021 46.3046 40.2253 46.3046 40.8705C46.3046 41.516 45.7814 42.0388 45.1362 42.0388C44.4907 42.0388 43.9679 41.516 43.9679 40.8705C43.9679 40.2254 44.4906 39.7021 45.1362 39.7021ZM20.9671 35.9232C19.5854 35.9232 18.4652 37.0432 18.4652 38.425C18.4652 39.8067 19.5853 40.9268 20.9671 40.9268C22.3488 40.9268 23.4689 39.8067 23.4689 38.425C23.4689 37.0432 22.3488 35.9232 20.9671 35.9232ZM20.9671 37.2566C21.6126 37.2566 22.1354 37.7798 22.1354 38.425C22.1354 39.0701 21.6127 39.5933 20.9671 39.5933C20.322 39.5933 19.7987 39.0701 19.7987 38.425C19.7987 37.7799 20.3219 37.2566 20.9671 37.2566Z" fill="white"/>
<path d="M6.37146 10.6709H1.03797C0.669666 10.6709 0.37146 10.9696 0.37146 11.3374V23.3374C0.37146 23.7057 0.669677 24.0044 1.03797 24.0044H6.37146C6.73932 24.0044 7.03797 23.7057 7.03797 23.3374V11.3374C7.03797 10.9695 6.73931 10.6709 6.37146 10.6709Z" fill="white"/>
<path d="M16.568 0.481332L12.6184 4.6403L9.19214 8.29699L9.07205 8.44565L8.9783 8.57378C8.54616 9.16574 8.37115 9.76212 8.37115 10.6711V21.3377C8.37115 22.6493 9.63721 24.0046 11.0377 24.0046H19.0377C20.1939 24.0046 21.0016 23.5417 21.5117 22.4145L24.7377 15.3086L26.1363 12.2854L26.2269 12.0774C27.0671 10.0015 26.0417 8.0046 23.7042 8.0046H16.1922L16.7091 7.00549L18.1757 4.22732L18.6547 3.28849C19.0984 2.40769 18.831 1.74026 18.0877 1.00014L17.5752 0.520235C17.5574 0.50327 17.5417 0.487199 17.5265 0.472019C17.2618 0.203711 16.8274 0.207671 16.568 0.481332Z" fill="white"/>
</svg>
