<svg width="42" height="43" viewBox="0 0 42 43" fill="none" xmlns="http://www.w3.org/2000/svg">
<path fill-rule="evenodd" clip-rule="evenodd" d="M21 5.9187C12.3051 5.9187 5.25 12.9738 5.25 21.6687C5.25 30.3636 12.3051 37.4187 21 37.4187C29.6779 37.4187 36.75 30.3636 36.75 21.6687C36.75 12.9738 29.6779 5.9187 21 5.9187ZM31.4032 13.1787C33.2823 15.4678 34.4097 18.3889 34.4439 21.5491C33.9997 21.4637 29.5583 20.5584 25.0827 21.122C24.9802 20.9 24.8948 20.6608 24.7923 20.4217C24.519 19.7726 24.2115 19.1063 23.904 18.4743C28.8579 16.4586 31.1128 13.5546 31.4032 13.1787ZM21 8.24191C24.4165 8.24191 27.5426 9.52309 29.917 11.6242C29.6779 11.9659 27.6451 14.682 22.862 16.4756C20.6583 12.4271 18.2156 9.11312 17.8398 8.60064C18.8476 8.36149 19.9067 8.24191 21 8.24191ZM15.2774 9.50602C15.6361 9.98431 18.0277 13.3154 20.2655 17.2785C13.9791 18.9526 8.42734 18.9184 7.82945 18.9184C8.70064 14.7503 11.5193 11.2826 15.2774 9.50602ZM7.53905 21.6858C7.53905 21.5491 7.53905 21.4125 7.53905 21.2758C8.11985 21.2929 14.6453 21.3783 21.3587 19.3626C21.7516 20.1142 22.1103 20.8829 22.452 21.6516C22.2812 21.7029 22.0933 21.7541 21.9224 21.8053C14.987 24.0432 11.2972 30.1587 10.9897 30.6711C8.85439 28.2967 7.53905 25.1364 7.53905 21.6858ZM21 35.1297C17.891 35.1297 15.0211 34.0705 12.7492 32.294C12.9884 31.7986 15.7215 26.5372 23.3061 23.8894C23.3403 23.8723 23.3574 23.8723 23.3915 23.8552C25.2877 28.7579 26.0564 32.8748 26.2614 34.0535C24.6386 34.7538 22.862 35.1297 21 35.1297ZM28.4992 32.8235C28.3625 32.0036 27.6451 28.0746 25.8856 23.2403C30.1049 22.5741 33.7947 23.6673 34.256 23.8211C33.6752 27.5621 31.5228 30.7907 28.4992 32.8235Z" fill="white"/>
</svg>
