<svg width="70" height="70" viewBox="0 0 70 70" fill="none" xmlns="http://www.w3.org/2000/svg">
<path d="M54.0473 35.0546V33.0855H57.0404C56.8829 29.6888 55.9032 26.3758 54.1901 23.4519C52.3687 20.3408 49.7596 17.7267 46.6435 15.9053C43.7144 14.1872 40.4014 13.2076 37 13.05V16.0431H35.0309V13.05C32.5399 13.1633 30.1229 13.7146 27.8288 14.6844C25.3231 15.7428 23.0734 17.259 21.1388 19.1937C19.2041 21.1283 17.6879 23.378 16.6295 25.8837C15.6597 28.1777 15.1132 30.5998 15 33.0906H17.9931V35.0598H15C15.0689 36.5513 15.2954 38.0233 15.6744 39.4608C15.8861 39.2983 16.0978 39.1408 16.3193 38.9931C16.5359 38.8503 16.7525 38.7125 16.979 38.5845C18.569 37.6738 20.3806 37.1913 22.2611 37.1913C25.1164 37.1913 27.7992 38.3038 29.8176 40.3222C31.8359 42.3405 32.9485 45.0235 32.9485 47.8786C32.9485 49.7493 32.471 51.551 31.5701 53.1362C31.4421 53.3626 31.3092 53.5841 31.1615 53.8007C31.0139 54.0222 30.8612 54.2339 30.6939 54.4456C32.1116 54.8148 33.5688 55.0363 35.0407 55.1053V52.1122H37.0098V55.1053C39.5007 54.992 41.9227 54.4456 44.2167 53.4758C46.7224 52.4174 48.9721 50.9011 50.9068 48.9665C52.8414 47.0318 54.3576 44.7822 55.416 42.2764C56.3858 39.9825 56.9323 37.5604 57.0455 35.0695H54.0475L54.0473 35.0546ZM44.8314 44.2795L35.0349 34.4785V23.5595H37.004V33.6657L46.2244 42.8861L44.8314 44.2795Z" fill="white"/>
<path d="M22.2564 38.6633C20.3464 38.6633 18.5742 39.2491 17.1023 40.2436C14.6606 41.9026 13.0508 44.6987 13.0508 47.869C13.0508 52.9444 17.181 57.075 22.2568 57.075C25.4517 57.075 28.2675 55.4406 29.9215 52.9645C30.8962 51.5024 31.4623 49.7499 31.4623 47.8693C31.4623 42.7939 27.3372 38.6633 22.2564 38.6633ZM22.9998 52.7032V53.8797H21.523V52.7032C20.0314 52.7032 18.8204 51.5218 18.8204 50.0695H20.2972C20.2972 50.7046 20.8485 51.2264 21.523 51.2264H23.0047C23.7727 51.2264 24.3979 50.6357 24.3979 49.9071C24.3979 49.5625 24.2552 49.2327 23.9992 48.9865C23.7333 48.7305 23.3838 48.5927 23.0047 48.5927H21.523C19.9427 48.5927 18.653 47.3374 18.653 45.8015C18.653 45.0483 18.9533 44.3443 19.5046 43.8176C19.7163 43.6158 19.9477 43.4484 20.2037 43.3204C20.6073 43.1186 21.0553 43.0103 21.5229 43.0103V41.8681H22.9998V43.0103C24.4913 43.0103 25.7023 44.1917 25.7023 45.644H24.2255C24.2255 45.004 23.6742 44.4871 22.9998 44.4871H21.518C21.4688 44.4871 21.4244 44.4871 21.3802 44.492C21.0552 44.5215 20.7599 44.6594 20.5285 44.8809C20.2725 45.127 20.1298 45.4569 20.1298 45.8015C20.1298 46.5301 20.755 47.1159 21.523 47.1159H23.0047C23.4872 47.1159 23.9548 47.2291 24.3683 47.4507C24.6046 47.5737 24.8261 47.7362 25.023 47.9233C25.2396 48.1349 25.4218 48.3712 25.5547 48.6321C25.7614 49.021 25.8697 49.4592 25.8697 49.9121C25.8648 51.448 24.58 52.7033 22.9997 52.7033L22.9998 52.7032Z" fill="white"/>
</svg>
