<svg width="27" height="28" viewBox="0 0 27 28" fill="none" xmlns="http://www.w3.org/2000/svg">
<g clip-path="url(#clip0_496_9224)">
<path d="M13.5 1.53857C6.34234 1.53857 0.540039 7.34087 0.540039 14.4986C0.540039 21.6563 6.34234 27.4586 13.5 27.4586C20.6577 27.4586 26.46 21.6563 26.46 14.4986C26.46 7.34087 20.6577 1.53857 13.5 1.53857ZM10.3275 19.8702H7.70314V11.4246H10.3275V19.8702ZM8.99914 10.3878C8.17024 10.3878 7.63429 9.80057 7.63429 9.07427C7.63429 8.33312 8.18644 7.76342 9.03289 7.76342C9.87934 7.76342 10.3977 8.33312 10.4139 9.07427C10.4139 9.80057 9.87934 10.3878 8.99914 10.3878ZM19.9125 19.8702H17.2881V15.1898C17.2881 14.1003 16.9074 13.3605 15.9584 13.3605C15.2334 13.3605 14.8028 13.8614 14.6124 14.3433C14.5422 14.5148 14.5247 14.7578 14.5247 14.9994V19.8689H11.8989V14.1179C11.8989 13.0635 11.8652 12.182 11.8301 11.4233H14.1102L14.2304 12.5964H14.283C14.6286 12.0456 15.4751 11.2329 16.8912 11.2329C18.6179 11.2329 19.9125 12.3899 19.9125 14.8766V19.8702Z" fill="#0A66C2"/>
</g>
<defs>
<clipPath id="clip0_496_9224">
<rect width="27" height="27" fill="white" transform="translate(0 0.998535)"/>
</clipPath>
</defs>
</svg>
