<svg width="27" height="28" viewBox="0 0 27 28" fill="none" xmlns="http://www.w3.org/2000/svg">
<path d="M20.6719 0.998535H6.32812C2.8332 0.998535 0 3.83173 0 7.32666V21.6704C0 25.1653 2.8332 27.9985 6.32812 27.9985H20.6719C24.1668 27.9985 27 25.1653 27 21.6704V7.32666C27 3.83173 24.1668 0.998535 20.6719 0.998535Z" fill="url(#paint0_radial_496_9212)"/>
<path d="M20.6719 0.998535H6.32812C2.8332 0.998535 0 3.83173 0 7.32666V21.6704C0 25.1653 2.8332 27.9985 6.32812 27.9985H20.6719C24.1668 27.9985 27 25.1653 27 21.6704V7.32666C27 3.83173 24.1668 0.998535 20.6719 0.998535Z" fill="url(#paint1_radial_496_9212)"/>
<path d="M13.5014 3.95117C10.6371 3.95117 10.2776 3.96372 9.15264 4.01488C8.02982 4.06634 7.26338 4.24406 6.59281 4.50488C5.89904 4.77425 5.31063 5.13464 4.72443 5.72104C4.13771 6.30734 3.77732 6.89575 3.50711 7.58921C3.24555 8.25999 3.06762 9.02675 3.01711 10.149C2.9668 11.2741 2.95361 11.6337 2.95361 14.4982C2.95361 17.3626 2.96627 17.721 3.01732 18.8459C3.069 19.9687 3.24671 20.7352 3.50732 21.4057C3.7769 22.0995 4.13729 22.6879 4.7237 23.2741C5.30979 23.8608 5.8982 24.2221 6.59144 24.4914C7.26254 24.7522 8.02909 24.93 9.15169 24.9814C10.2767 25.0326 10.636 25.0451 13.5002 25.0451C16.3648 25.0451 16.7232 25.0326 17.8481 24.9814C18.9709 24.93 19.7382 24.7522 20.4093 24.4914C21.1028 24.2221 21.6903 23.8608 22.2763 23.2741C22.8631 22.6879 23.2233 22.0995 23.4937 21.406C23.7529 20.7352 23.9309 19.9685 23.9837 18.8461C24.0342 17.7212 24.0474 17.3626 24.0474 14.4982C24.0474 11.6337 24.0342 11.2743 23.9837 10.1493C23.9309 9.02643 23.7529 8.2601 23.4937 7.58953C23.2233 6.89575 22.8631 6.30734 22.2763 5.72104C21.6897 5.13443 21.103 4.77404 20.4087 4.50499C19.7363 4.24406 18.9695 4.06624 17.8466 4.01488C16.7216 3.96372 16.3634 3.95117 13.4982 3.95117H13.5014ZM12.5553 5.85182C12.8361 5.8514 13.1495 5.85182 13.5014 5.85182C16.3176 5.85182 16.6513 5.86195 17.7633 5.91247C18.7916 5.95951 19.3498 6.13132 19.7216 6.2757C20.2138 6.46681 20.5647 6.69536 20.9336 7.06461C21.3027 7.43375 21.5312 7.78528 21.7228 8.2775C21.8672 8.64875 22.0392 9.20689 22.0861 10.2352C22.1366 11.3471 22.1476 11.681 22.1476 14.4957C22.1476 17.3105 22.1366 17.6445 22.0861 18.7562C22.039 19.7846 21.8672 20.3427 21.7228 20.7141C21.5317 21.2063 21.3027 21.5568 20.9336 21.9257C20.5645 22.2948 20.214 22.5233 19.7216 22.7145C19.3502 22.8595 18.7916 23.0309 17.7633 23.0779C16.6515 23.1284 16.3176 23.1394 13.5014 23.1394C10.6852 23.1394 10.3514 23.1284 9.23966 23.0779C8.21134 23.0305 7.65319 22.8587 7.2811 22.7143C6.78898 22.5231 6.43735 22.2946 6.06821 21.9255C5.69907 21.5563 5.47062 21.2056 5.27899 20.7132C5.1346 20.3419 4.96258 19.7837 4.91575 18.7554C4.86523 17.6435 4.85511 17.3096 4.85511 14.4931C4.85511 11.6767 4.86523 11.3444 4.91575 10.2326C4.96279 9.20425 5.1346 8.64611 5.27899 8.27434C5.4702 7.78211 5.69907 7.43059 6.06832 7.06145C6.43746 6.6923 6.78898 6.46375 7.28121 6.27222C7.65298 6.1272 8.21134 5.95582 9.23966 5.90857C10.2126 5.86459 10.5897 5.8514 12.5553 5.84919V5.85182ZM19.1314 7.60303C18.4326 7.60303 17.8657 8.16939 17.8657 8.86823C17.8657 9.56696 18.4326 10.1339 19.1314 10.1339C19.8301 10.1339 20.397 9.56696 20.397 8.86823C20.397 8.1695 19.8301 7.60261 19.1314 7.60261V7.60303ZM13.5014 9.0818C10.5103 9.0818 8.08519 11.507 8.08519 14.4982C8.08519 17.4894 10.5103 19.9133 13.5014 19.9133C16.4926 19.9133 18.9169 17.4894 18.9169 14.4982C18.9169 11.5071 16.4924 9.0818 13.5012 9.0818H13.5014ZM13.5014 10.9825C15.443 10.9825 17.0171 12.5564 17.0171 14.4982C17.0171 16.4397 15.443 18.0138 13.5014 18.0138C11.5598 18.0138 9.98585 16.4397 9.98585 14.4982C9.98585 12.5564 11.5598 10.9825 13.5014 10.9825Z" fill="white"/>
<defs>
<radialGradient id="paint0_radial_496_9212" cx="0" cy="0" r="1" gradientUnits="userSpaceOnUse" gradientTransform="translate(7.17187 30.0781) rotate(-90) scale(26.759 24.888)">
<stop stop-color="#FFDD55"/>
<stop offset="0.1" stop-color="#FFDD55"/>
<stop offset="0.5" stop-color="#FF543E"/>
<stop offset="1" stop-color="#C837AB"/>
</radialGradient>
<radialGradient id="paint1_radial_496_9212" cx="0" cy="0" r="1" gradientUnits="userSpaceOnUse" gradientTransform="translate(-4.52261 2.94348) rotate(78.681) scale(11.9614 49.3054)">
<stop stop-color="#3771C8"/>
<stop offset="0.128" stop-color="#3771C8"/>
<stop offset="1" stop-color="#6600FF" stop-opacity="0"/>
</radialGradient>
</defs>
</svg>
