<svg width="50" height="50" viewBox="0 0 50 50" fill="none" xmlns="http://www.w3.org/2000/svg">
<path d="M25 25C25.55 25 26.021 24.804 26.413 24.412C26.8043 24.0207 27 23.55 27 23C27 22.45 26.8043 21.979 26.413 21.587C26.021 21.1957 25.55 21 25 21C24.45 21 23.9793 21.1957 23.588 21.587C23.196 21.979 23 22.45 23 23C23 23.55 23.196 24.0207 23.588 24.412C23.9793 24.804 24.45 25 25 25ZM25 34.625C24.8667 34.625 24.7333 34.6 24.6 34.55C24.4667 34.5 24.35 34.4333 24.25 34.35C21.8167 32.2 20 30.2043 18.8 28.363C17.6 26.521 17 24.8 17 23.2C17 20.7 17.8043 18.7083 19.413 17.225C21.021 15.7417 22.8833 15 25 15C27.1167 15 28.979 15.7417 30.587 17.225C32.1957 18.7083 33 20.7 33 23.2C33 24.8 32.4 26.521 31.2 28.363C30 30.2043 28.1833 32.2 25.75 34.35C25.65 34.4333 25.5333 34.5 25.4 34.55C25.2667 34.6 25.1333 34.625 25 34.625Z" fill="white"/>
<circle cx="25" cy="25" r="24.5" stroke="white"/>
</svg>
