<svg width="48" height="52" viewBox="0 0 48 52" fill="none" xmlns="http://www.w3.org/2000/svg">
<path d="M39.9921 0.34668H7.0081C5.2554 0.34668 3.5745 1.04277 2.3354 2.28188C1.0959 3.52138 0.399902 5.20218 0.399902 6.95458V23.7546C0.399902 25.537 1.1081 27.2464 2.3683 28.5066C3.6285 29.7668 5.3378 30.4746 7.1199 30.4746H9.1359V37.3629C9.1359 39.1449 9.8441 40.8543 11.1043 42.1145C12.3645 43.3747 14.0738 44.0829 15.8559 44.0829H21.2321L21.0083 49.4028C20.995 49.943 21.1778 50.4696 21.5227 50.886C21.8673 51.302 22.3508 51.5793 22.884 51.6672C23.4172 51.7547 23.9641 51.6465 24.4242 51.3629L28.4004 48.843L32.3766 51.3629H32.3762C32.8305 51.643 33.37 51.752 33.8973 51.6696C34.4247 51.5871 34.9055 51.3192 35.2528 50.9141C35.6005 50.5086 35.7915 49.9926 35.7923 49.4586L35.5685 44.1387H40.9447H40.9443C42.7263 44.1387 44.4357 43.4309 45.6959 42.1707C46.9561 40.9102 47.6643 39.2012 47.6643 37.4187V8.0187C47.6494 5.9886 46.8365 4.0457 45.401 2.6101C43.9654 1.1745 42.0225 0.3613 39.9924 0.3468L39.9921 0.34668ZM9.0801 25.9947H7.1199C6.52576 25.9947 5.9562 25.7584 5.5359 25.3384C5.11598 24.9185 4.88004 24.3486 4.88004 23.7544V6.95443C4.88004 6.19427 5.28551 5.49193 5.94414 5.11143C6.60234 4.73135 7.41364 4.73135 8.07184 5.11143C8.73043 5.4919 9.13594 6.19423 9.13594 6.95443L9.0801 25.9947ZM28.4001 37.9787C26.9446 37.9787 25.5485 37.4002 24.5196 36.3713C23.4903 35.342 22.9122 33.9463 22.9122 32.4904C22.9122 31.0349 23.4903 29.6392 24.5196 28.6099C25.5485 27.5806 26.9446 27.0025 28.4001 27.0025C29.8556 27.0025 31.2517 27.5806 32.2806 28.6099C33.3099 29.6392 33.888 31.0349 33.888 32.4904C33.888 33.9463 33.3099 35.342 32.2806 36.3713C31.2517 37.4002 29.8556 37.9787 28.4001 37.9787ZM29.5763 44.3627C29.2165 44.1334 28.7986 44.0115 28.372 44.0115C27.9454 44.0115 27.5279 44.1334 27.1681 44.3627L25.6001 45.3705L25.7122 42.1225C27.4333 42.6084 29.2552 42.6084 30.9763 42.1225L31.0884 45.3705L29.5763 44.3627ZM43.1843 37.3627C43.1843 37.9568 42.9484 38.5264 42.5284 38.9467C42.1081 39.3666 41.5386 39.6025 40.9444 39.6025H35.4003C37.2882 37.7404 38.3562 35.2029 38.3683 32.5513C38.3805 29.9001 37.3355 27.3529 35.4648 25.4736C33.5941 23.5943 31.0519 22.5381 28.4003 22.5381C25.7487 22.5381 23.2065 23.5943 21.3358 25.4736C19.4651 27.3529 18.4202 29.9002 18.4323 32.5513C18.4445 35.2029 19.5124 37.7404 21.4003 39.6025H15.8003C15.2062 39.6025 14.6366 39.3666 14.2163 38.9467C13.7964 38.5264 13.5605 37.9568 13.5605 37.3627V6.95468C13.5667 6.23163 13.4531 5.51288 13.2245 4.82698H39.9925C40.839 4.82698 41.6507 5.16292 42.2495 5.76175C42.848 6.36019 43.1843 7.17225 43.1843 8.01875L43.1843 37.3627Z" fill="white"/>
<path d="M28.6802 15.2422H18.6001C17.7998 15.2422 17.0604 15.6687 16.6604 16.3621C16.2604 17.0551 16.2604 17.909 16.6604 18.6019C17.0604 19.2949 17.7998 19.7218 18.6001 19.7218H28.6802C29.4805 19.7218 30.22 19.2948 30.62 18.6019C31.02 17.9089 31.02 17.055 30.62 16.3621C30.22 15.6687 29.4805 15.2422 28.6802 15.2422Z" fill="white"/>
<path d="M37.4162 8.18652H18.6001C17.7998 8.18652 17.0604 8.61347 16.6604 9.30642C16.2604 9.99978 16.2604 10.8537 16.6604 11.5466C17.0604 12.2396 17.7998 12.6665 18.6001 12.6665H37.4162C38.2165 12.6665 38.956 12.2396 39.356 11.5466C39.7563 10.8537 39.7563 9.99972 39.356 9.30642C38.956 8.61345 38.2165 8.18652 37.4162 8.18652Z" fill="white"/>
</svg>
