<svg width="70" height="71" viewBox="0 0 70 71" fill="none" xmlns="http://www.w3.org/2000/svg">
<path d="M14.6926 53.5798H29.3586C28.6601 54.4513 27.9113 55.2864 27.0988 56.0739C26.6109 56.5466 26.4472 57.2641 26.6828 57.9036C26.9183 58.5419 27.5109 58.9817 28.1875 59.0212C29.2453 59.0873 30.3199 59.0982 31.4027 59.0501C31.4292 60.0501 31.4038 61.063 31.3269 62.0728C31.2741 62.7807 31.6695 63.4587 32.3144 63.7603C32.5425 63.8662 32.787 63.9205 33.0406 63.9205C33.4878 63.9205 33.9109 63.7486 34.2351 63.4361C37.2886 60.4744 39.1421 58.0541 40.8456 54.7978C41.0331 54.4373 41.0788 54.031 40.9932 53.6392C41.194 53.6873 41.3995 53.7185 41.6112 53.7185C42.085 53.7185 42.5381 53.5912 42.9553 53.3627C44.6932 56.4385 46.8483 59.24 49.3905 61.7041C49.7124 62.0216 50.1393 62.1947 50.5913 62.1947C50.8397 62.1947 51.0921 62.138 51.3198 62.031C51.9616 61.7306 52.3573 61.0548 52.3046 60.3462C52.2276 59.3388 52.2022 58.3271 52.2288 57.3247C53.3093 57.3728 54.3839 57.3634 55.4456 57.297C56.1237 57.2552 56.714 56.8149 56.9491 56.1771C57.1846 55.5415 57.021 54.8251 56.5343 54.349C54.7843 52.6529 53.2999 50.7252 52.0753 48.6263C52.5643 47.8392 52.6338 46.8533 52.2456 45.8978C52.1827 45.745 52.278 45.4892 52.426 45.4111C53.3878 44.8954 53.9873 44.0408 54.069 43.0646C54.1522 42.0884 53.7046 41.1466 52.8444 40.4794C52.7132 40.377 52.6628 40.1114 52.7495 39.9712C53.3218 39.0481 53.4128 38.0107 52.9968 37.1251C52.5808 36.2383 51.7218 35.6431 50.6425 35.4931C50.4706 35.4692 50.2882 35.2599 50.2929 35.0942C50.3183 34.2141 50.0284 33.4161 49.4733 32.8442C48.6811 32.0294 47.3901 31.7985 46.226 32.2696C46.06 32.3368 45.7745 32.2095 45.7081 32.088C45.1518 31.0626 44.1886 30.4497 43.1347 30.4497C42.2331 30.4497 41.3945 30.8837 40.773 31.672C40.6948 31.7743 40.3784 31.8583 40.2296 31.7653C39.6972 31.4399 39.1163 31.2677 38.5495 31.2677C37.1155 31.2677 35.9643 32.3384 35.7487 33.8677C35.7249 34.0278 35.5069 34.2091 35.3464 34.2091H35.2225C34.1616 34.2091 33.2471 34.6657 32.7116 35.4591C32.1757 36.2571 32.0987 37.2814 32.5011 38.2689C32.564 38.4228 32.4671 38.6787 32.3222 38.7568C31.3585 39.2701 30.7597 40.1259 30.6781 41.1009C30.5937 42.0755 31.0398 43.0189 31.9027 43.6884C32.0351 43.7907 32.0831 44.0563 31.9976 44.1954C31.4242 45.1173 31.3332 46.1548 31.7476 47.0392C31.9628 47.4982 32.3003 47.8755 32.7222 48.1568C32.407 48.8361 32.0664 49.497 31.6968 50.1439H16.4108L16.4104 11.4569H35.1924V19.5491C35.1924 20.4964 35.9627 21.2679 36.91 21.2679L45.0034 21.2683V29.9187C45.0034 30.866 45.7726 31.6363 46.7198 31.6363C47.6683 31.6363 48.4386 30.866 48.4386 29.9187V19.5497C48.4386 18.802 47.9351 18.3356 47.9351 18.3356L38.1261 8.5254C38.0179 8.41837 37.8929 8.33282 37.7617 8.25704C37.7304 8.23907 37.6988 8.22188 37.6667 8.20664C37.4323 8.09102 37.1738 8.02148 36.9097 8.02148H14.6927C13.7454 8.02148 12.9751 8.79179 12.9751 9.73908V51.8601C12.9751 52.8089 13.7454 53.5796 14.6927 53.5796L14.6926 53.5798ZM48.9986 50.2974C49.0009 50.2806 49.0126 50.2635 49.0189 50.2471C49.7439 51.5005 50.556 52.6997 51.4501 53.8345C51.2255 53.8193 51.0017 53.7982 50.7817 53.7756L50.6126 53.767C50.2114 53.767 49.8204 53.9095 49.5153 54.1638C49.1594 54.4588 48.9407 54.8752 48.9001 55.3381C48.8809 55.5564 48.8637 55.7767 48.8497 55.9978C48.0551 54.9955 47.3235 53.9435 46.6477 52.8564C47.8653 52.6556 48.8039 51.6634 48.9985 50.2974L48.9986 50.2974ZM42.3713 38.1514C44.5393 38.1514 46.3041 39.9143 46.3041 42.083C46.3041 44.2498 44.5396 46.0135 42.3713 46.0135C40.2045 46.0135 38.4408 44.2506 38.4408 42.083C38.4408 39.915 40.2041 38.1514 42.3713 38.1514ZM35.0854 51.0834C35.1471 51.1627 35.201 51.2495 35.2717 51.3217C36.0639 52.1389 37.3463 52.3697 38.5217 51.8979C38.6842 51.8338 38.9721 51.9596 39.0373 52.0795C39.0803 52.1588 39.1307 52.2323 39.1787 52.3065C38.6127 52.3631 38.0728 52.6862 37.8002 53.2057C36.9073 54.9135 35.9564 56.3725 34.7861 57.808C34.7709 57.5596 34.7522 57.3103 34.7307 57.0639C34.6901 56.601 34.4709 56.1838 34.1123 55.8873C33.8045 55.6349 33.4162 55.4951 33.0201 55.4951L32.8482 55.5037C32.6271 55.5263 32.4057 55.5455 32.1838 55.5626C32.8525 54.7134 34.8104 51.599 35.0854 51.0834ZM38.6276 13.8864L42.5733 17.8321H38.6276V13.8864Z" fill="white"/>
<path d="M19.7876 23.7176H31.1276C32.0761 23.7176 32.8464 22.9458 32.8464 21.9988C32.8464 21.0516 32.0761 20.2812 31.1276 20.2812H19.7876C18.8404 20.2812 18.0688 21.0516 18.0688 21.9988C18.0688 22.9457 18.8407 23.7176 19.7876 23.7176Z" fill="white"/>
<path d="M19.7876 29.869H40.8076C41.7549 29.869 42.5252 29.0971 42.5252 28.1502C42.5252 27.2029 41.7549 26.4326 40.8076 26.4326H19.7876C18.8404 26.4326 18.0688 27.2029 18.0688 28.1502C18.0688 29.0975 18.8407 29.869 19.7876 29.869Z" fill="white"/>
</svg>
