<svg width="145" height="26" viewBox="0 0 145 26" fill="none" xmlns="http://www.w3.org/2000/svg">
<path d="M12.5 0.880859L15.3064 9.51815H24.3882L17.0409 14.8563L19.8473 23.4936L12.5 18.1554L5.15268 23.4936L7.95911 14.8563L0.611794 9.51815H9.69357L12.5 0.880859Z" fill="#FFEE40"/>
<path d="M42.5 0.880859L45.3064 9.51815H54.3882L47.0409 14.8563L49.8473 23.4936L42.5 18.1554L35.1527 23.4936L37.9591 14.8563L30.6118 9.51815H39.6936L42.5 0.880859Z" fill="#FFEE40"/>
<path d="M72.5 0.880859L75.3064 9.51815H84.3882L77.0409 14.8563L79.8473 23.4936L72.5 18.1554L65.1527 23.4936L67.9591 14.8563L60.6118 9.51815H69.6936L72.5 0.880859Z" fill="#FFEE40"/>
<path d="M102.5 0.880859L105.306 9.51815H114.388L107.041 14.8563L109.847 23.4936L102.5 18.1554L95.1527 23.4936L97.9591 14.8563L90.6118 9.51815H99.6936L102.5 0.880859Z" fill="#FFEE40"/>
<path d="M132.5 0.880859L135.306 9.51815H144.388L137.041 14.8563L139.847 23.4936L132.5 18.1554L125.153 23.4936L127.959 14.8563L120.612 9.51815H129.694L132.5 0.880859Z" fill="#FFEE40"/>
</svg>
