<svg width="62" height="61" viewBox="0 0 62 61" fill="none" xmlns="http://www.w3.org/2000/svg">
<path d="M54.4459 25.6328V23.777C54.4459 10.913 43.9499 0.416992 31.0859 0.416992C18.2219 0.416992 7.7259 10.913 7.7259 23.777V25.6328C3.6299 27.1689 0.685669 31.1368 0.685669 35.7448C0.685669 41.6965 5.54956 46.5609 11.5018 46.5609H15.4058C16.4299 46.5609 17.2616 45.7287 17.2616 44.7051V26.7851C17.2616 25.761 16.4294 24.9293 15.4058 24.9293H13.6138V23.7776C13.6138 14.1137 21.4218 6.30556 31.0858 6.30556C40.7498 6.30556 48.5578 14.1136 48.5578 23.7776V24.9293H46.7658C45.7417 24.9293 44.91 25.7615 44.91 26.7851V44.7051C44.91 45.7292 45.7421 46.5609 46.7658 46.5609H47.5979C45.7421 50.8489 41.6461 53.8569 36.7818 54.2408C36.526 53.0247 35.4376 52.0649 34.0938 52.0649H28.0139C26.4778 52.0649 25.2622 53.281 25.2622 54.8167V57.9528C25.2622 59.4889 26.4783 60.7045 28.0139 60.7045H34.0938C35.438 60.7045 36.5898 59.7447 36.7818 58.4005C44.0139 58.0166 50.0298 53.0885 52.0778 46.4325C57.326 45.7285 61.422 41.1843 61.422 35.7445C61.4859 31.0731 58.5417 27.1691 54.4457 25.6329L54.4459 25.6328Z" fill="white"/>
<path d="M27.5018 24.9924C27.5018 23.9683 27.9501 22.9442 28.7817 22.2406C29.6139 21.5366 30.6375 21.2808 31.726 21.4728C33.134 21.7286 34.3501 22.8808 34.5421 24.2889C34.926 26.3371 33.5823 27.8728 32.11 28.321C30.0617 28.9612 28.718 30.8808 28.718 33.121V35.1049C28.718 36.3848 29.7421 37.4089 31.022 37.4089C32.3018 37.4089 33.326 36.3848 33.326 35.1049V33.121C33.326 32.929 33.4541 32.7371 33.5179 32.7371C37.4219 31.4572 39.7898 27.5532 39.0858 23.4572C38.5099 20.1291 35.8219 17.4411 32.4938 16.8652C30.0617 16.4169 27.6299 17.0571 25.7737 18.6572C23.9179 20.1933 22.8295 22.4974 22.8295 24.9291C22.8295 26.2089 23.8536 27.2331 25.1335 27.2331C26.4777 27.2964 27.5018 26.2723 27.5018 24.9924Z" fill="white"/>
<path d="M33.5818 41.8886C33.5818 43.2671 32.4644 44.3846 31.0858 44.3846C29.7072 44.3846 28.5898 43.2672 28.5898 41.8886C28.5898 40.51 29.7072 39.3926 31.0858 39.3926C32.4644 39.3926 33.5818 40.51 33.5818 41.8886Z" fill="white"/>
</svg>
