<svg width="56" height="56" viewBox="0 0 56 56" fill="none" xmlns="http://www.w3.org/2000/svg">
<path d="M42.7469 28.8239H46.1277C45.9733 24.2971 44.1518 20.1873 41.2586 17.089L38.8738 19.4738C38.6296 19.718 38.2341 19.718 37.9899 19.4738C37.7457 19.2296 37.7457 18.8341 37.9899 18.5899L40.3747 16.2051C37.2765 13.3118 33.1662 11.4899 28.6398 11.3359V14.7167C28.6398 15.0618 28.3599 15.3417 28.0148 15.3417C27.6697 15.3417 27.3898 15.0618 27.3898 14.7167V11.3359C22.863 11.49 18.7532 13.3118 15.6549 16.2051L18.0397 18.5899C18.2839 18.8341 18.2839 19.2296 18.0397 19.4738C17.7955 19.718 17.4 19.718 17.1558 19.4738L14.771 17.089C11.8777 20.1872 10.0558 24.297 9.90186 28.8239H13.2827C13.6277 28.8239 13.9077 29.1038 13.9077 29.4489C13.9077 29.794 13.6278 30.0739 13.2827 30.0739H9.90186C10.0559 34.6006 11.8777 38.7105 14.771 41.8087L17.1558 39.4239C17.4 39.1797 17.7955 39.1797 18.0397 39.4239C18.2839 39.6681 18.2839 40.0637 18.0397 40.3079L15.6549 42.6927C18.7531 45.5859 22.8634 47.4079 27.3898 47.5618V44.181C27.3898 43.8359 27.6697 43.556 28.0148 43.556C28.3599 43.556 28.6398 43.8359 28.6398 44.181V47.5618C33.1661 47.4078 37.2764 45.5859 40.3747 42.6927L37.9899 40.3079C37.7457 40.0637 37.7457 39.6681 37.9899 39.4239C38.2341 39.1797 38.6296 39.1797 38.8738 39.4239L41.2581 41.8083C44.1514 38.7101 45.9733 34.6003 46.1273 30.0734H42.7465C42.4014 30.0734 42.1215 29.7935 42.1215 29.4484C42.1219 29.1038 42.4018 28.8239 42.7469 28.8239ZM28.0144 32.5738C26.2912 32.5738 24.8893 31.172 24.8893 29.4488C24.8893 27.9399 25.9648 26.6769 27.3893 26.3867V19.4488C27.3893 19.1037 27.6692 18.8238 28.0143 18.8238C28.3594 18.8238 28.6393 19.1037 28.6393 19.4488V26.3867C30.0639 26.6769 31.1393 27.9394 31.1393 29.4488C31.1393 31.172 29.7376 32.5738 28.0144 32.5738Z" fill="white"/>
<path d="M40.771 50.21C39.6563 50.8975 38.4822 51.497 37.2585 52.0006L39.7822 54.5242C40.5134 55.255 41.7028 55.255 42.434 54.5242C43.1648 53.793 43.1648 52.6037 42.434 51.8725L40.771 50.21Z" fill="white"/>
<path d="M20.9664 6.11445C19.4596 3.91491 16.9601 2.57422 14.2641 2.57422C9.78372 2.57422 6.13904 6.2189 6.13904 10.6992C6.13904 12.5381 6.75288 14.2952 7.88144 15.7238C10.9868 11.1832 15.5864 7.74256 20.966 6.11445H20.9664Z" fill="white"/>
<path d="M28.0144 27.5742C26.9804 27.5742 26.1394 28.4153 26.1394 29.4492C26.1394 30.4831 26.9805 31.3242 28.0144 31.3242C29.0483 31.3242 29.8893 30.4831 29.8893 29.4492C29.8893 28.4153 29.0483 27.5742 28.0144 27.5742Z" fill="white"/>
<path d="M14.1881 51.8734C13.4568 52.6047 13.4568 53.794 14.1881 54.5252C14.9193 55.256 16.1087 55.256 16.8399 54.5252L19.193 52.1721C17.952 51.6886 16.7604 51.106 15.6274 50.4346L14.1881 51.8734Z" fill="white"/>
<path d="M3.63953 47.5742C2.26101 47.5742 1.13953 48.6956 1.13953 50.0742C1.13953 51.4528 2.26095 52.5742 3.63953 52.5742C5.0181 52.5742 6.13953 51.4528 6.13953 50.0742C6.13953 48.6956 5.0181 47.5742 3.63953 47.5742Z" fill="white"/>
<path d="M48.1469 15.7243C49.2755 14.2952 49.8893 12.5381 49.8893 10.6992C49.8893 6.2189 46.2442 2.57422 41.7643 2.57422C39.0678 2.57422 36.5688 3.91479 35.062 6.11445C40.4419 7.74256 45.0414 11.1832 48.1466 15.7243H48.1469Z" fill="white"/>
<path d="M29.8898 5.14565V1.94919C29.8898 0.915259 29.0488 0.0742188 28.0149 0.0742188C26.981 0.0742188 26.1399 0.915293 26.1399 1.94919V5.14565C26.7586 5.09833 27.3841 5.07422 28.0149 5.07422C28.6456 5.07422 29.2711 5.09833 29.8898 5.14565Z" fill="white"/>
<path d="M54.8899 2.57428C54.8899 1.885 54.3292 1.32422 53.6398 1.32422C52.9505 1.32422 52.3898 1.88493 52.3898 2.57428C52.3898 3.26362 52.9505 3.82433 53.6398 3.82433C54.3292 3.82433 54.8899 3.26362 54.8899 2.57428Z" fill="white"/>
<path d="M28.0145 6.32422C15.2636 6.32422 4.88989 16.6979 4.88989 29.4488C4.88989 42.1996 15.2636 52.5734 28.0145 52.5734C40.7653 52.5734 51.139 42.1996 51.139 29.4488C51.139 16.6979 40.7653 6.32422 28.0145 6.32422ZM41.7802 43.0694C41.7605 43.097 41.74 43.1243 41.715 43.1493C41.6904 43.1738 41.6628 43.1948 41.6351 43.2145C34.0824 50.6885 21.9597 50.7006 14.3939 43.2145C14.3239 43.1645 14.2975 43.1368 14.2493 43.0694C6.77559 35.5171 6.76268 23.3939 14.2493 15.8282C14.2689 15.8005 14.2895 15.7733 14.3145 15.7483C14.339 15.7238 14.3667 15.7032 14.3944 15.6831C17.897 12.2171 22.7101 10.0733 28.015 10.0733C38.6981 10.0733 47.3898 18.7679 47.3898 29.4482C47.3898 34.7535 45.2461 39.5664 41.78 43.0687L41.7802 43.0694Z" fill="white"/>
<path d="M55.5138 41.9493C55.5138 42.6399 54.954 43.1993 54.2637 43.1993C53.5735 43.1993 53.0137 42.64 53.0137 41.9493C53.0137 41.2591 53.5735 40.6992 54.2637 40.6992C54.954 40.6992 55.5138 41.259 55.5138 41.9493Z" fill="white"/>
<path d="M50.515 53.1993C50.515 53.8899 49.9552 54.4493 49.2649 54.4493C48.5747 54.4493 48.0149 53.89 48.0149 53.1993C48.0149 52.5091 48.5747 51.9492 49.2649 51.9492C49.9552 51.9492 50.515 52.509 50.515 53.1993Z" fill="white"/>
<path d="M3.0144 39.4493C3.0144 40.1399 2.45458 40.6993 1.76434 40.6993C1.0741 40.6993 0.514282 40.14 0.514282 39.4493C0.514282 38.7591 1.0741 38.1992 1.76434 38.1992C2.45458 38.1992 3.0144 38.759 3.0144 39.4493Z" fill="white"/>
<path d="M4.26464 3.19928C4.26464 3.8899 3.70482 4.44933 3.01458 4.44933C2.32434 4.44933 1.76453 3.88996 1.76453 3.19928C1.76453 2.50909 2.32434 1.94922 3.01458 1.94922C3.70482 1.94922 4.26464 2.50904 4.26464 3.19928Z" fill="white"/>
<path d="M55.5138 16.9503C55.5138 17.6409 54.954 18.2003 54.2637 18.2003C53.5735 18.2003 53.0137 17.6409 53.0137 16.9503C53.0137 16.2601 53.5735 15.7002 54.2637 15.7002C54.954 15.7002 55.5138 16.26 55.5138 16.9503Z" fill="white"/>
<path d="M4.26464 18.1993C4.26464 18.8899 3.70482 19.4493 3.01458 19.4493C2.32434 19.4493 1.76453 18.89 1.76453 18.1993C1.76453 17.5091 2.32434 16.9492 3.01458 16.9492C3.70482 16.9492 4.26464 17.509 4.26464 18.1993Z" fill="white"/>
</svg>
