<svg width="42" height="43" viewBox="0 0 42 43" fill="none" xmlns="http://www.w3.org/2000/svg">
<path fill-rule="evenodd" clip-rule="evenodd" d="M14.4598 11.1686C15.3195 11.1526 16.178 11.2408 17.0166 11.4311C17.7226 11.5852 18.3929 11.8721 18.9919 12.2763C19.5451 12.6783 19.9828 13.2188 20.2611 13.8435C20.5809 14.6116 20.7352 15.4385 20.7139 16.2703C20.7502 17.1836 20.5169 18.0874 20.0432 18.869C19.5448 19.6073 18.8559 20.1969 18.0495 20.5753C19.1438 20.8703 20.0969 21.546 20.7375 22.481C21.3524 23.4717 21.6615 24.6217 21.6261 25.7872C21.6463 26.7164 21.4542 27.6381 21.0643 28.4818C20.7039 29.2178 20.1762 29.8592 19.5234 30.3547C18.8514 30.8448 18.0951 31.2073 17.2922 31.4244C16.4595 31.6547 15.5994 31.7704 14.7354 31.7683H5.25V11.1686H14.4598ZM13.9125 19.5003C14.588 19.5282 15.2529 19.326 15.7986 18.9268C16.0599 18.6941 16.2631 18.4036 16.3921 18.0784C16.5211 17.7532 16.5723 17.4023 16.5414 17.0538C16.5589 16.6468 16.4779 16.2416 16.3052 15.8726C16.1587 15.5788 15.9309 15.3333 15.6489 15.1651C15.3633 14.9801 15.0424 14.8563 14.7066 14.8016C14.3421 14.731 13.9713 14.6989 13.6001 14.7058H9.54713V19.5187H13.9125V19.5003ZM14.1488 28.2705C14.5573 28.276 14.9649 28.2319 15.3628 28.1392C15.7264 28.0589 16.0713 27.9097 16.3787 27.6995C16.6799 27.4895 16.9232 27.2069 17.0861 26.8779C17.2751 26.4584 17.3619 26 17.3394 25.5405C17.3804 25.1217 17.3249 24.699 17.1773 24.305C17.0296 23.911 16.7937 23.556 16.4876 23.2672C15.8389 22.7894 15.0438 22.5527 14.2393 22.5978H9.54713V28.2705H14.1488Z" fill="white"/>
<path fill-rule="evenodd" clip-rule="evenodd" d="M27.7463 28.1943C28.0835 28.5069 28.4808 28.7477 28.914 28.9021C29.3472 29.0564 29.8073 29.121 30.2663 29.0921C30.9939 29.1105 31.7073 28.8891 32.2967 28.4621C32.7762 28.1503 33.1393 27.6889 33.3296 27.1496H36.7566C36.3914 28.685 35.4998 30.0439 34.2366 30.99C33.0248 31.7943 31.5927 32.2016 30.1389 32.1555C29.1014 32.1691 28.0717 31.974 27.111 31.5819C26.242 31.2195 25.4626 30.6717 24.8273 29.9767C24.1943 29.2485 23.7081 28.4049 23.3953 27.4921C23.0442 26.4719 22.8724 25.3987 22.8874 24.3198C22.881 23.2591 23.0586 22.2053 23.4124 21.2053C23.8877 19.7984 24.7964 18.5783 26.0082 17.72C27.2199 16.8617 28.6725 16.4093 30.1573 16.4278C31.2536 16.4049 32.3376 16.6614 33.3073 17.1733C34.1838 17.6539 34.94 18.327 35.5189 19.142C36.111 19.9972 36.5355 20.957 36.7697 21.9705C37.0265 23.0587 37.1181 24.1795 37.0414 25.295H26.8341C26.7514 26.3431 27.0784 27.3824 27.7463 28.1943ZM32.2245 20.36C31.9389 20.0743 31.5953 19.8532 31.217 19.7114C30.8387 19.5697 30.4344 19.5107 30.0313 19.5384C29.4966 19.518 28.9657 19.6365 28.4905 19.8823C28.1136 20.0897 27.781 20.3688 27.5113 20.7039C27.2723 21.0181 27.0942 21.3742 26.9863 21.7539C26.8891 22.0706 26.8283 22.3973 26.8052 22.7278H33.1275C33.0724 21.8663 32.7586 21.0415 32.2271 20.3613L32.2245 20.36Z" fill="white"/>
<path d="M25.9901 12.5441H33.9124V14.5693H25.9901V12.5441Z" fill="white"/>
</svg>
