<svg width="25" height="25" viewBox="0 0 25 25" fill="none" xmlns="http://www.w3.org/2000/svg">
<path d="M24.207 12.4985C24.207 5.97471 18.9892 0.686035 12.5527 0.686035C6.11628 0.686035 0.898438 5.97462 0.898438 12.4985C0.898438 18.3944 5.16027 23.2814 10.7318 24.1675V15.9131H7.77265V12.4985H10.7318V9.89609C10.7318 6.93559 12.4717 5.30029 15.1337 5.30029C16.4088 5.30029 17.7425 5.53101 17.7425 5.53101V8.43799H16.273C14.8251 8.43799 14.3737 9.34857 14.3737 10.2828V12.4985H17.606L17.0893 15.9131H14.3737V24.1675C19.9452 23.2814 24.207 18.3945 24.207 12.4985Z" fill="#1877F2"/>
<path d="M17.0891 15.9126L17.6058 12.498H14.3735V10.2823C14.3735 9.34798 14.825 8.4375 16.2728 8.4375H17.7423V5.53052C17.7423 5.53052 16.4087 5.2998 15.1335 5.2998C12.4715 5.2998 10.7316 6.9351 10.7316 9.89561V12.498H7.77246V15.9126H10.7316V24.167C11.334 24.2627 11.9428 24.3107 12.5525 24.3105C13.1623 24.3107 13.7711 24.2628 14.3735 24.167V15.9126H17.0891Z" fill="white"/>
</svg>
