<svg width="42" height="43" viewBox="0 0 42 43" fill="none" xmlns="http://www.w3.org/2000/svg">
<path d="M18.375 37.2437C10.9375 35.9312 5.25 29.4562 5.25 21.6687C5.25 13.0062 12.3375 5.9187 21 5.9187C29.6625 5.9187 36.75 13.0062 36.75 21.6687C36.75 29.4562 31.0625 35.9312 23.625 37.2437L22.75 36.5437H19.25L18.375 37.2437Z" fill="white"/>
<path d="M27.125 26.0437L27.825 21.6687H23.625V18.6062C23.625 17.3812 24.0625 16.4187 25.9875 16.4187H28V12.3937C26.8625 12.2187 25.6375 12.0437 24.5 12.0437C20.9125 12.0437 18.375 14.2312 18.375 18.1687V21.6687H14.4375V26.0437H18.375V37.1562C19.25 37.3312 20.125 37.4187 21 37.4187C21.875 37.4187 22.75 37.3312 23.625 37.1562V26.0437H27.125Z" fill="#23242A"/>
</svg>
