<svg width="56" height="55" viewBox="0 0 56 55" fill="none" xmlns="http://www.w3.org/2000/svg">
<path fill-rule="evenodd" clip-rule="evenodd" d="M33.4627 0.588234C37.665 1.43823 41.6105 3.25703 44.9862 5.90024C48.3616 8.54355 51.0733 11.9377 52.9063 15.8136H44.3322C43.5327 12.9578 42.3442 10.2253 40.8001 7.69349C39.0523 4.69703 36.5139 2.23898 33.4631 0.58812L33.4627 0.588234ZM42.7163 15.8134C41.9637 13.2482 40.8766 10.7937 39.4829 8.51246C36.6967 4.04458 32.9426 1.17452 28.8007 0.854862V15.8149L42.7163 15.8134ZM27.2466 15.8134H13.3323C14.085 13.2482 15.1721 10.7937 16.5663 8.51246C19.3529 4.04458 23.1068 1.17452 27.2475 0.854862V15.8149L27.2466 15.8134ZM11.7163 15.8134H11.7168C12.5154 12.9571 13.7043 10.225 15.2489 7.69326C16.9962 4.69635 19.5346 2.23841 22.5859 0.587891C18.3836 1.43789 14.4377 3.25703 11.0625 5.89989C7.68707 8.54321 4.97449 11.9374 3.14147 15.8133L11.7163 15.8134ZM53.5815 17.367C56.0574 23.6018 56.177 30.5247 53.9185 36.8413H44.9516C45.6114 33.7904 45.9408 30.6774 45.9346 27.556C45.9435 24.1248 45.5435 20.7052 44.7431 17.3685L53.5815 17.367ZM43.3627 36.8436H28.7993V17.3681H43.149C43.9789 20.7002 44.3932 24.1222 44.382 27.5557C44.3896 30.6798 44.0477 33.795 43.3629 36.8432L43.3627 36.8436ZM27.2462 36.8436H12.6839C11.2562 30.4217 11.3303 23.7567 12.8999 17.3681H27.2497V36.8436H27.2462ZM11.0953 36.8436H2.12479C-0.133267 30.5266 -0.013153 23.6036 2.46184 17.3681H11.3038C9.78859 23.7637 9.71762 30.4161 11.0953 36.8436ZM53.3113 38.3932C51.5528 42.4856 48.8279 46.0909 45.3707 48.8999C41.9136 51.7088 37.827 53.6374 33.461 54.5209C36.5123 52.8709 39.0512 50.4125 40.7985 47.4156C42.5016 44.6146 43.7758 41.5745 44.5784 38.3964L53.3113 38.3932ZM28.7993 54.2572C32.9399 53.9357 36.6949 51.0701 39.4815 46.5974C41.0346 44.0465 42.2105 41.284 42.973 38.396H28.7993V54.2572ZM22.585 54.5268H22.5855C18.219 53.6429 14.1323 51.7139 10.6746 48.9045C7.21747 46.0951 4.49289 42.4893 2.73438 38.3961H11.4683C12.271 41.5746 13.5451 44.6143 15.2482 47.4153C16.9951 50.4134 19.5335 52.8729 22.5852 54.5242L22.585 54.5268ZM13.0738 38.3965C13.8363 41.2845 15.0122 44.0469 16.5654 46.5979C19.3515 51.0707 23.1068 53.9363 27.2462 54.2577V38.3959L13.0738 38.3965Z" fill="white"/>
</svg>
