<svg width="56" height="55" viewBox="0 0 56 55" fill="none" xmlns="http://www.w3.org/2000/svg">
<path d="M21.1489 30.2061C21.1489 30.7239 20.7293 31.1435 20.2114 31.1435C19.6936 31.1435 19.2739 30.7239 19.2739 30.2061C19.2739 29.6882 19.6936 29.2686 20.2114 29.2686C20.7293 29.2686 21.1489 29.6882 21.1489 30.2061Z" fill="white"/>
<path d="M26.0369 25.3184C26.5494 25.3184 26.9744 24.9059 26.9744 24.3809C26.9744 23.8684 26.5619 23.4434 26.0369 23.4434C25.5244 23.4434 25.0994 23.8559 25.0994 24.3809C25.0994 24.9059 25.5244 25.3184 26.0369 25.3184Z" fill="white"/>
<path d="M2.83688 40.3812C2.83688 42.5687 4.61186 44.3311 6.78683 44.3311H6.82433H49.0369C51.2369 44.3311 53.087 42.5812 53.087 40.3812V8.95605H2.83667L2.83688 40.3812ZM20.2117 27.2818C20.5367 27.2818 20.8617 27.3318 21.1742 27.4443L23.1492 24.9693C22.8367 23.3818 23.8617 21.8318 25.4492 21.5192C27.0367 21.2067 28.5867 22.2317 28.8993 23.8192C28.9243 23.9567 28.9493 24.0817 28.9493 24.2192L30.6118 25.5818C31.7118 24.7068 33.2868 24.7443 34.3493 25.6693L36.2992 23.5442C35.4867 22.1442 35.9492 20.3567 37.3492 19.5318C38.7492 18.7193 40.5368 19.1818 41.3617 20.5818C42.1742 21.9818 41.7117 23.7693 40.3117 24.5942C39.5617 25.0317 38.6616 25.1192 37.8492 24.8317L35.3492 27.5568C35.3617 27.6693 35.3742 27.7818 35.3742 27.8943C35.3742 29.5193 34.0617 30.8193 32.4367 30.8193C30.8116 30.8193 29.5116 29.5068 29.5116 27.8818C29.5116 27.6818 29.5366 27.4943 29.5741 27.2943L28.2992 26.2568C27.3117 27.4568 25.5492 27.6693 24.2992 26.7443L22.7242 28.7068C23.5492 30.0944 23.0992 31.8944 21.7117 32.7318C20.3242 33.5568 18.5242 33.1068 17.6867 31.7193C16.8492 30.3318 17.3117 28.5318 18.6992 27.6943C19.1617 27.4193 19.6867 27.2818 20.2116 27.2818L20.2117 27.2818ZM14.2117 17.4942C14.2117 16.9442 14.6617 16.4942 15.2117 16.4942C15.7617 16.4942 16.2117 16.9442 16.2117 17.4942V34.5697C16.2117 34.6572 16.2242 34.7072 16.3242 34.7072H38.4614C39.0114 34.7072 39.4614 35.1572 39.4614 35.7072C39.4614 36.2572 39.0114 36.7072 38.4614 36.7072H16.3242C15.1617 36.7072 14.2242 35.7697 14.2118 34.6196V34.5696L14.2117 17.4942Z" fill="white"/>
<path d="M33.374 27.8809C33.374 28.3987 32.9544 28.8184 32.4365 28.8184C31.9187 28.8184 31.499 28.3987 31.499 27.8809C31.499 27.363 31.9187 26.9434 32.4365 26.9434C32.9544 26.9434 33.374 27.363 33.374 27.8809Z" fill="white"/>
<path d="M38.8369 22.9941C39.3494 22.9941 39.7744 22.5816 39.7744 22.0566C39.7744 21.5316 39.3619 21.1191 38.8369 21.1191C38.3244 21.1191 37.8994 21.5316 37.8994 22.0566C37.8994 22.5816 38.3244 22.9941 38.8369 22.9941Z" fill="white"/>
<path d="M51.8986 0.331055H4.02318C1.82318 0.331055 0.0856934 2.20603 0.0856934 4.4186V6.95608H55.8354V4.4186C55.8354 2.20614 54.0979 0.331055 51.8979 0.331055H51.8986Z" fill="white"/>
<path d="M39.9992 52.9938L28.5238 44.7063L28.4988 44.6813C28.4738 44.6688 28.4613 44.6563 28.4363 44.6438C28.4238 44.6313 28.4113 44.6313 28.3988 44.6313C28.3863 44.6188 28.3613 44.6188 28.3488 44.6063C28.3363 44.5938 28.3238 44.5938 28.2988 44.5938C28.2738 44.5938 28.2738 44.5813 28.2488 44.5813C28.2363 44.5813 28.2113 44.5688 28.1988 44.5688C28.1863 44.5688 28.1738 44.5563 28.1613 44.5563C28.1488 44.5563 28.1238 44.5438 28.1113 44.5438C28.0988 44.5438 28.0863 44.5438 28.0738 44.5312H28.0238H27.9738H27.9238H27.8738H27.8363C27.8113 44.5312 27.7988 44.5312 27.7738 44.5438H27.7363C27.7113 44.5438 27.6988 44.5563 27.6738 44.5563C27.6613 44.5563 27.6488 44.5688 27.6363 44.5688C27.6113 44.5688 27.5988 44.5813 27.5738 44.5813C27.5613 44.5813 27.5488 44.5938 27.5363 44.5938C27.5238 44.6063 27.4988 44.6063 27.4863 44.6188C27.4738 44.6313 27.4488 44.6313 27.4363 44.6438C27.4238 44.6438 27.4113 44.6563 27.3988 44.6688C27.3738 44.6813 27.3613 44.6938 27.3363 44.7063C27.3238 44.7063 27.3238 44.7188 27.3113 44.7188L27.2988 44.7313L15.8359 53.0188C15.3859 53.3313 15.2734 53.9563 15.5984 54.4188C15.9234 54.8813 16.5359 54.9813 16.9984 54.6563L17.0109 54.6438L27.9109 46.7688L38.8109 54.6438C39.2609 54.9688 39.8859 54.8813 40.2109 54.4313C40.5359 53.9813 40.4484 53.3563 39.9984 53.0313C40.0109 52.9938 39.9984 52.9938 39.9984 52.9938L39.9992 52.9938Z" fill="white"/>
</svg>
