<svg width="50" height="50" viewBox="0 0 50 50" fill="none" xmlns="http://www.w3.org/2000/svg">
<path d="M44.5863 26.1018C44.5843 27.5418 44.0112 28.9221 42.993 29.9402C41.9749 30.9583 40.5946 31.5311 39.1546 31.5334H37.0402V35.9081C37.709 36.1336 38.2305 36.6648 38.4436 37.3378C38.6568 38.0111 38.5362 38.7455 38.1191 39.315C37.702 39.8847 37.0382 40.2215 36.3322 40.2215C35.6261 40.2215 34.9625 39.8847 34.5454 39.315C34.1283 38.7455 34.0077 38.0111 34.2209 37.3378C34.4341 36.6649 34.9552 36.1336 35.6243 35.9081V31.5351H33.7906V33.6531V33.6528C33.7954 33.8436 33.7228 34.0281 33.5897 34.1645C33.4563 34.3009 33.2739 34.378 33.083 34.378C32.8924 34.378 32.7097 34.3009 32.5766 34.1645C32.4435 34.0281 32.371 33.8436 32.3754 33.6528V31.5351H25.715V35.378H28.0328C28.2585 34.7089 28.7895 34.1874 29.4625 33.9743C30.1358 33.7611 30.8701 33.8814 31.4399 34.2985C32.0097 34.7156 32.3462 35.3794 32.3462 36.0856C32.3462 36.7916 32.0097 37.4554 31.4399 37.8725C30.8702 38.2896 30.1358 38.4102 29.4625 38.197C28.7895 37.9836 28.2586 37.4624 28.0328 36.7933H25.0071C24.6165 36.7933 24.2996 36.4766 24.2993 36.086V31.5352H22.2401V33.6532V33.6529C22.2446 33.8438 22.172 34.0282 22.039 34.1646C21.9059 34.3011 21.7231 34.3781 21.5325 34.3781C21.3417 34.3781 21.1589 34.3011 21.0258 34.1646C20.8927 34.0282 20.8202 33.8438 20.8249 33.6529V31.5352H18.3015V37.9058C18.3015 38.0933 18.227 38.2735 18.0942 38.4061C17.9614 38.5389 17.7814 38.6134 17.5937 38.6134H14.5694C14.3436 39.2824 13.8124 39.8039 13.1394 40.0171C12.4664 40.2302 11.732 40.1097 11.1622 39.6926C10.5924 39.2754 10.2559 38.6116 10.2559 37.9057C10.2559 37.1995 10.5924 36.5357 11.1622 36.1186C11.732 35.7014 12.4664 35.5809 13.1394 35.7943C13.8124 36.0075 14.3436 36.5287 14.5694 37.1978H16.8852L16.8849 31.5351H13.7614V33.6531V33.6529C13.7658 33.8437 13.6936 34.0281 13.5602 34.1646C13.4271 34.301 13.2444 34.378 13.0538 34.378C12.8629 34.378 12.6805 34.301 12.5471 34.1646C12.414 34.0281 12.3415 33.8437 12.3462 33.6529V31.5351H10.8598C9.02805 31.5407 7.31662 30.6228 6.3082 29.0934C5.29984 27.5644 5.1302 25.6297 5.85702 23.9484C6.58388 22.267 8.10924 21.065 9.91395 20.7519C10.4234 19.1144 11.4276 17.6752 12.789 16.6322C14.15 15.5892 15.801 14.9941 17.5144 14.9283C18.2895 13.0912 19.7002 11.5946 21.4885 10.7129C23.2767 9.83085 25.3227 9.62243 27.2519 10.1261C29.1813 10.6297 30.8646 11.8114 31.9938 13.4545C33.9126 12.3667 36.2647 12.38 38.1712 13.4897C40.0775 14.5996 41.2507 16.6384 41.2522 18.844C41.2516 19.562 41.1269 20.2742 40.8833 20.9495C41.9612 21.3145 42.8975 22.0075 43.5613 22.9317C44.2254 23.8555 44.5836 24.964 44.5862 26.1019L44.5863 26.1018Z" fill="white"/>
</svg>
