<svg width="50" height="50" viewBox="0 0 50 50" fill="none" xmlns="http://www.w3.org/2000/svg">
<path d="M32.5 20.0358V20.6608H42.5V20.0358C42.5 19.87 42.4342 19.711 42.317 19.5938C42.1998 19.4766 42.0407 19.4108 41.875 19.4108H33.125C32.7799 19.4108 32.5 19.6906 32.5 20.0358Z" fill="white"/>
<path d="M32.5 36.2858C32.5 36.4515 32.5658 36.6105 32.683 36.7277C32.8002 36.8449 32.9593 36.9108 33.125 36.9108H41.875C42.0407 36.9108 42.1998 36.8449 42.317 36.7277C42.4342 36.6105 42.5 36.4515 42.5 36.2858V34.4228L32.5 34.4108V36.2858ZM36.875 35.0358H38.125V36.2858H36.875V35.0358Z" fill="white"/>
<path d="M32.5 33.1608L42.5 33.172V21.9105H32.5V33.1608ZM39.375 27.5358H40.625V28.7858H39.375V27.5358ZM36.875 27.5358H38.125V28.7858H36.875V27.5358ZM34.375 27.5358H35.625V28.7858H34.375V27.5358Z" fill="white"/>
<path d="M20 33.1608H26.25V36.9108H20V33.1608Z" fill="white"/>
<path d="M17.5 38.1608C17.1549 38.1608 16.875 38.4406 16.875 38.7858V39.4108H29.375V38.7858C29.375 38.62 29.3092 38.461 29.192 38.3438C29.0748 38.2266 28.9157 38.1608 28.75 38.1608H17.5Z" fill="white"/>
<path d="M38.125 10.6608H8.125C7.77986 10.6608 7.5 10.9406 7.5 11.2858V31.2858C7.5 31.4515 7.56585 31.6105 7.68304 31.7277C7.80022 31.8449 7.95926 31.9108 8.125 31.9108H31.25V20.0358C31.25 19.5386 31.4475 19.0614 31.7991 18.7099C32.1507 18.3584 32.6278 18.1608 33.125 18.1608H38.75V11.2858C38.75 11.1201 38.6841 10.961 38.5669 10.8438C38.4497 10.7267 38.2907 10.6608 38.125 10.6608ZM21.25 31.2858H20V30.0358H21.25V31.2858ZM23.75 31.2858H22.5V30.0358H23.75V31.2858ZM26.25 31.2858H25V30.0358H26.25V31.2858ZM37.5 16.9108C37.5 17.2559 37.2201 17.5358 36.875 17.5358C36.5299 17.5358 36.25 17.2559 36.25 16.9108V13.1608H10V28.1608H30C30.3451 28.1608 30.625 28.4406 30.625 28.7858C30.625 29.1309 30.3451 29.4108 30 29.4108H9.375C9.02986 29.4108 8.75 29.1309 8.75 28.7858V12.5358C8.75 12.1906 9.02986 11.9108 9.375 11.9108H36.875C37.0407 11.9108 37.1998 11.9766 37.317 12.0938C37.4342 12.211 37.5 12.37 37.5 12.5358V16.9108ZM26.25 20.0358V21.2858H25V20.0358H26.25ZM23.75 20.0358V21.2858H22.5V20.0358H23.75ZM21.25 20.0358V21.2858H20V20.0358H21.25Z" fill="white"/>
</svg>
