<svg width="50" height="50" viewBox="0 0 50 50" fill="none" xmlns="http://www.w3.org/2000/svg">
<path d="M40.9666 25.5048V22.1577C40.9666 21.2216 40.595 20.3237 39.9328 19.6619C39.271 19.0001 38.3734 18.6281 37.4372 18.6281H12.6551C11.719 18.6281 10.8214 19 10.1595 19.6619C9.49741 20.3237 9.12574 21.2216 9.12574 22.1577V25.5048C8.41229 25.4953 7.72674 25.2271 7.19631 24.7498C6.66617 24.2726 6.32745 23.6189 6.24316 22.9105C6.24316 22.7221 6.21387 22.5282 6.21387 22.3223C6.21387 20.7564 6.81822 19.2512 7.90108 18.1203C8.98365 16.9892 10.4614 16.3198 12.0255 16.2517C11.9806 15.8611 11.9569 15.4685 11.9549 15.0751C11.9549 12.2419 13.2629 9.5673 15.499 7.82794C17.7353 6.08802 20.6496 5.47809 23.3961 6.17502C26.1422 6.872 28.4131 8.79752 29.5494 11.3932C30.8437 10.6719 32.3834 10.5344 33.7851 11.0149C35.1866 11.4954 36.3184 12.5484 36.8984 13.912C37.4782 15.2752 37.452 16.821 36.8256 18.1639C38.2413 17.6686 39.8005 17.7967 41.116 18.5168C42.4316 19.2367 43.38 20.4811 43.7257 21.9404V22.011C43.8872 22.8503 43.6755 23.7183 43.1459 24.3894C42.6163 25.0601 41.8208 25.4675 40.9667 25.5051L40.9666 25.5048Z" fill="white"/>
<path d="M37.4376 28.704C37.9055 28.704 38.3544 28.5182 38.6854 28.1873C39.0163 27.8564 39.2024 27.4074 39.2024 26.9395V22.1571C39.2024 21.689 39.0163 21.2403 38.6854 20.9091C38.3544 20.5782 37.9055 20.3923 37.4376 20.3923H12.6554C12.1875 20.3923 11.7386 20.5782 11.4076 20.9091C11.0767 21.2403 10.8906 21.6889 10.8906 22.1571V26.9395C10.8906 27.4074 11.0767 27.8564 11.4076 28.1873C11.7386 28.5182 12.1875 28.704 12.6554 28.704H14.6083V29.798L12.6554 29.7983C12.1875 29.7983 11.7386 29.9841 11.4076 30.3151C11.0767 30.646 10.8906 31.0949 10.8906 31.5628V36.3452C10.8906 36.8134 11.0767 37.2621 11.4076 37.5933C11.7386 37.9242 12.1875 38.11 12.6554 38.11H24.4204V39.6276C24.0287 39.7325 23.6719 39.939 23.3856 40.2261C23.0996 40.5132 22.8942 40.8709 22.791 41.2629H13.6496C13.3248 41.2629 13.0614 41.5263 13.0614 41.8511C13.0614 42.1762 13.3248 42.4396 13.6496 42.4396H22.8138C22.9852 43.1 23.4419 43.6499 24.0594 43.9398C24.6772 44.23 25.392 44.23 26.0095 43.9398C26.6272 43.6499 27.0837 43.1 27.2551 42.4396H36.4143C36.7391 42.4396 37.0025 42.1762 37.0025 41.8511C37.0025 41.5263 36.7391 41.2629 36.4143 41.2629H27.2551C27.1493 40.8673 26.9398 40.5074 26.6482 40.2197C26.3566 39.9323 25.9933 39.7278 25.5963 39.6276V38.1101H37.432C37.8999 38.1101 38.3488 37.9242 38.6798 37.5933C39.0107 37.2621 39.1968 36.8135 39.1968 36.3453V31.5629C39.1968 31.095 39.0107 30.646 38.6798 30.3151C38.3489 29.9842 37.8999 29.7984 37.432 29.7984H35.4791V28.7041L37.4376 28.704ZM35.5433 23.3097V23.31C35.5433 22.985 35.8067 22.7219 36.1317 22.7219C36.4565 22.7219 36.7199 22.985 36.7199 23.31V25.7866V25.7863C36.7199 26.1114 36.4565 26.3748 36.1317 26.3748C35.8067 26.3748 35.5433 26.1114 35.5433 25.7863V23.3097ZM35.5433 32.7219V32.7222C35.5433 32.3971 35.8067 32.1337 36.1317 32.1337C36.4565 32.1337 36.7199 32.3971 36.7199 32.7222V35.1987V35.1985C36.7199 35.5235 36.4565 35.7866 36.1317 35.7866C35.8067 35.7866 35.5433 35.5235 35.5433 35.1985V32.7219ZM30.8904 23.3105C30.8904 22.9854 31.1538 22.7223 31.4788 22.7223C31.8036 22.7223 32.067 22.9854 32.067 23.3105V25.787V25.7868C32.067 26.1118 31.8036 26.3752 31.4788 26.3752C31.1538 26.3752 30.8904 26.1118 30.8904 25.7868V23.3105ZM28.5374 23.3105C28.5374 22.9854 28.8008 22.7223 29.1259 22.7223C29.4507 22.7223 29.7141 22.9854 29.7141 23.3105V25.787V25.7868C29.7141 26.1118 29.4507 26.3752 29.1259 26.3752C28.8008 26.3752 28.5374 26.1118 28.5374 25.7868V23.3105ZM19.9081 22.7223H19.9084C20.3939 22.7223 20.8593 22.9151 21.2025 23.2586C21.5457 23.6023 21.7382 24.068 21.7377 24.5535C21.7371 25.039 21.5437 25.5043 21.1997 25.8473C20.856 26.1899 20.39 26.3819 19.9042 26.381C19.4187 26.3799 18.9536 26.186 18.6112 25.8417C18.2689 25.4974 18.0772 25.0311 18.0788 24.5456C18.0788 24.0621 18.2711 23.5981 18.6129 23.2563C18.955 22.9142 19.4187 22.7222 19.9025 22.7222L19.9081 22.7223ZM13.3551 24.5459L13.3554 24.5457C13.3554 24.0604 13.5482 23.595 13.8911 23.2522C14.2343 22.909 14.6997 22.7162 15.1846 22.7162C15.6699 22.7162 16.1353 22.909 16.4784 23.2522C16.8213 23.5951 17.0141 24.0604 17.0141 24.5457C17.0141 25.0309 16.8213 25.4963 16.4784 25.8392C16.1352 26.1823 15.6699 26.3751 15.1846 26.3751C14.698 26.3782 14.2304 26.1865 13.8855 25.8431C13.5409 25.4996 13.3478 25.0322 13.3495 24.5456L13.3551 24.5459ZM15.1846 35.7809V35.7807C14.6989 35.7823 14.2324 35.5906 13.8881 35.2477C13.5438 34.9048 13.3501 34.4392 13.3496 33.9534C13.349 33.4673 13.5418 33.0014 13.8853 32.6579C14.229 32.3141 14.695 32.1213 15.1808 32.1219C15.6668 32.1224 16.1325 32.3164 16.4754 32.6607C16.8181 33.0047 17.01 33.4715 17.0083 33.9572C17.0083 34.4419 16.8155 34.9065 16.4721 35.2488C16.1289 35.5909 15.6635 35.7823 15.1789 35.7806L15.1846 35.7809ZM19.8906 35.7809V35.7807C19.4048 35.7823 18.9383 35.5906 18.594 35.2477C18.2497 34.9048 18.0561 34.4392 18.0555 33.9534C18.0549 33.4673 18.2477 33.0014 18.5912 32.6579C18.9347 32.3141 19.4009 32.1213 19.8867 32.1219C20.3728 32.1224 20.8384 32.3164 21.1811 32.6607C21.524 33.0047 21.7157 33.4715 21.7143 33.9572C21.7126 34.4383 21.5217 34.8995 21.1827 35.2407C20.8435 35.5823 20.3836 35.7762 19.9026 35.7806L19.8906 35.7809ZM15.7729 29.7985L15.7731 28.7042H34.3024V29.7982L15.7729 29.7985ZM29.7143 35.1925C29.7143 35.5173 29.4509 35.7807 29.1261 35.7807C28.8011 35.7807 28.5377 35.5173 28.5377 35.1925V32.7159C28.5377 32.3912 28.8011 32.1278 29.1261 32.1278C29.4509 32.1278 29.7143 32.3912 29.7143 32.7159V35.1925ZM32.0672 35.1925C32.0672 35.5173 31.8038 35.7807 31.479 35.7807C31.154 35.7807 30.8906 35.5173 30.8906 35.1925V32.7159C30.8906 32.3912 31.154 32.1278 31.479 32.1278C31.8038 32.1278 32.0672 32.3912 32.0672 32.7159V35.1925ZM34.4201 35.1925C34.4201 35.5173 34.1568 35.7807 33.832 35.7807C33.5069 35.7807 33.2435 35.5173 33.2435 35.1925V32.7159C33.2435 32.3912 33.5069 32.1278 33.832 32.1278C34.1568 32.1278 34.4201 32.3912 34.4201 32.7159V35.1925ZM34.4201 25.7804C34.4201 26.1054 34.1568 26.3688 33.832 26.3688C33.5069 26.3688 33.2435 26.1054 33.2435 25.7804V23.3099C33.2435 22.9849 33.5069 22.7218 33.832 22.7218C34.1568 22.7218 34.4201 22.9849 34.4201 23.3099V25.7804Z" fill="white"/>
</svg>
