<svg width="50" height="50" viewBox="0 0 50 50" fill="none" xmlns="http://www.w3.org/2000/svg">
<path d="M42.0493 39.2007H7.98857C6.65514 39.2007 5.625 38.1098 5.625 36.8371V7.98857C5.625 6.716 6.71593 5.625 7.98857 5.625H42.0493C43.3221 5.625 44.4131 6.71593 44.4131 7.98857V36.8371C44.4131 38.11 43.3222 39.201 42.0496 39.201L42.0493 39.2007ZM7.98857 6.83714C7.38254 6.83714 6.83707 7.38262 6.83707 7.98864V36.8372C6.83707 37.5038 7.38255 37.9887 7.98857 37.9887H42.0493C42.7159 37.9887 43.2008 37.4432 43.2008 36.8372L43.2011 7.98864C43.2011 7.38261 42.6556 6.83714 42.0496 6.83714H7.98857Z" fill="white"/>
<path d="M33.867 43.8063C33.867 44.1699 33.6245 44.4123 33.261 44.4123H16.776C16.4729 44.4123 16.1699 44.1699 16.1699 43.8063C16.1699 43.4427 16.4729 43.2003 16.776 43.2003H19.079V40.4124H31.0182V43.2003H33.3212C33.6243 43.2003 33.8667 43.4425 33.8667 43.8063H33.867Z" fill="white"/>
<path d="M40.8971 8.53369H9.13923C8.83622 8.53369 8.5332 8.83671 8.5332 9.13972V35.6247C8.5332 35.9883 8.83622 36.2308 9.13923 36.2308H40.8364C41.1394 36.2308 41.4424 35.9883 41.4424 35.6247V9.13972C41.5032 8.83671 41.2002 8.53369 40.8972 8.53369H40.8971ZM20.7149 25.6244C21.018 25.7455 21.1391 26.1699 20.9574 26.4123C20.7755 26.7154 20.4119 26.8364 20.1695 26.6548L12.7152 22.8973C12.5333 22.7762 12.4122 22.5943 12.4122 22.3518C12.4122 22.1094 12.5333 21.9277 12.7152 21.8063L20.1695 18.1093C20.4725 17.9274 20.8361 18.0488 20.9574 18.3518C21.0785 18.6548 21.018 19.0184 20.7149 19.1397L14.3514 22.3518L20.7149 25.6244ZM28.2299 15.6851L22.8965 29.5637C22.7754 29.8667 22.4116 30.0486 22.1086 29.9273C21.8056 29.8062 21.6237 29.4423 21.745 29.1393L27.0785 15.2607C27.1996 14.9577 27.5634 14.7758 27.8664 14.8972C28.2299 15.0186 28.3513 15.3821 28.2299 15.6851ZM37.3207 22.958L29.8057 26.7155C29.5026 26.8366 29.1391 26.776 29.0177 26.473C28.8966 26.17 29.0177 25.8064 29.2602 25.6851L35.6843 22.473L29.2602 19.2004C28.9572 19.0794 28.8361 18.7155 29.0177 18.4125C29.1388 18.1095 29.5027 17.9884 29.8057 18.17L37.3207 21.9276C37.5026 22.0486 37.6842 22.2306 37.6842 22.473C37.6842 22.7155 37.5631 22.8366 37.3207 22.958Z" fill="white"/>
</svg>
