<svg width="50" height="50" viewBox="0 0 50 50" fill="none" xmlns="http://www.w3.org/2000/svg">
<path d="M41.25 16.25H21.25C20.5597 16.25 20 16.8097 20 17.5V21.25H42.5V17.5C42.5 16.8097 41.9403 16.25 41.25 16.25ZM22.5 20C21.8097 20 21.25 19.4403 21.25 18.75C21.25 18.0597 21.8097 17.5 22.5 17.5C23.1903 17.5 23.75 18.0597 23.75 18.75C23.75 19.4403 23.1903 20 22.5 20ZM26.25 20C25.5597 20 25 19.4403 25 18.75C25 18.0597 25.5597 17.5 26.25 17.5C26.9403 17.5 27.5 18.0597 27.5 18.75C27.5 19.4403 26.9403 20 26.25 20Z" fill="white"/>
<path d="M20 22.5V32.5C20 33.1903 20.5597 33.75 21.25 33.75H41.25C41.9403 33.75 42.5 33.1903 42.5 32.5V22.5H20ZM28.5671 30.1829C28.8113 30.427 28.8113 30.8226 28.5671 31.0668C28.4449 31.1887 28.2851 31.2498 28.1252 31.2498C27.9653 31.2498 27.8054 31.1887 27.6832 31.0668L25.1832 28.5668C24.9391 28.3226 24.9391 27.927 25.1832 27.6829L27.6832 25.1829C27.9274 24.9387 28.323 24.9387 28.5671 25.1829C28.8113 25.427 28.8113 25.8226 28.5671 26.0668L26.5091 28.1248L28.5671 30.1829ZM32.4812 25.7764L31.2312 30.7764C31.1606 31.0607 30.9062 31.2499 30.6257 31.2499C30.5758 31.2499 30.5245 31.2437 30.4737 31.2309C30.1386 31.1472 29.9346 30.8079 30.0189 30.4734L31.2689 25.4734C31.352 25.1377 31.6919 24.9301 32.0264 25.0186C32.3618 25.1026 32.5655 25.4418 32.4812 25.7764ZM37.3171 28.5668L34.8171 31.0668C34.6949 31.1887 34.5351 31.2498 34.3752 31.2498C34.2153 31.2498 34.0554 31.1887 33.9332 31.0668C33.6891 30.8226 33.6891 30.427 33.9332 30.1829L35.9915 28.1249L33.9335 26.0669C33.6894 25.8227 33.6894 25.4271 33.9335 25.1829C34.1776 24.9388 34.5733 24.9388 34.8174 25.1829L37.3174 27.6829C37.5613 27.9271 37.5613 28.3227 37.3172 28.5669L37.3171 28.5668Z" fill="white"/>
<path d="M21.25 35C19.8694 35 18.75 33.8806 18.75 32.5V17.5C18.75 16.1194 19.8694 15 21.25 15H27.5V11.25C27.5 10.5597 26.9403 10 26.25 10H21.25C21.25 11.3806 20.1306 12.5 18.75 12.5C17.3694 12.5 16.25 11.3806 16.25 10H11.25C10.5597 10 10 10.5597 10 11.25V38.75C10 39.4403 10.5597 40 11.25 40H26.25C26.9403 40 27.5 39.4403 27.5 38.75V35H21.25Z" fill="white"/>
<path d="M28.75 35V38.75C28.75 40.1289 27.6289 41.25 26.25 41.25H11.25C9.87107 41.25 8.75 40.1289 8.75 38.75V11.25C8.75 9.87107 9.87107 8.75 11.25 8.75H26.25C27.6289 8.75 28.75 9.87107 28.75 11.25V15H30V11.25C30 9.18221 28.3178 7.5 26.25 7.5H11.25C9.18221 7.5 7.5 9.18221 7.5 11.25V38.75C7.5 40.8178 9.18221 42.5 11.25 42.5H26.25C28.3178 42.5 30 40.8178 30 38.75V35H28.75Z" fill="white"/>
</svg>
