<svg width="70" height="70" viewBox="0 0 70 70" fill="none" xmlns="http://www.w3.org/2000/svg">
<path d="M49.0497 44.2351L35.7387 28.7341C35.7141 28.7017 35.6918 28.6681 35.6715 28.6333C35.4758 28.2181 35.1102 27.908 34.6692 27.7822C34.1875 27.6927 33.5829 27.9279 32.877 28.4822C29.1028 31.8088 25.6364 32.822 22.288 31.5791L22.204 31.5455C20.227 30.5486 19.2306 29.5631 19.0794 28.4432C18.9278 27.3229 19.7063 26.0123 21.0669 24.6291C21.1634 24.5424 21.1802 24.3974 21.1064 24.2912C21.0325 24.1846 20.8907 24.1494 20.7759 24.2092L18.2782 25.3291V21.2467C18.2782 20.5603 17.7215 20.0037 17.0348 20.0037H9.79418C9.10746 20.0037 8.55078 20.5603 8.55078 21.2467V47.3427C8.55078 48.0294 9.10742 48.5861 9.79418 48.5861H17.0348C17.3649 48.5861 17.6809 48.4552 17.9141 48.222C18.1473 47.9888 18.2781 47.6724 18.2781 47.3427V41.7427L31.5831 51.3861C31.6124 51.3974 31.639 51.4146 31.6617 51.4365C35.1113 54.2365 42.7217 50.8763 46.8887 47.3654C48.8321 45.7302 49.2797 44.6662 49.1285 44.347V44.3466C49.096 44.3142 49.0695 44.2763 49.0499 44.2349L49.0497 44.2351ZM13.4167 27.5131C12.91 27.5131 12.4241 27.312 12.0659 26.9534C11.7077 26.5948 11.5069 26.1084 11.5073 25.6018C11.5077 25.0951 11.7096 24.6092 12.0686 24.2514C12.4272 23.8935 12.9139 23.6932 13.4206 23.6939C13.9272 23.6951 14.4128 23.8975 14.7706 24.2568C15.128 24.6158 15.328 25.1025 15.3265 25.6091C15.3265 26.115 15.1249 26.6001 14.7667 26.9575C14.4085 27.3146 13.923 27.5146 13.4167 27.513L13.4167 27.5131Z" fill="white"/>
<path d="M60.1944 20.0042H52.9479C52.2627 20.0073 51.7077 20.562 51.7049 21.2472V25.0441C51.5674 24.9433 51.4213 24.8554 51.2677 24.7808L36.7867 17.9156C36.0242 17.5527 35.1762 17.4097 34.3371 17.5027C33.4985 17.5957 32.7019 17.9211 32.0379 18.4418L21.1789 26.909C20.8676 27.1488 20.6926 27.5254 20.7102 27.918C20.7282 28.3105 20.9368 28.6699 21.2684 28.8801C23.2266 30.2086 25.7231 30.4574 27.9047 29.541C29.1375 29.0219 30.234 28.2246 31.1078 27.2113C32.939 25.1562 34.7031 25.3183 36.4223 27.1219L50.2823 42.8409C50.455 43.0409 50.6776 43.1916 50.9276 43.2772C51.1776 43.3627 51.446 43.3803 51.7049 43.328V47.3432C51.7077 48.0287 52.2628 48.5834 52.9479 48.5866H60.1944C60.5241 48.5866 60.8405 48.4557 61.0734 48.2225C61.3066 47.9893 61.4378 47.6729 61.4378 47.3432V21.2472C61.4378 20.5609 60.8811 20.0042 60.1944 20.0042ZM56.5714 45.2662C56.0635 45.2673 55.576 45.0666 55.2167 44.708C54.8573 44.3494 54.6557 43.8623 54.6561 43.3545C54.6565 42.8467 54.8592 42.3599 55.2194 42.0022C55.5795 41.6444 56.0674 41.4444 56.5749 41.4467C57.0827 41.4494 57.5686 41.6541 57.9253 42.0154C58.2819 42.3768 58.4796 42.8654 58.4753 43.3732C58.471 43.876 58.2683 44.3564 57.912 44.7107C57.5558 45.065 57.0737 45.2646 56.5714 45.2662Z" fill="white"/>
</svg>
