<svg width="70" height="70" viewBox="0 0 70 70" fill="none" xmlns="http://www.w3.org/2000/svg">
<path d="M17.9066 45.4839C18.1953 45.6355 18.4816 45.7124 18.7574 45.712C19.1574 45.712 19.5136 45.5507 19.7609 45.2573C19.9597 45.0214 20.1726 44.5979 20.0562 43.9225L19.73 42.0268L21.112 40.6838C21.5925 40.2178 21.7706 39.651 21.6023 39.1299C21.4331 38.6084 20.9558 38.2541 20.2921 38.158L18.3788 37.8811L17.5233 36.1545C17.2272 35.5553 16.7428 35.2119 16.1948 35.2119C15.6463 35.2119 15.1616 35.5557 14.8659 36.1545L14.0108 37.8811L12.0979 38.158C11.4338 38.2541 10.9561 38.6084 10.787 39.1303C10.6179 39.6518 10.7964 40.2182 11.2768 40.6838L12.6592 42.0272L12.3339 43.9213C12.2167 44.5971 12.4292 45.0205 12.6284 45.2572C13.0456 45.7533 13.7745 45.8553 14.4823 45.4842L16.1948 44.5869L17.9066 45.4839Z" fill="white"/>
<path d="M50.4791 38.1578L48.5658 37.8808L47.7115 36.1546C47.4154 35.5554 46.9306 35.2117 46.3822 35.2117C45.8342 35.2117 45.3498 35.555 45.0533 36.1539L44.1978 37.8805L42.2845 38.1574C41.6209 38.2535 41.1439 38.6074 40.9743 39.1293C40.8056 39.6508 40.9837 40.2172 41.4642 40.6832L42.8466 42.0262L42.5204 43.9215C42.4036 44.5969 42.6169 45.0203 42.8157 45.2567C43.2337 45.7516 43.9614 45.8544 44.6704 45.4833L46.3821 44.5868L48.0946 45.4837C48.3833 45.6352 48.6696 45.7118 48.945 45.7118C49.345 45.7118 49.7013 45.5504 49.9481 45.2567C50.1473 45.0204 50.3594 44.5969 50.2426 43.9223L49.9172 42.0266L51.2992 40.6836C51.7797 40.2176 51.9586 39.6512 51.7895 39.1297C51.6199 38.6082 51.1426 38.2535 50.479 38.1578L50.4791 38.1578Z" fill="white"/>
<path d="M59.2244 29.159C59.0603 28.6672 58.6177 28.332 58.0111 28.2402L56.4423 28.0016L55.7333 26.4996C55.3458 25.6753 54.7247 25.5867 54.4751 25.5867C54.2259 25.5867 53.6052 25.6753 53.2169 26.4988L52.5079 28.0015L50.9399 28.2401C50.3333 28.3319 49.8911 28.6667 49.7266 29.1581C49.561 29.655 49.7176 30.1976 50.1579 30.6464L51.3165 31.828L51.0415 33.5065C50.936 34.1534 51.1419 34.5577 51.3329 34.7823C51.7341 35.253 52.4267 35.3475 53.0821 34.9882L54.4755 34.2214L55.8693 34.9882C56.1392 35.1362 56.4091 35.2116 56.672 35.2116C57.0474 35.2116 57.3837 35.0589 57.6193 34.7812C57.8107 34.5562 58.0162 34.1515 57.9095 33.5053L57.6345 31.8281L58.7927 30.6468C59.2329 30.198 59.39 29.6559 59.2244 29.159Z" fill="white"/>
<path d="M31.2881 30.3999C35.3963 30.3999 38.7256 27.0698 38.7256 22.9616C38.7256 18.8538 35.3963 15.5249 31.2881 15.5249C27.1815 15.5249 23.8506 18.8538 23.8506 22.9616C23.8506 27.0698 27.1815 30.3999 31.2881 30.3999Z" fill="white"/>
<path d="M36.1779 48.897L38.4775 46.5509C39.0751 45.9419 39.297 45.2302 39.0864 44.5974C38.8782 43.9739 38.29 43.5454 37.4727 43.4208L34.325 42.9427L32.9105 39.9427C32.3863 38.8322 31.6019 38.7122 31.289 38.7122C30.9754 38.7122 30.1906 38.8321 29.6683 39.9431L28.2531 42.9427L25.1051 43.4208C24.2876 43.545 23.6985 43.9743 23.491 44.5981C23.2801 45.2309 23.502 45.943 24.0989 46.5501L26.3997 48.8974L25.8559 52.2189C25.7086 53.1126 25.9715 53.6466 26.218 53.9377C26.7223 54.5318 27.6035 54.6322 28.4821 54.1494L31.2887 52.606L34.0946 54.1494C34.4723 54.3572 34.8423 54.4627 35.1934 54.4627C35.6575 54.4627 36.0708 54.2763 36.3582 53.9377C36.6051 53.6471 36.8688 53.1127 36.7219 52.2205L36.1779 48.897Z" fill="white"/>
<path d="M19.0924 35.378L19.5396 36.2807L20.5431 36.426C21.8712 36.6178 22.89 37.4272 23.2669 38.5901C23.6438 39.753 23.2943 41.0049 22.3314 41.9397L21.6115 42.6393L21.781 43.6257C21.8056 43.7694 21.8208 43.9112 21.8298 44.0522C21.8306 44.0495 21.8306 44.0471 21.8314 44.0448C22.2478 42.7936 23.3736 41.9136 24.8431 41.6905L27.0689 41.3522L28.0857 39.196C28.7431 37.7983 29.9412 36.9624 31.2888 36.9624C32.6349 36.9624 33.8329 37.7972 34.4931 39.1956L35.5099 41.3526L37.7349 41.6905C39.2033 41.9136 40.3287 42.7932 40.7458 44.0432C40.7466 44.0463 40.7469 44.0491 40.7477 44.0522C40.7567 43.9116 40.7716 43.769 40.7966 43.6252L40.9661 42.6393L40.2454 41.9389C39.2833 41.0053 38.9337 39.7534 39.3106 38.5905C39.6875 37.4276 40.7059 36.6182 42.0348 36.4264L43.0379 36.2811L43.4852 35.378C43.6598 35.0249 43.8817 34.7194 44.1325 34.4561C42.7184 32.3018 40.6641 30.5381 37.7067 29.5241C36.0493 31.1456 33.7852 32.1495 31.2887 32.1495C28.7485 32.1495 26.4461 31.1124 24.7813 29.4397C21.7743 30.4174 19.7145 32.1678 18.3145 34.3237C18.6211 34.6128 18.8875 34.9643 19.0922 35.378L19.0924 35.378Z" fill="white"/>
<path d="M46.383 46.563L45.4838 47.0341C44.06 47.7806 42.4111 47.4911 41.4787 46.3853C41.2119 46.0688 41.0197 45.7052 40.8967 45.3123C40.8342 46.1853 40.4369 47.0529 39.726 47.7771L38.0479 49.4892L38.0623 49.579H44.7709C45.9697 49.579 47.0072 48.629 47.0303 47.4544C47.0338 47.2728 47.0358 47.0896 47.0369 46.906L46.383 46.563Z" fill="white"/>
<path d="M24.5296 49.4889L22.8491 47.7748C22.1389 47.0525 21.7425 46.1853 21.6803 45.3123C21.5568 45.7048 21.3651 46.0681 21.0983 46.3846C20.5213 47.0693 19.6678 47.4619 18.7565 47.4619C18.1955 47.4622 17.6358 47.3181 17.0936 47.0341L16.1939 46.5626L15.5439 46.9033C15.5471 47.0876 15.5502 47.272 15.5549 47.454C15.5857 48.6286 16.6221 49.5786 17.8229 49.5786H24.5147L24.5296 49.4889Z" fill="white"/>
</svg>
