<svg width="42" height="43" viewBox="0 0 42 43" fill="none" xmlns="http://www.w3.org/2000/svg">
<path d="M21.0006 6.39624C16.8529 6.39624 16.3324 6.41438 14.7033 6.48851C13.0775 6.56297 11.9677 6.82038 10.9966 7.19806C9.99215 7.58815 9.14008 8.10997 8.2912 8.95919C7.44168 9.8081 6.91988 10.6602 6.52853 11.6644C6.1499 12.6358 5.89218 13.7459 5.819 15.3712C5.74614 17.0003 5.72705 17.5211 5.72705 21.669C5.72705 25.8168 5.74551 26.3357 5.81932 27.9648C5.89409 29.5907 6.15149 30.7006 6.52884 31.6716C6.91924 32.6761 7.44104 33.5282 8.29025 34.3771C9.13881 35.2267 9.99088 35.7498 10.9947 36.1399C11.9664 36.5176 13.0765 36.775 14.7021 36.8494C16.3311 36.9236 16.8513 36.9417 20.9987 36.9417C25.1467 36.9417 25.6656 36.9236 27.2947 36.8494C28.9205 36.775 30.0316 36.5176 31.0033 36.1399C32.0074 35.7498 32.8582 35.2267 33.7068 34.3771C34.5563 33.5282 35.0781 32.6761 35.4695 31.672C35.8449 30.7006 36.1026 29.5904 36.179 27.9651C36.2522 26.3361 36.2713 25.8168 36.2713 21.669C36.2713 17.5211 36.2522 17.0006 36.179 15.3715C36.1026 13.7456 35.8449 12.6358 35.4695 11.6647C35.0781 10.6602 34.5563 9.8081 33.7068 8.95919C32.8573 8.10965 32.0078 7.58783 31.0023 7.19806C30.0287 6.82038 28.9183 6.56297 27.2924 6.48851C25.6634 6.41438 25.1448 6.39624 20.9958 6.39624H21.0006ZM19.6305 9.14851C20.0372 9.14788 20.4909 9.14851 21.0006 9.14851C25.0783 9.14851 25.5616 9.16315 27.1719 9.23633C28.6609 9.30442 29.4691 9.55324 30.0074 9.76229C30.7201 10.0391 31.2282 10.37 31.7624 10.9046C32.297 11.4391 32.6279 11.9482 32.9053 12.6609C33.1144 13.1986 33.3635 14.0068 33.4313 15.4959C33.5044 17.1059 33.5203 17.5896 33.5203 21.6655C33.5203 25.7414 33.5044 26.225 33.4313 27.835C33.3632 29.3241 33.1144 30.1323 32.9053 30.67C32.6285 31.3827 32.297 31.8902 31.7624 32.4245C31.2279 32.959 30.7204 33.2899 30.0074 33.5667C29.4697 33.7767 28.6609 34.0249 27.1719 34.093C25.5619 34.1662 25.0783 34.1821 21.0006 34.1821C16.9226 34.1821 16.4393 34.1662 14.8293 34.093C13.3403 34.0243 12.5321 33.7755 11.9935 33.5664C11.2807 33.2896 10.7717 32.9587 10.2371 32.4241C9.70261 31.8896 9.37171 31.3818 9.09427 30.6687C8.88523 30.131 8.6361 29.3228 8.56833 27.8337C8.49515 26.2237 8.48051 25.7401 8.48051 21.6616C8.48051 17.5832 8.49515 17.1021 8.56833 15.4921C8.63642 14.003 8.88523 13.1948 9.09427 12.6565C9.37108 11.9437 9.70261 11.4346 10.2371 10.9001C10.7717 10.3656 11.2807 10.0346 11.9935 9.75719C12.5318 9.54719 13.3403 9.29901 14.8293 9.2306C16.2382 9.16697 16.7842 9.14788 19.6305 9.14469V9.14851ZM29.1528 11.6844C28.141 11.6844 27.3201 12.5044 27.3201 13.5165C27.3201 14.5283 28.141 15.3492 29.1528 15.3492C30.1646 15.3492 30.9855 14.5283 30.9855 13.5165C30.9855 12.5047 30.1646 11.6838 29.1528 11.6838V11.6844ZM21.0006 13.8258C16.6693 13.8258 13.1576 17.3376 13.1576 21.669C13.1576 26.0004 16.6693 29.5106 21.0006 29.5106C25.3319 29.5106 28.8423 26.0004 28.8423 21.669C28.8423 17.3376 25.3315 13.8258 21.0003 13.8258H21.0006ZM21.0006 16.5781C23.812 16.5781 26.0913 18.8572 26.0913 21.669C26.0913 24.4804 23.812 26.7599 21.0006 26.7599C18.1889 26.7599 15.9098 24.4804 15.9098 21.669C15.9098 18.8572 18.1889 16.5781 21.0006 16.5781Z" fill="url(#paint0_radial_79_10040)"/>
<path d="M21.0006 6.39624C16.8529 6.39624 16.3324 6.41438 14.7033 6.48851C13.0775 6.56297 11.9677 6.82038 10.9966 7.19806C9.99215 7.58815 9.14008 8.10997 8.2912 8.95919C7.44168 9.8081 6.91988 10.6602 6.52853 11.6644C6.1499 12.6358 5.89218 13.7459 5.819 15.3712C5.74614 17.0003 5.72705 17.5211 5.72705 21.669C5.72705 25.8168 5.74551 26.3357 5.81932 27.9648C5.89409 29.5907 6.15149 30.7006 6.52884 31.6716C6.91924 32.6761 7.44104 33.5282 8.29025 34.3771C9.13881 35.2267 9.99088 35.7498 10.9947 36.1399C11.9664 36.5176 13.0765 36.775 14.7021 36.8494C16.3311 36.9236 16.8513 36.9417 20.9987 36.9417C25.1467 36.9417 25.6656 36.9236 27.2947 36.8494C28.9205 36.775 30.0316 36.5176 31.0033 36.1399C32.0074 35.7498 32.8582 35.2267 33.7068 34.3771C34.5563 33.5282 35.0781 32.6761 35.4695 31.672C35.8449 30.7006 36.1026 29.5904 36.179 27.9651C36.2522 26.3361 36.2713 25.8168 36.2713 21.669C36.2713 17.5211 36.2522 17.0006 36.179 15.3715C36.1026 13.7456 35.8449 12.6358 35.4695 11.6647C35.0781 10.6602 34.5563 9.8081 33.7068 8.95919C32.8573 8.10965 32.0078 7.58783 31.0023 7.19806C30.0287 6.82038 28.9183 6.56297 27.2924 6.48851C25.6634 6.41438 25.1448 6.39624 20.9958 6.39624H21.0006ZM19.6305 9.14851C20.0372 9.14788 20.4909 9.14851 21.0006 9.14851C25.0783 9.14851 25.5616 9.16315 27.1719 9.23633C28.6609 9.30442 29.4691 9.55324 30.0074 9.76229C30.7201 10.0391 31.2282 10.37 31.7624 10.9046C32.297 11.4391 32.6279 11.9482 32.9053 12.6609C33.1144 13.1986 33.3635 14.0068 33.4313 15.4959C33.5044 17.1059 33.5203 17.5896 33.5203 21.6655C33.5203 25.7414 33.5044 26.225 33.4313 27.835C33.3632 29.3241 33.1144 30.1323 32.9053 30.67C32.6285 31.3827 32.297 31.8902 31.7624 32.4245C31.2279 32.959 30.7204 33.2899 30.0074 33.5667C29.4697 33.7767 28.6609 34.0249 27.1719 34.093C25.5619 34.1662 25.0783 34.1821 21.0006 34.1821C16.9226 34.1821 16.4393 34.1662 14.8293 34.093C13.3403 34.0243 12.5321 33.7755 11.9935 33.5664C11.2807 33.2896 10.7717 32.9587 10.2371 32.4241C9.70261 31.8896 9.37171 31.3818 9.09427 30.6687C8.88523 30.131 8.6361 29.3228 8.56833 27.8337C8.49515 26.2237 8.48051 25.7401 8.48051 21.6616C8.48051 17.5832 8.49515 17.1021 8.56833 15.4921C8.63642 14.003 8.88523 13.1948 9.09427 12.6565C9.37108 11.9437 9.70261 11.4346 10.2371 10.9001C10.7717 10.3656 11.2807 10.0346 11.9935 9.75719C12.5318 9.54719 13.3403 9.29901 14.8293 9.2306C16.2382 9.16697 16.7842 9.14788 19.6305 9.14469V9.14851ZM29.1528 11.6844C28.141 11.6844 27.3201 12.5044 27.3201 13.5165C27.3201 14.5283 28.141 15.3492 29.1528 15.3492C30.1646 15.3492 30.9855 14.5283 30.9855 13.5165C30.9855 12.5047 30.1646 11.6838 29.1528 11.6838V11.6844ZM21.0006 13.8258C16.6693 13.8258 13.1576 17.3376 13.1576 21.669C13.1576 26.0004 16.6693 29.5106 21.0006 29.5106C25.3319 29.5106 28.8423 26.0004 28.8423 21.669C28.8423 17.3376 25.3315 13.8258 21.0003 13.8258H21.0006ZM21.0006 16.5781C23.812 16.5781 26.0913 18.8572 26.0913 21.669C26.0913 24.4804 23.812 26.7599 21.0006 26.7599C18.1889 26.7599 15.9098 24.4804 15.9098 21.669C15.9098 18.8572 18.1889 16.5781 21.0006 16.5781Z" fill="white"/>
<defs>
<radialGradient id="paint0_radial_79_10040" cx="0" cy="0" r="1" gradientUnits="userSpaceOnUse" gradientTransform="translate(13.8404 39.2943) rotate(-90) scale(30.2728 28.1549)">
<stop stop-color="#FFDD55"/>
<stop offset="0.1" stop-color="#FFDD55"/>
<stop offset="0.5" stop-color="#FF543E"/>
<stop offset="1" stop-color="#C837AB"/>
</radialGradient>
</defs>
</svg>
