<svg width="62" height="58" viewBox="0 0 62 58" fill="none" xmlns="http://www.w3.org/2000/svg">
<path d="M59.4794 22.4448H55.0633C54.5512 20.6528 53.8472 18.8609 52.8874 17.2609L56.0235 14.1248C56.7276 13.3569 56.7276 12.1409 56.0235 11.373L50.0718 5.42127C49.3039 4.6534 48.0879 4.6534 47.32 5.42127L44.1839 8.55738C42.5839 7.6614 40.7919 6.95738 38.9356 6.44538V1.96504C38.9356 0.877093 38.1035 0.0449219 37.0155 0.0449219H28.5035C27.4156 0.0449219 26.5834 0.877059 26.5834 1.96504V6.38115C24.7276 6.89321 22.9995 7.59727 21.3352 8.55704L18.2633 5.48515C17.4954 4.71729 16.2794 4.71729 15.5115 5.48515L9.55976 11.4369C8.85573 12.1409 8.85573 13.4208 9.55976 14.1887L12.3115 16.9405C12.8236 16.0445 13.6558 15.3405 14.6794 14.8285C15.4473 14.4445 16.3433 14.1883 17.2392 14.1883C18.5191 14.1883 19.799 14.6365 20.8231 15.4044L25.7512 19.1803C27.7351 17.7084 30.103 16.8124 32.7271 16.8124C39.2552 16.8124 44.5671 22.1244 44.5671 28.6524C44.5671 35.181 39.3193 40.4935 32.7271 40.4935C30.103 40.4935 27.6713 39.5976 25.7512 38.1257L20.8231 41.9015C19.799 42.6694 18.5191 43.1177 17.2392 43.1177C16.3432 43.1177 15.4472 42.9257 14.6794 42.5418C13.7196 42.0935 12.8874 41.39 12.3115 40.4935L9.62353 43.1815C8.85566 43.8856 8.85566 45.1654 9.62353 45.9333L15.5753 51.8851C16.3432 52.6529 17.5592 52.6529 18.3271 51.8851L21.4632 48.749C23.0632 49.6449 24.8552 50.349 26.7114 50.861V55.2771C26.7114 56.365 27.5436 57.1972 28.6315 57.1972H37.0798C38.1677 57.1972 38.9999 56.3651 38.9999 55.2771V50.861C40.8556 50.3489 42.5838 49.6448 44.2481 48.6851L47.32 51.757C48.0878 52.5248 49.3039 52.5248 50.0718 51.757L56.0235 45.8052C56.7914 45.1012 56.7914 43.8213 56.0235 43.0534L52.8874 39.9173C53.7834 38.3173 54.5513 36.5253 55.0633 34.6691H59.4794C60.5035 34.6691 61.3995 33.8369 61.3995 32.749L61.3991 24.3655C61.3991 23.3414 60.5031 22.4454 59.479 22.4454L59.4794 22.4448Z" fill="white"/>
<path d="M15.5114 37.2288C15.5114 37.869 15.8954 38.5087 16.4713 38.8288C17.0472 39.1489 17.8155 39.0846 18.327 38.6369L29.527 30.061C29.9752 29.7409 30.2311 29.2288 30.2311 28.653C30.2311 28.0771 29.9752 27.565 29.527 27.245L18.3275 18.6691C18.0074 18.4133 17.6235 18.2852 17.2395 18.2852C16.9837 18.2852 16.7275 18.349 16.4717 18.4771C15.8958 18.7972 15.5119 19.3731 15.5119 20.0771V23.9811H2.07186C1.304 23.9811 0.599976 24.6213 0.599976 25.453V31.9811C0.599976 32.749 1.24016 33.453 2.07186 33.453H15.5119L15.5114 37.2288Z" fill="white"/>
</svg>
