<svg width="359" height="445" viewBox="0 0 359 445" fill="none" xmlns="http://www.w3.org/2000/svg">
<path d="M359 60.64L323.153 80.9385V40.5942L359 20.2957V60.64Z" fill="#5E1DBB"/>
<path d="M323.264 40.5322L287.417 20.2313L323.042 0.0615959L358.889 20.3576L323.264 40.5322Z" fill="white"/>
<path d="M323.153 80.9385L287.306 60.64V20.2957L323.153 40.5942V80.9385Z" fill="#07CBF5"/>
<path d="M136.118 49.0247C136.118 49.0247 120.304 41.8944 111.739 58.8705C103.175 75.8491 86.6351 119.238 117.941 125.499C149.247 131.755 144.582 74.8531 144.582 74.8531L136.118 49.0247Z" fill="white"/>
<path d="M121.016 373.66L118.967 405.59L90.3321 408.711L81.8716 392.026L83.7199 367.907L121.016 373.66Z" fill="#FD8753"/>
<path d="M65.5449 361.385L41.2028 382.686L18.5977 365.164L24.5389 347.462L43.138 331.581L65.5449 361.385Z" fill="#FD8753"/>
<path d="M41.6369 143.65C41.6369 143.65 73.7375 128.856 90.2604 132.744C106.783 136.628 113.829 103.07 113.829 103.07C113.829 103.07 66.6024 71.0032 28.3584 126.924C0.699148 167.365 39.5274 141.048 39.5274 141.048L41.6369 143.65Z" fill="#FD8753"/>
<path d="M87.9696 195.027L25.1055 335.701L62.631 373.66C62.631 373.66 81.5549 358.354 100.478 306.927C119.401 255.499 112.666 205.606 112.666 205.606L87.9696 195.027Z" fill="#FFB700"/>
<path d="M162.145 38.3542C162.145 38.3542 145.278 30.5127 136.563 42.8658C128.1 54.8595 138.683 66.5312 138.683 66.5312L158.664 50.0482L162.145 38.3542Z" fill="white"/>
<path d="M144.866 73.6025L144.747 87.4966C144.747 87.4966 147.267 91.5102 155.547 92.2411C161.715 92.7836 163.897 91.4334 163.897 91.4334L163.097 84.3897L162.306 77.5195L147.372 74.1699L144.866 73.6025Z" fill="#FD8753"/>
<path d="M147.372 74.1693C147.405 74.5484 147.548 74.9993 147.772 75.5121C150.883 82.4765 159.532 84.0448 163.097 84.3892L162.306 77.5189L147.372 74.1693Z" fill="black"/>
<path d="M163.824 44.7584C163.824 44.7584 172.703 62.1631 170.374 72.3161C168.048 82.469 158.668 81.3665 153.005 79.7165C147.341 78.0664 144.582 74.8531 144.582 74.8531C144.582 74.8531 139.478 76.8475 135.753 72.2863C132.027 67.7252 133.877 62.1755 136.777 60.7782C139.678 59.3784 143.316 61.3009 143.316 61.3009L140.277 56.2616C140.277 56.2616 150.513 29.3654 163.824 44.7584Z" fill="#FD8753"/>
<path d="M167.116 67.9038C166.724 67.8766 166.461 67.5817 166.484 67.2398C166.888 61.6802 164.458 58.9599 164.433 58.9326C164.201 58.6799 164.218 58.2909 164.476 58.0605C164.736 57.8276 165.133 57.8475 165.368 58.1002C165.481 58.2216 168.189 61.1996 167.745 67.3265C167.722 67.6536 167.444 67.9038 167.116 67.9038Z" fill="black"/>
<path d="M143.547 68.6001L143.304 68.5506L135.875 65.5003C135.554 65.369 135.403 65.0072 135.538 64.69C135.672 64.3753 136.038 64.2192 136.364 64.358L143.791 67.4083C144.114 67.5396 144.264 67.9038 144.129 68.221C144.029 68.4564 143.794 68.6001 143.547 68.6001Z" fill="black"/>
<path d="M137.07 70.4531L136.634 70.2822C136.381 70.0468 136.371 69.6553 136.612 69.405L139.747 66.1763C139.989 65.9335 140.388 65.9211 140.64 66.159C140.892 66.3919 140.902 66.7834 140.661 67.0337L137.528 70.2623L137.07 70.4531Z" fill="black"/>
<path d="M161.766 70.2821C161.885 70.9585 162.089 71.6102 162.415 71.9397L162.882 72.1405C163.63 72.1405 164.07 71.8307 164.322 71.526C163.653 71.3302 162.678 70.9585 161.766 70.2821ZM162.885 73.3794C162.38 73.3794 161.887 73.1787 161.511 72.7996C160.344 71.6251 160.371 68.944 160.377 68.6392C160.382 68.3741 160.561 68.1412 160.819 68.0644C161.076 67.9826 161.359 68.0743 161.518 68.2923C162.852 70.0937 165.317 70.4902 165.343 70.4952L165.772 70.7652L165.858 71.2583C165.669 71.9918 164.805 73.3794 162.885 73.3794Z" fill="black"/>
<path d="M159.992 61.0063C159.699 61.0063 159.429 60.823 159.333 60.538L158.3 57.4308L158.34 56.9105L159.227 55.2131C159.404 54.8786 159.818 54.7448 160.159 54.9158C160.497 55.0892 160.634 55.498 160.46 55.8326L159.704 57.2797L160.649 60.1168C160.768 60.4736 160.571 60.8577 160.207 60.9741L159.992 61.0063Z" fill="black"/>
<path d="M169.031 60.1094C168.74 60.1094 168.47 59.926 168.374 59.6411L167.341 56.5338L167.381 56.0135L168.265 54.3136C168.44 53.9791 168.856 53.8478 169.197 54.0188C169.538 54.1898 169.675 54.5986 169.501 54.9331L168.745 56.3802L169.688 59.2198C169.809 59.5742 169.609 59.9607 169.245 60.0747L169.031 60.1094Z" fill="black"/>
<path d="M166.722 52.0127L164.593 51.7723C164.214 51.7277 163.941 51.3906 163.986 51.0163C164.029 50.647 164.388 50.3893 164.752 50.4215L166.8 50.657C167.179 50.6991 167.452 51.0386 167.407 51.4104C167.366 51.7549 167.066 52.0127 166.722 52.0127Z" fill="black"/>
<path d="M244.803 70.9064C244.803 70.9064 227.706 93.9673 211.305 98.3154C194.901 102.664 205.098 135.431 205.098 135.431C205.098 135.431 262.212 141.41 268.49 74.3551C273.029 25.8597 249.744 70.9064 249.744 70.9064H244.803Z" fill="#FD8753"/>
<path d="M156.46 53.7622C156.197 53.7622 155.947 53.6136 155.83 53.3608C155.673 53.0214 155.824 52.6201 156.173 52.464L160.25 50.6405C160.604 50.4869 161.008 50.6331 161.167 50.9775C161.326 51.3169 161.172 51.7182 160.826 51.8743L156.747 53.6978L156.46 53.7622Z" fill="black"/>
<path d="M97.5957 152.517C97.5957 152.517 84.1199 195.198 85.0819 199.177C86.044 203.155 95.345 225.196 95.9873 227.031C96.6287 228.867 79.3096 378.25 79.3096 378.25L135.652 392.026C135.652 392.026 173.454 232.613 168.864 186.392C164.274 140.169 97.5957 152.517 97.5957 152.517Z" fill="#FFB700"/>
<path d="M294.714 38.1041L293.302 33.9691L229.684 54.887L231.098 59.022L294.714 38.1041Z" fill="#5E1DBB"/>
<path d="M145.013 64.3936C145.013 64.3936 152.19 62.1539 157.739 54.0523C163.289 45.9483 163.085 43.9439 163.085 43.9439L166.881 51.7408C166.881 51.7408 169.253 45.366 166.967 41.5085C164.681 37.6559 162.145 38.3546 162.145 38.3546L145.288 41.8999L139.104 54.9814L145.013 64.3936Z" fill="white"/>
<path d="M222.356 91.1409C222.356 91.1409 192.511 94.3741 183.712 92.2162C174.914 90.0607 152.567 87.4395 136.093 86.5154C119.619 85.5913 94.6409 86.6715 83.331 88.5197C72.0199 90.368 67.1504 91.7554 67.1504 91.7554C67.1504 91.7554 68.0929 109.319 70.607 120.874C73.1202 132.432 73.5918 134.59 73.5918 134.59L98.2545 132.741L86.5379 170.061C86.5379 170.061 101.868 177.421 129.673 184.356C157.479 191.286 173.896 185.751 173.896 185.751L181.356 142.907C181.356 142.907 202.249 142.599 212.775 140.288C223.301 137.979 224.869 137.669 224.869 137.669L222.356 91.1409Z" fill="#9364ED"/>
<path d="M246.409 74.3553C246.409 74.3553 240.038 61.2045 240.417 58.1894C240.799 55.1742 247.47 53.0906 247.47 53.0906C247.47 53.0906 248.834 40.9605 251.411 40.0414C253.987 39.1172 255.351 42.836 255.351 42.836C255.351 42.836 256.867 35.2548 260.05 36.1467C263.232 37.0386 263.839 41.5873 263.839 41.5873C263.839 41.5873 264.445 35.6016 268.234 37.0634C272.023 38.5251 275.33 53.1525 273.511 65.6889C271.692 78.2252 260.353 83.2026 260.353 83.2026L246.409 74.3553Z" fill="#FD8753"/>
<path d="M246.56 62.1587C246.146 62.1215 245.894 61.8168 245.931 61.4749L246.841 53.0265C246.879 52.6871 247.184 52.4343 247.536 52.474C247.884 52.5112 248.134 52.8159 248.099 53.1553L247.187 61.6062C247.154 61.9233 246.879 62.1587 246.56 62.1587Z" fill="black"/>
<path d="M44.1265 139.099C44.1265 139.099 43.2699 150.505 41.483 154.529C39.6951 158.555 36.4476 163.297 33.9551 162.603C31.4627 161.915 35.4205 151.207 35.4205 151.207C35.4205 151.207 28.1965 155.686 22.8059 160.269C17.4163 164.85 15.6028 168.579 12.8585 168.507C10.1145 168.433 10.5932 163.322 10.5932 163.322C10.5932 163.322 8.40258 166.186 6.18723 165.173C3.97213 164.162 5.63377 158.654 5.63377 158.654C5.63377 158.654 1.78356 159.883 1.45593 156.02C1.12729 152.16 10.7697 140.333 19.4028 134.555C28.0386 128.777 36.3321 129.724 36.3321 129.724L44.1265 139.099Z" fill="#FD8753"/>
<path d="M30.2294 151.595L29.9374 151.526L15.1471 143.932C14.8371 143.774 14.7179 143.4 14.8786 143.095C15.0435 142.795 15.4282 142.676 15.7311 142.835L30.5214 150.426C30.8313 150.587 30.9506 150.958 30.7889 151.263L30.2294 151.595Z" fill="black"/>
<path d="M5.63389 159.273L5.29843 159.179C5.00238 158.998 4.91245 158.616 5.09812 158.327C5.15419 158.237 10.8222 149.41 16.2413 143.612C16.48 143.362 16.8769 143.345 17.1322 143.575C17.3889 143.806 17.4076 144.2 17.1709 144.45C11.8316 150.166 6.22398 158.896 6.16866 158.983L5.63389 159.273Z" fill="black"/>
<path d="M10.5933 163.938L10.2045 163.81C9.92919 163.599 9.87968 163.208 10.0949 162.94L22.3927 147.465C22.6067 147.193 23.0015 147.146 23.2796 147.356C23.555 147.567 23.6042 147.956 23.3903 148.226L11.0914 163.701L10.5933 163.938Z" fill="black"/>
<path d="M30.5556 146.494C30.2548 146.494 29.9883 146.281 29.935 145.981C28.7103 139.068 35.9965 133.623 36.3072 133.392C36.5896 133.189 36.9842 133.246 37.1906 133.516C37.3997 133.789 37.3434 134.18 37.0643 134.386C36.995 134.435 30.0878 139.609 31.1783 145.768C31.2394 146.105 31.0085 146.427 30.6652 146.484L30.5556 146.494Z" fill="black"/>
<path d="M107.106 398.948C107.106 398.948 117.414 390.62 121.961 393.296C126.508 395.975 138.938 420.654 138.938 420.654C138.938 420.654 156.004 424.974 161.16 430.031C166.313 435.085 162.372 443.705 161.16 444.299C159.945 444.896 119.838 443.546 118.02 442.655C116.201 441.762 68.9108 412.029 67.9999 410.842C67.0913 409.651 80.126 380.215 82.5515 381.11C84.9767 381.999 107.106 398.948 107.106 398.948Z" fill="#E2209E"/>
<path d="M52.5406 376.009C52.5406 376.009 41.6272 406.928 43.4468 408.712C45.2643 410.496 50.1143 423.875 50.1143 430.121C50.1143 436.364 42.233 442.015 40.7184 442.015C39.2017 442.015 11.5475 410.793 10.5204 409.01C9.49408 407.228 -1.11635 348.059 0.0964087 347.762C1.30917 347.462 30.935 340.736 32.4051 342.264C33.8756 343.793 36.7765 374.222 36.7765 374.222C36.7765 374.222 46.7799 367.981 52.5406 376.009Z" fill="#E2209E"/>
<path d="M43.4471 409.331L43.0002 409.15L36.6338 402.904C36.387 402.664 36.387 402.273 36.6338 402.03C36.8804 401.787 37.28 401.787 37.5268 402.03L43.8932 408.273C44.1398 408.516 44.1398 408.908 43.8932 409.15L43.4471 409.331Z" fill="#FFB700"/>
<path d="M138.937 421.273L138.783 421.253L131.508 419.466C131.169 419.385 130.963 419.048 131.047 418.716C131.133 418.384 131.475 418.168 131.814 418.267L139.089 420.052C139.429 420.136 139.634 420.47 139.55 420.802C139.477 421.082 139.22 421.273 138.937 421.273Z" fill="#FFB700"/>
<path d="M83.0694 346.258C82.649 346.217 82.4002 345.909 82.4396 345.567C87.5342 302.768 97.1233 221.207 96.9644 218.838C96.7495 217.404 89.5027 207.08 84.9856 200.916C84.7823 200.641 84.8475 200.254 85.1306 200.051C85.4108 199.855 85.8074 199.915 86.0117 200.195C87.9932 202.898 97.8902 216.495 98.2166 218.677C98.5404 220.838 85.2155 332.937 83.6958 345.711C83.6574 346.025 83.3851 346.258 83.0694 346.258Z" fill="white"/>
<path d="M150.832 219.998C150.548 219.998 150.288 219.809 150.219 219.527C150.137 219.192 150.344 218.858 150.683 218.776C161.574 216.177 161.127 204.892 161.104 204.411C161.086 204.072 161.354 203.78 161.703 203.762C162.077 203.757 162.347 204.007 162.365 204.349C162.372 204.478 162.898 217.136 150.982 219.98L150.832 219.998Z" fill="white"/>
<path d="M293.302 33.9684L299.653 34.3723L294.714 38.104C294.714 38.104 291.009 37.2417 293.302 33.9684Z" fill="#5E1DBB"/>
<path d="M73.0115 362.243L72.5517 362.05L31.9474 319.791C31.7077 319.541 31.7203 319.15 31.9739 318.913C32.2276 318.676 32.6282 318.691 32.8669 318.938L73.4715 361.198C73.7112 361.448 73.6993 361.84 73.4447 362.075L73.0115 362.243Z" fill="white"/>
<path d="M139.038 377.951L138.896 377.936L81.862 365.095C81.5227 365.016 81.3115 364.686 81.3883 364.352C81.4654 364.017 81.791 363.812 82.1461 363.883L139.18 376.727C139.518 376.803 139.73 377.135 139.654 377.47C139.586 377.757 139.327 377.951 139.038 377.951Z" fill="white"/>
<path d="M175.95 56.2345C176.321 61.4497 172.441 61.3184 172.441 61.3184C172.441 61.3184 167.737 60.6148 162.314 61.5786C157.901 62.3615 153.036 65.5674 149.555 66.9226L149.395 66.9771C148.65 67.262 147.959 67.4454 147.348 67.4974C143.946 67.7575 139.852 56.782 142.749 52.4538C143.069 51.9583 143.52 51.4652 144.052 50.9945C144.318 50.7344 144.637 50.4717 144.957 50.2388C149.635 46.5374 159.098 43.0193 165.795 43.5916C173.901 44.2705 175.578 50.9945 175.95 56.2345Z" fill="#5E1DBB"/>
<path d="M172.512 59.1531C172.512 59.1531 174.889 59.2201 174.679 55.3625C174.469 51.5025 173.231 46.5103 166.851 45.881C160.47 45.2492 152.745 47.9472 150.391 51.0962C148.038 54.2476 151.12 62.421 153.795 62.2699C156.47 62.1188 160.187 59.832 164.494 59.2052C168.801 58.5759 172.512 59.1531 172.512 59.1531Z" fill="white"/>
<path d="M143.106 56.1478C143.106 56.1478 138.012 56.5913 135.907 59.0812C133.804 61.5712 133.865 64.9282 133.865 64.9282C133.865 64.9282 134.923 61.6975 137.901 60.7288C140.466 59.8938 143.493 61.8164 143.493 61.8164L143.106 56.1478Z" fill="#5E1DBB"/>
<path d="M149.555 66.9226L149.395 66.9771C148.65 67.262 147.959 67.4454 147.348 67.4974C143.946 67.7575 139.852 56.782 142.749 52.4538C143.069 51.9583 143.52 51.4652 144.052 50.9945C144.318 50.7344 144.637 50.4717 144.957 50.2388C144.876 53.6802 145.275 58.0604 146.949 62.1286C147.72 64.0041 148.624 65.5946 149.555 66.9226Z" fill="#4A1799"/>
<path d="M98.2554 133.36L98.0314 133.321C97.7068 133.199 97.5411 132.843 97.6643 132.523C97.7669 132.253 108.005 105.718 115.393 93.4075C115.572 93.1102 115.959 93.0136 116.258 93.187C116.558 93.3604 116.659 93.7395 116.481 94.0343C109.149 106.256 98.9481 132.694 98.8465 132.957C98.7508 133.207 98.5111 133.36 98.2554 133.36Z" fill="#5E1DBB"/>
<path d="M181.355 143.528L181.161 143.496C180.827 143.39 180.645 143.043 180.754 142.716L183.54 134.356C183.649 134.034 184.005 133.851 184.336 133.963C184.669 134.069 184.849 134.416 184.74 134.743L181.956 143.102C181.868 143.362 181.623 143.528 181.355 143.528Z" fill="#5E1DBB"/>
<path d="M224.872 138.288C224.53 138.261 217.889 137.632 216.793 134.069C215.995 131.457 219.302 128.854 221.464 127.476C219.345 127.174 216.035 126.431 214.348 124.605C213.565 123.757 213.199 122.764 213.262 121.656C213.484 117.734 218.668 115.391 221.56 114.382C219.049 113.461 214.947 111.563 214.396 108.862C213.916 106.504 217.738 103.513 219.966 101.992C217.319 101.568 212.549 100.352 211.87 97.0246C211.703 96.212 211.883 95.4316 212.4 94.7032C214.51 91.7425 221.944 90.5756 222.26 90.526C222.603 90.479 222.926 90.7044 222.982 91.0438C223.035 91.3808 222.798 91.6979 222.454 91.7524C220.453 92.0597 214.929 93.3108 213.436 95.4117C213.118 95.8577 213.012 96.3061 213.108 96.7843C213.722 99.7846 219.584 100.82 221.792 100.966C222.068 100.984 222.3 101.175 222.366 101.437C222.429 101.697 222.315 101.972 222.08 102.111C219.403 103.719 215.285 106.905 215.634 108.62C216.149 111.139 221.694 113.22 223.788 113.81C224.061 113.887 224.248 114.135 224.245 114.415C224.24 114.694 224.045 114.937 223.768 115.004C223.679 115.026 214.775 117.293 214.522 121.723C214.479 122.501 214.727 123.17 215.283 123.77C217.475 126.146 223.404 126.426 223.462 126.428C223.747 126.44 223.99 126.639 224.051 126.911C224.114 127.184 223.982 127.464 223.73 127.593C222.03 128.477 217.324 131.495 218.003 133.71C218.708 136.006 223.24 136.901 224.927 137.052C225.273 137.082 225.528 137.384 225.498 137.723C225.47 138.045 225.192 138.288 224.872 138.288Z" fill="#5E1DBB"/>
<path d="M73.5931 135.208L73.0957 134.971C72.8807 134.703 72.9269 134.312 73.2003 134.101C74.0331 133.459 76.1636 131.413 76.0155 129.721C75.8733 128.11 72.6617 126.879 71.5475 126.574C71.3186 126.512 71.145 126.329 71.0976 126.101C71.0513 125.871 71.138 125.635 71.3254 125.492C71.3719 125.454 75.9276 121.877 75.1877 118.795C74.4605 115.76 69.4597 115.257 69.4094 115.252C69.1517 115.227 68.9348 115.051 68.8625 114.806C68.7895 114.566 68.8764 114.301 69.0818 114.147C69.1389 114.102 74.8412 109.71 73.7262 106.244C72.6162 102.797 69.5582 102.555 69.4291 102.545C69.1596 102.527 68.9317 102.344 68.8607 102.089C68.7895 101.836 68.8913 101.566 69.1133 101.415C69.1568 101.388 73.368 98.5285 72.4594 95.4935C71.5535 92.4734 67.1872 92.3743 67.1428 92.3743C66.7944 92.3693 66.515 92.0869 66.5191 91.745C66.5241 91.4031 66.8101 91.0637 67.1584 91.1355C67.3767 91.138 72.5008 91.2445 73.6711 95.1467C74.5057 97.9289 72.2954 100.384 70.8854 101.613C72.186 102.061 74.0599 103.164 74.9301 105.872C75.9761 109.12 72.6705 112.646 70.8952 114.251C72.711 114.662 75.7551 115.755 76.4162 118.507C77.1167 121.423 74.4082 124.389 72.9585 125.729C74.4989 126.304 77.0949 127.568 77.2735 129.614C77.5094 132.322 74.1258 134.963 73.9818 135.075L73.5931 135.208Z" fill="#5E1DBB"/>
</svg>
