<svg width="282" height="533" viewBox="0 0 282 533" fill="none" xmlns="http://www.w3.org/2000/svg">
<path d="M216.081 272.673C212.028 273.098 208.4 270.156 207.978 266.101L207.544 261.975L206.138 248.531L220.813 246.997L280.593 241.194L282 254.638L222.217 260.438L222.651 264.564C223.075 268.618 220.131 272.248 216.081 272.673Z" fill="#9364ED"/>
<path d="M71.2267 521.258L71.583 530.939C71.6233 531.867 72.3918 532.598 73.3183 532.558L178.34 529.061C179.229 529.024 179.96 528.289 179.96 527.38L179.997 513.924L177.252 514.299C177.252 514.299 179.409 504.777 180.592 496.599C181.795 488.419 180.217 467.374 177.965 466.841C176.167 466.404 148.118 466.229 136.228 466.167C133.226 466.167 130.579 468.083 129.572 470.929C127.756 476.087 123.963 483.948 117.032 486.676C106.381 490.867 82.4471 497.369 77.6255 504.048C74.0899 509.005 74.0093 515.09 74.2107 517.88C74.2262 518.214 74.1704 518.531 74.0309 518.766C73.7954 519.241 73.2997 519.579 72.7264 519.634L72.4103 519.696C71.741 519.913 71.2639 520.524 71.2267 521.258Z" fill="white"/>
<path d="M71.2267 521.258L71.583 530.939C71.6233 531.867 72.3918 532.598 73.3183 532.558L178.339 529.061C179.229 529.024 179.96 528.289 179.96 527.38L179.997 513.924L177.252 514.299L72.7264 519.634L72.4103 519.696C71.741 519.913 71.2639 520.524 71.2267 521.258Z" fill="white"/>
<path d="M16.9127 454.416L21.381 463.012C21.8118 463.833 22.8251 464.164 23.6432 463.731L117.044 415.565C117.831 415.15 118.175 414.177 117.788 413.354L112.062 401.175L109.741 402.695C109.741 402.695 107.609 393.165 105.176 385.267C102.759 377.359 92.3228 359.021 90.0607 359.504C88.2511 359.879 62.8293 371.738 52.0582 376.78C49.3468 378.065 47.7758 380.933 48.0857 383.937C48.6528 389.374 48.5908 398.107 43.4935 403.54C35.6693 411.886 16.8199 428.021 15.3263 436.12C14.2542 442.116 16.7889 447.652 18.1616 450.085C18.3227 450.376 18.4064 450.69 18.3816 450.962C18.3692 451.493 18.0655 452.011 17.5759 452.305L17.3157 452.498C16.8013 452.981 16.6338 453.738 16.9127 454.416Z" fill="white"/>
<path d="M16.9127 454.416L21.381 463.012C21.8117 463.833 22.8251 464.164 23.6432 463.731L117.044 415.565C117.831 415.15 118.175 414.177 117.788 413.354L112.061 401.175L109.741 402.695L17.5759 452.305L17.3156 452.498C16.8012 452.981 16.6338 453.738 16.9127 454.416Z" fill="white"/>
<path d="M195.277 229.814C195.277 229.814 193.799 282.565 186.421 319.264C179.046 355.957 190.849 467.538 190.849 467.538L106.741 471.025C106.741 471.025 99.3629 388.729 100.838 339.571C102.313 290.42 114.116 248.187 114.116 248.187L108.216 201.776L195.277 229.814Z" fill="#5E1DBB"/>
<path d="M110.664 201.243C110.664 201.243 18.1461 239.836 6.39582 278.07C-5.35446 316.307 31.7555 394.852 31.7555 394.852L99.2888 363.394C99.2888 363.394 82.909 313.741 85.6389 310.011C88.3689 306.279 110.664 298.412 110.664 298.412L132.959 238.169L110.664 201.243Z" fill="#5E1DBB"/>
<path d="M104.036 300.972C103.527 300.922 103.221 300.541 103.264 300.117C103.286 299.884 105.758 276.48 109.551 262.286L113.264 248.376L92.1521 223.491C91.8732 223.165 91.9136 222.672 92.239 222.396C92.5612 222.127 93.0601 222.161 93.3297 222.486L114.708 247.685L114.866 248.386L111.045 262.685C107.286 276.763 104.829 300.042 104.807 300.278C104.764 300.674 104.429 300.972 104.036 300.972Z" fill="#FFB700"/>
<path d="M69.2376 298.003C69.25 298.015 69.1756 298.222 69.2903 298.836C70.2168 303.799 78.4438 307.033 82.9276 308.443C76.411 302.202 70.3593 297.566 69.2376 298.003ZM85.6389 310.786L85.4654 310.764C84.8054 310.613 69.2313 306.945 67.7626 299.118C67.527 297.856 67.778 297.02 68.5124 296.632C71.3105 295.13 81.8183 305.105 86.1874 309.463C86.4322 309.707 86.4849 310.086 86.3175 310.387L85.6389 310.786Z" fill="#FFB700"/>
<path d="M185.603 256.343C170.574 254.204 167.51 241.495 167.479 241.368C167.386 240.949 167.646 240.534 168.064 240.441C168.48 240.342 168.895 240.605 168.991 241.021C169.102 241.504 171.873 252.825 185.712 254.803C186.136 254.862 186.427 255.252 186.368 255.677C186.313 256.064 185.984 256.343 185.603 256.343Z" fill="#FFB700"/>
<path d="M40.8158 412.483C40.4719 412.483 40.1558 412.254 40.066 411.901C39.9606 411.488 40.2085 411.066 40.6237 410.959L53.818 407.527L43.267 404.281C42.9509 404.181 42.7278 403.891 42.7185 403.559C42.7123 403.224 42.9168 402.927 43.2297 402.812L60.316 396.594L48.3828 393.363C47.9707 393.252 47.726 392.827 47.8375 392.412C47.9491 392 48.3674 391.754 48.7858 391.866L63.0831 395.734C63.4084 395.825 63.6378 396.116 63.6533 396.451C63.6657 396.789 63.4612 397.095 63.1451 397.213L45.9317 403.478L56.8826 406.848C57.2142 406.953 57.4342 407.259 57.4311 407.611C57.4218 407.954 57.1833 408.255 56.8486 408.342L41.011 412.459L40.8158 412.483Z" fill="#FFB700"/>
<path d="M128.367 492.792H110.189C109.762 492.792 109.415 492.444 109.415 492.017C109.415 491.59 109.762 491.242 110.189 491.242H124.902L116.697 487.379C116.368 487.222 116.189 486.859 116.275 486.503C116.356 486.146 116.585 485.857 117.041 485.901L136.662 486.236L125.228 479.794C124.856 479.584 124.726 479.113 124.936 478.737C125.144 478.365 125.618 478.238 125.993 478.443L140.086 486.388C140.396 486.558 140.548 486.921 140.451 487.266C140.362 487.602 140.055 487.836 139.705 487.836L120.623 487.513L128.698 491.313C129.023 491.468 129.203 491.83 129.123 492.188C129.045 492.541 128.729 492.792 128.367 492.792Z" fill="#FFB700"/>
<path d="M152.834 469.146C152.431 469.146 152.087 468.834 152.062 468.427C151.753 464.123 144.567 362.771 147.188 342.262C149.81 321.823 165.663 224.204 165.824 223.221C165.892 222.8 166.276 222.524 166.713 222.58C167.138 222.651 167.423 223.048 167.355 223.469C167.193 224.455 151.341 322.045 148.725 342.465C146.122 362.812 153.531 467.265 153.606 468.316C153.634 468.743 153.314 469.112 152.887 469.144L152.834 469.146Z" fill="#FFB700"/>
<path d="M132.959 470.712C132.549 470.712 132.209 470.392 132.184 469.983C132.122 468.942 125.971 365.487 128.357 341.252C130.746 317.042 150.928 216.702 151.132 215.688C151.216 215.276 151.6 215.01 152.047 215.084C152.462 215.168 152.735 215.577 152.651 215.998C152.449 217.006 132.28 317.268 129.9 341.403C127.527 365.517 133.668 468.85 133.73 469.891C133.755 470.318 133.43 470.684 133.002 470.712H132.959Z" fill="#FFB700"/>
<path d="M116.052 471.415C115.65 471.415 115.309 471.103 115.281 470.693C115.219 469.816 109.186 382.56 109.415 347.867C109.644 313.117 133.985 210.267 134.229 209.231C134.329 208.819 134.738 208.559 135.159 208.658C135.577 208.757 135.834 209.175 135.735 209.591C135.491 210.623 111.194 313.303 110.964 347.879C110.735 382.514 116.765 469.71 116.824 470.584C116.855 471.012 116.536 471.385 116.108 471.413L116.052 471.415Z" fill="#FFB700"/>
<path d="M110.946 245.224C110.382 245.131 110.109 244.728 110.184 244.306L117.184 206.512C117.261 206.097 117.642 205.815 118.089 205.892C118.507 205.973 118.783 206.376 118.708 206.798L111.708 244.591C111.64 244.963 111.312 245.224 110.946 245.224Z" fill="#FFB700"/>
<path d="M99.1336 231.296L98.9476 231.275C98.5293 231.172 98.2782 230.751 98.3774 230.335L105.616 201.06C105.721 200.645 106.143 200.391 106.555 200.49C106.973 200.592 107.224 201.014 107.125 201.429L99.8865 230.704C99.7966 231.058 99.4806 231.296 99.1336 231.296Z" fill="#FFB700"/>
<path d="M190.031 96.3987L183.198 88.37L151.895 91.5009L124.676 158.322L122.807 213.066L158.291 223.345L188.865 159.537L190.031 96.3987Z" fill="#FFB700"/>
<path d="M219.239 247.161L225.604 247.109C225.604 247.109 227.284 269.552 230.735 270.64C234.187 271.731 238.38 266.576 238.38 266.576C238.38 266.576 245.343 270.336 248.132 269.986C250.92 269.639 264.09 269.48 267.734 262.958C271.378 256.439 261.967 226.448 261.967 226.448L233.335 221.749C233.335 221.749 219.239 235.54 219.239 247.161Z" fill="#FD8753"/>
<path d="M238.38 267.351C237.903 267.323 237.577 266.954 237.608 266.526L238.178 258.045C238.206 257.62 238.594 257.273 238.999 257.326C239.427 257.354 239.749 257.722 239.721 258.15L239.151 266.628C239.123 267.037 238.786 267.351 238.38 267.351Z" fill="black"/>
<path d="M225.604 247.887L225.446 247.871C225.028 247.784 224.761 247.375 224.845 246.954L226.332 239.737C226.422 239.319 226.819 239.061 227.25 239.136C227.668 239.223 227.938 239.632 227.854 240.053L226.363 247.27C226.289 247.636 225.964 247.887 225.604 247.887Z" fill="black"/>
<path d="M72.4379 30.0119C71.1519 26.9709 64.3442 22.3149 64.3442 22.3149C64.3442 22.3149 58.9492 11.6576 55.3424 11.9645C51.7386 12.2714 49.8173 18.6323 49.8173 18.6323C49.8173 18.6323 41.9498 17.8077 39.5049 19.1934C37.057 20.5759 24.0672 25.6814 24.0517 33.1552C24.0238 46.838 43.276 64.7212 43.276 64.7212L71.5393 58.165C71.5393 58.165 73.7238 33.056 72.4379 30.0119Z" fill="#FD8753"/>
<path d="M183.437 91.5356L158.291 223.345L198.744 237.298L207.57 179.482C207.57 179.482 215.199 197.223 217.842 210.977C220.469 224.728 220.469 231.923 220.469 231.923L272.692 226.033C272.692 226.033 273.581 173.93 247.252 138.285C223.432 106.077 189.501 90.9807 183.198 88.3706C183.415 90.2305 183.437 91.5356 183.437 91.5356Z" fill="#FFB700"/>
<path d="M54.5618 135.331C74.7437 155.195 108.101 152.653 108.101 152.653L100.643 205.707L124.199 213.525C127.301 188.72 136.922 125.206 157.265 94C158.746 91.7402 160.128 89.7222 161.452 87.9583C154.123 88.1598 145.571 88.7581 137.08 90.1778C114.68 93.8791 100.636 92.4221 90.9778 82.2577C81.3377 72.0963 76.321 57.1332 76.321 57.1332L36.9148 59.1729C36.9148 59.1729 34.3521 115.464 54.5618 135.331Z" fill="#FFB700"/>
<path d="M185.606 73.8689L183.443 91.535C183.443 91.535 179.415 96.2376 168.253 95.8718C159.939 95.599 157.256 93.5438 157.256 93.5438L159.502 84.7215L161.703 76.1225L182.169 74.1975L185.606 73.8689Z" fill="#FD8753"/>
<path d="M182.169 74.2252C182.061 74.7336 181.794 75.3194 181.407 75.9828C176.09 84.9415 164.051 85.8528 159.245 85.7288L161.699 76.3114L182.169 74.2252Z" fill="black"/>
<path d="M162.461 32.728C162.461 32.728 149.803 55.2857 152.196 68.9097C154.582 82.5305 166.859 81.6502 174.336 79.8088C181.813 77.9706 185.606 73.8726 185.606 73.8726C185.606 73.8726 192.122 76.8361 197.263 71.0145C202.398 65.1898 200.34 57.7068 196.653 55.667C192.968 53.6335 188.109 55.9584 188.109 55.9584L192.383 49.4611C192.383 49.4611 180.756 13.1182 162.461 32.728Z" fill="#FD8753"/>
<path d="M186.7 57.8431C186.7 57.8431 182.86 56.352 180.131 50.2856C177.177 43.7169 177.834 39.4453 177.834 39.4453C177.834 39.4453 170.608 43.3853 165.028 41.4168C156.351 38.3511 163.385 32.8767 163.385 32.8767L156.487 45.3568C156.487 45.3568 154.191 42.7312 154.52 39.4453C154.848 36.1595 158.133 34.191 158.133 34.191C158.133 34.191 157.144 24.9937 164.699 22.3619C172.251 19.7363 178.491 27.6193 178.491 27.6193C178.491 27.6193 177.178 18.7505 187.028 22.0364C196.879 25.3192 196.879 40.1025 196.879 40.1025C196.879 40.1025 203.448 42.4026 205.744 47.3314C208.044 52.2571 199.507 59.1543 199.507 59.1543C199.507 59.1543 198.193 51.5999 186.7 57.8431Z" fill="white"/>
<path d="M169.068 54.4268L168.895 54.4082C168.464 54.3121 168.194 53.8874 168.287 53.4534L169.183 49.3988C169.276 48.9679 169.703 48.692 170.137 48.7912C170.565 48.8873 170.837 49.312 170.741 49.7429L169.846 53.8006C169.762 54.1726 169.434 54.4268 169.068 54.4268Z" fill="black"/>
<path d="M157.625 53.2085L157.429 53.1868C157.002 53.0783 156.741 52.6443 156.85 52.2165L157.863 48.1836C157.972 47.7589 158.399 47.4954 158.83 47.607C159.261 47.7124 159.521 48.1495 159.412 48.5742L158.399 52.604C158.306 52.9667 157.984 53.2085 157.625 53.2085Z" fill="black"/>
<path d="M173.893 46.8384C173.558 46.8384 173.248 46.6276 173.133 46.2959C172.492 44.3864 169.7 44.9288 169.675 44.9319C169.242 45.028 168.823 44.7429 168.73 44.312C168.643 43.8811 168.922 43.4564 169.356 43.3696C170.806 43.072 173.778 43.196 174.652 45.7844C174.791 46.2029 174.565 46.6555 174.15 46.7981L173.893 46.8384Z" fill="black"/>
<path d="M157.625 44.8608L157.219 44.7492C156.841 44.523 156.714 44.0301 156.94 43.6519C158.446 41.1224 161.148 41.3084 162.372 41.7641C162.784 41.916 162.995 42.3747 162.84 42.7901C162.688 43.2024 162.229 43.4163 161.817 43.2613C161.582 43.1745 159.487 42.4956 158.313 44.4703L157.625 44.8608Z" fill="black"/>
<path d="M163.323 68.8102C163.707 69.1295 164.389 69.517 165.579 69.796C166.035 69.8983 166.397 69.8425 166.704 69.61C167.274 69.1822 167.603 68.2646 167.779 67.4742L163.323 68.8102ZM165.985 71.3955L165.229 71.3025C161.774 70.4997 161.365 68.7048 161.328 68.5064C161.256 68.119 161.492 67.7407 161.87 67.6292L168.495 65.6422L169.195 65.7754L169.493 66.4264C169.474 66.7488 169.273 69.6162 167.637 70.8499C167.156 71.2095 166.592 71.3955 165.985 71.3955Z" fill="black"/>
<path d="M187.549 66.5039L186.926 66.1909C186.672 65.8468 186.743 65.3601 187.087 65.1059L194.815 59.4114C195.162 59.1603 195.649 59.2316 195.9 59.5757C196.154 59.9198 196.083 60.4065 195.736 60.6607L188.007 66.3551L187.549 66.5039Z" fill="black"/>
<path d="M195.277 67.1577L194.945 67.0833L189.699 64.6003C189.312 64.4205 189.144 63.9555 189.33 63.5711C189.513 63.1806 189.981 63.0163 190.359 63.2023L195.605 65.6853C195.993 65.8651 196.16 66.33 195.974 66.7144C195.844 66.9965 195.568 67.1577 195.277 67.1577Z" fill="black"/>
<path d="M159.856 63.6582C159.549 63.6582 159.254 63.4722 159.137 63.1684C156.345 56.0573 163.329 51.0138 163.401 50.9673C163.748 50.7193 164.231 50.803 164.479 51.1502C164.727 51.5005 164.643 51.9841 164.296 52.2321C164.048 52.4088 158.235 56.6308 160.578 62.6011C160.733 63.001 160.537 63.4505 160.141 63.6055L159.856 63.6582Z" fill="black"/>
<path d="M157.445 94.4491C155.676 96.2377 153.318 99.3314 153.634 101.058C153.699 101.399 153.885 101.892 154.783 102.27C157.913 103.569 162.834 99.2198 165.403 96.433C162.933 96.1447 160.271 95.5278 157.445 94.4491ZM168.198 96.6252C169.202 98.9284 171.718 104.056 174.711 105.234C175.56 105.562 176.36 105.528 177.159 105.131C181.181 103.119 182.278 96.1385 182.566 93.0293C180.342 94.3375 175.489 96.6345 168.83 96.6345L168.198 96.6252ZM175.845 107.01C175.284 107.01 174.714 106.898 174.144 106.672C170.59 105.274 167.838 99.7065 166.769 97.2328C164.579 99.6476 158.616 105.547 154.185 103.696C152.72 103.082 152.249 102.078 152.112 101.343C151.508 98.0759 156.187 93.4943 156.72 92.9828L157.541 92.8247C172.396 98.73 182.87 90.9958 182.972 90.9152L183.794 90.8439C184.06 90.9803 184.221 91.2562 184.218 91.5538C184.206 92.0374 183.88 103.501 177.853 106.52C177.196 106.845 176.524 107.01 175.845 107.01Z" fill="white"/>
<path d="M226.091 185.468C223.296 185.468 218.409 187.749 214.994 189.591C220.578 189.259 226.983 188.314 227.909 186.767C227.981 186.652 228.04 186.503 227.891 186.215C227.733 185.902 227.463 185.703 227.048 185.583C226.766 185.505 226.444 185.468 226.091 185.468ZM211.861 191.265C211.517 191.265 211.214 191.038 211.118 190.71C211.022 190.372 211.161 190.012 211.458 189.833C212.63 189.113 223.029 182.848 227.466 184.092C228.303 184.327 228.91 184.808 229.273 185.508C229.632 186.218 229.62 186.928 229.239 187.566C227.287 190.821 214.433 191.221 211.877 191.265H211.861Z" fill="white"/>
<path d="M207.566 180.257L207.412 180.241C206.993 180.158 206.721 179.748 206.807 179.327L209.175 167.597C209.265 167.178 209.683 166.921 210.089 166.989C210.507 167.076 210.78 167.485 210.693 167.904L208.326 179.637C208.248 180.003 207.929 180.257 207.566 180.257Z" fill="white"/>
<path d="M107.884 151.732C107.329 151.645 107.047 151.245 107.122 150.827L111.73 124.09C111.798 123.669 112.197 123.365 112.622 123.458C113.047 123.529 113.328 123.929 113.254 124.351L108.646 151.087C108.581 151.465 108.256 151.732 107.884 151.732Z" fill="white"/>
<path d="M95.6504 88.8261C89.8093 91.024 85.0466 93.5876 85.0497 94.6167C85.0497 94.6508 85.1953 94.8678 85.8895 95.1034C90.0324 96.52 93.8655 91.6129 95.6504 88.8261ZM87.4078 96.9106C86.7509 96.9106 86.0784 96.8053 85.3874 96.5697C84.1387 96.1419 83.5035 95.4847 83.5004 94.6198C83.4942 91.6812 93.0444 88.0605 97.1471 86.6377C97.4507 86.5323 97.7731 86.6222 97.9838 86.8608C98.1914 87.0964 98.2347 87.4343 98.0953 87.7164C97.8846 88.1318 93.3821 96.9106 87.4078 96.9106Z" fill="white"/>
<path d="M74.031 519.541C73.6158 519.541 73.2749 519.215 73.2564 518.8C73.2378 518.373 73.5725 518.011 73.997 517.991L174.587 513.657C175.018 513.661 175.374 513.971 175.396 514.402C175.414 514.826 175.08 515.193 174.655 515.207L74.0651 519.541H74.031Z" fill="#FFB700"/>
<path d="M18.3784 451.737L17.6936 451.322C17.4953 450.944 17.641 450.475 18.0191 450.278L100.283 406.908C100.661 406.7 101.132 406.852 101.328 407.23C101.526 407.611 101.38 408.079 101.002 408.275L18.7379 451.648L18.3784 451.737Z" fill="#FFB700"/>
<path d="M184.094 63.8969C183.319 63.8349 182.451 63.6179 181.491 63.2738C177.06 61.7239 170.797 57.7901 165.161 56.8602C158.312 55.7132 152.363 56.5502 152.363 56.5502C152.363 56.5502 147.467 56.7052 147.932 50.5054C148.397 44.2747 150.532 36.277 160.761 35.4711C169.809 34.7271 182.885 39.5629 188.243 44.2747C188.928 44.8327 189.486 45.4216 189.888 46.0106C193.545 51.1564 188.367 64.2069 184.094 63.8969Z" fill="#5E1DBB"/>
<path d="M153.531 54.0148C153.531 54.0148 149.677 54.2132 149.949 49.6223C150.222 45.0345 151.796 39.0951 159.856 38.3356C167.922 37.5699 180.062 41.9191 183.028 45.6606C185.996 49.3991 182.086 59.1265 178.705 58.9498C175.328 58.7731 169.102 54.796 163.661 54.0582C158.223 53.3204 153.531 54.0148 153.531 54.0148Z" fill="white"/>
<path d="M189.579 50.3935C189.579 50.3935 195.516 50.9205 197.97 53.8808C200.424 56.8412 200.105 60.9517 200.105 60.9517C200.105 60.9517 199.116 56.99 195.646 55.84C192.652 54.848 189.126 57.1326 189.126 57.1326L189.579 50.3935Z" fill="#5E1DBB"/>
<path d="M184.094 63.8969C183.319 63.8349 182.451 63.6179 181.491 63.2738C182.854 62.44 185.581 60.332 187.254 56.0542C189.083 51.4044 188.556 46.2245 188.243 44.2747C188.928 44.8327 189.486 45.4216 189.888 46.0106C193.545 51.1564 188.367 64.2069 184.094 63.8969Z" fill="#4A1799"/>
<path d="M67.1861 1.44965C70.4986 -0.924858 75.1094 -0.159191 77.4799 3.15458L79.897 6.52724L87.7615 17.5163L75.7664 26.1092L29.2238 59.2158L21.3594 48.2267L67.8988 15.1201L65.4849 11.7475C63.1144 8.43369 63.8767 3.82415 67.1861 1.44965Z" fill="#9364ED"/>
<path d="M50.1244 19.4664L59.8419 39.6094L54.4904 49.6498L39.9421 57.9048L35.2258 55.8403L29.8743 48.7726L25.9575 41.4879L50.1244 19.4664Z" fill="#FD8753"/>
<path d="M71.3291 28.313C71.3291 28.313 56.4831 21.6948 51.1471 25.1418C45.8111 28.5858 57.3415 36.1618 57.3415 36.1618C57.3415 36.1618 48.0484 44.361 51.3207 51.5992C54.5929 58.8374 63.5419 55.6725 63.5419 55.6725L71.3291 28.313Z" fill="#FD8753"/>
<path d="M59.1942 57.1177C56.204 57.1177 52.5227 56.1443 50.6108 51.9161C47.6701 45.4094 53.9141 38.4378 56.1141 36.2617C54.0256 34.7769 48.9468 30.8245 48.9623 27.4302C48.9654 26.6056 49.2753 25.4277 50.7255 24.4915C56.3465 20.8492 71.0189 27.331 71.6387 27.6069C72.0291 27.7805 72.2057 28.2392 72.0322 28.6298C71.8556 29.0204 71.3969 29.1971 71.0096 29.0235C66.9874 27.2318 55.6494 23.1461 51.5684 25.7934C50.6233 26.401 50.5117 27.021 50.5117 27.4364C50.4993 30.1426 55.7454 34.1879 57.7688 35.5146L58.1127 36.1098L57.8525 36.7453C57.7657 36.8228 49.0305 44.6531 52.0208 51.2806C54.9583 57.7655 62.9436 55.0594 63.2844 54.9447C63.6842 54.7928 64.1305 55.0098 64.2731 55.4158C64.4125 55.8188 64.2017 56.2621 63.7989 56.4047C63.7586 56.4202 61.7228 57.1146 59.1942 57.1177Z" fill="black"/>
<path d="M51.8351 24.9219C51.519 24.9219 51.2215 24.7297 51.1068 24.4135L49.0927 18.8988C48.9439 18.4958 49.1516 18.0526 49.5545 17.9069C49.9542 17.7519 50.4034 17.9627 50.546 18.3656L52.5601 23.8803C52.7089 24.2833 52.5043 24.7297 52.1015 24.8754L51.8351 24.9219Z" fill="black"/>
<path d="M50.8277 47.1572C41.7732 47.0363 40.1929 23.2448 40.0411 20.5324C40.0194 20.1077 40.3479 19.7388 40.7755 19.7171C41.2 19.7202 41.5656 20.0178 41.5904 20.4487C41.9777 27.4172 44.3916 45.5205 50.8369 45.6073C51.2645 45.6135 51.6085 45.9637 51.6023 46.3915C51.5961 46.8193 51.2491 47.1572 50.8277 47.1572Z" fill="black"/>
<path d="M43.2762 52.8369C42.4551 52.8369 41.5471 52.685 40.5524 52.3285C33.9553 49.9447 29.831 28.5742 29.3817 26.147C29.3042 25.7254 29.58 25.3193 30.0014 25.2418C30.4352 25.1612 30.8288 25.4433 30.9062 25.8618C32.0806 32.2196 36.1988 49.1047 41.0793 50.8685C43.4157 51.7117 45.4391 51.2684 47.1093 49.5448C48.4108 48.1995 49.0026 46.5907 49.0088 46.5752C49.1545 46.1753 49.5976 45.9676 50.0005 46.1071C50.4033 46.2528 50.6109 46.6992 50.4653 47.1021C50.4374 47.1796 49.7525 49.0427 48.2217 50.6205C47.1496 51.7272 45.5166 52.8369 43.2762 52.8369Z" fill="black"/>
<path d="M36.2018 56.6807C35.8578 56.6807 35.4954 56.659 35.1204 56.6094C34.699 56.5536 34.3984 56.1661 34.4511 55.7414C34.5068 55.3167 34.8972 55.0284 35.3186 55.0718C39.7498 55.6391 41.5471 51.8914 41.6215 51.7302C41.8074 51.3458 42.2753 51.1722 42.6534 51.3613C43.0407 51.5411 43.208 52.003 43.0251 52.3873C43.0035 52.4338 40.9614 56.6807 36.2018 56.6807Z" fill="black"/>
<path d="M96.1931 207.793L0 152.237V84.3932L41.3708 108.287C44.0047 119 48.1291 129.007 54.562 135.33C70.6349 151.149 95.0621 152.758 104.346 152.758C106.719 152.758 108.101 152.652 108.101 152.652L100.643 205.707C99.27 206.339 97.7796 207.037 96.1931 207.793Z" fill="#1694BB"/>
<path d="M158.229 243.622L148.31 237.893C149.664 230.983 150.801 225.261 151.57 221.399L158.229 223.327V243.622ZM146.891 237.075L131.481 228.172C132.537 223.451 133.452 219.433 134.161 216.355L150.076 220.965C149.326 224.734 148.217 230.317 146.891 237.075ZM130.074 227.363L124.484 224.133L117.608 212.744L117.853 211.417L122.808 213.063V213.066L122.851 213.079L124.199 213.525C124.202 213.506 124.205 213.488 124.208 213.469L132.671 215.924C131.983 218.912 131.097 222.797 130.074 227.363Z" fill="#619DE9"/>
<path d="M124.484 224.132L116.366 219.442L117.608 212.743L124.484 224.132ZM114.94 218.621L104.38 212.52L105.656 207.368L116.366 210.924L114.94 218.621ZM102.982 211.714L96.1929 207.793C97.7795 207.037 99.2699 206.339 100.643 205.704V205.707L104.178 206.878L102.982 211.714Z" fill="#619DE9"/>
<path d="M148.31 237.893L146.891 237.074C148.217 230.316 149.327 224.734 150.076 220.964L151.57 221.398C150.801 225.261 149.664 230.983 148.31 237.893Z" fill="#FFDFAE"/>
<path d="M131.481 228.172L130.074 227.363C131.097 222.797 131.983 218.913 132.671 215.924L134.161 216.355C133.452 219.433 132.537 223.451 131.481 228.172Z" fill="#FFDFAE"/>
<path d="M116.365 219.442L114.94 218.62L116.365 210.923L117.853 211.416L117.608 212.743L116.365 219.442Z" fill="#FFDFAE"/>
<path d="M104.38 212.52L102.982 211.714L104.178 206.878L105.656 207.368L104.38 212.52Z" fill="#FFDFAE"/>
<path d="M158.229 223.326L151.57 221.398L150.076 220.964L134.161 216.355L132.671 215.924L124.208 213.469C125.643 201.987 128.472 182.253 133.107 161.273L158.229 175.78V223.326ZM122.851 213.078L122.807 213.066V213.062L122.851 213.078Z" fill="#E39EE0"/>
<path d="M124.199 213.525L122.851 213.079L122.808 213.063L117.853 211.417L116.365 210.924L105.656 207.369L104.178 206.879L100.643 205.707L108.101 152.653C108.101 152.653 106.719 152.758 104.346 152.758C95.0618 152.758 70.6347 151.149 54.5617 135.331C48.1288 129.007 44.0045 119 41.3706 108.287L107.835 146.676L107.122 150.827C107.048 151.245 107.33 151.645 107.884 151.732C108.256 151.732 108.581 151.465 108.646 151.087L109.263 147.501L133.108 161.273C128.472 182.253 125.643 201.987 124.208 213.469C124.205 213.488 124.202 213.506 124.199 213.525Z" fill="#E39EE0"/>
<path d="M107.884 151.732C107.329 151.645 107.047 151.245 107.122 150.827L107.834 146.676L109.263 147.501L108.646 151.087C108.581 151.465 108.256 151.732 107.884 151.732Z" fill="white"/>
<path d="M172.787 469.146C172.387 469.146 172.049 468.84 172.015 468.437C171.631 463.805 162.688 354.799 167.478 332.557C172.232 310.467 177.899 254.019 177.955 253.451C177.999 253.027 178.386 252.707 178.801 252.754C179.229 252.797 179.542 253.179 179.498 253.603C179.443 254.171 173.766 310.709 168.991 332.883C164.25 354.904 173.465 467.175 173.558 468.31C173.595 468.735 173.276 469.106 172.852 469.144L172.787 469.146Z" fill="#FFB700"/>
<path d="M74.6603 300.972L73.9816 300.568C73.7771 300.194 73.9135 299.726 74.2884 299.519L105.997 282.09C106.366 281.883 106.847 282.019 107.048 282.398C107.256 282.772 107.119 283.241 106.744 283.449L75.0321 300.876L74.6603 300.972Z" fill="#FFB700"/>
<path d="M84.2755 371.166C83.9036 371.166 83.5752 370.899 83.5132 370.524L72.082 304.763C72.0108 304.342 72.2897 303.939 72.7112 303.867C73.1543 303.768 73.5353 304.078 73.6066 304.497L85.0377 370.258C85.109 370.676 84.8271 371.079 84.4088 371.154L84.2755 371.166Z" fill="#FFB700"/>
<path d="M69.996 377.815C69.652 377.815 69.336 377.586 69.2461 377.235C68.4684 374.234 50.2015 303.629 53.8363 294.543C57.4928 285.417 108.439 260.423 110.608 259.363C110.992 259.173 111.454 259.335 111.643 259.722C111.828 260.107 111.667 260.568 111.283 260.754C93.1155 269.642 58.0257 288.256 55.2772 295.116C52.5193 302.013 64.189 351.593 70.7459 376.847C70.8543 377.257 70.6033 377.682 70.1912 377.791L69.996 377.815Z" fill="#FFB700"/>
<path d="M51.8503 386.268C51.5188 386.268 51.2152 386.054 51.1098 385.723C50.3011 383.128 31.2905 321.906 32.9886 297.169C34.4605 275.628 104.857 241.917 107.853 240.494C108.25 240.317 108.699 240.475 108.885 240.863C109.071 241.25 108.907 241.712 108.519 241.895C107.791 242.239 35.9479 276.632 34.5318 297.278C32.8554 321.723 52.3927 384.629 52.5879 385.264C52.7181 385.67 52.4887 386.103 52.0797 386.231L51.8503 386.268Z" fill="#FFB700"/>
<path d="M38.7738 392.36C38.464 392.36 38.1727 392.17 38.0518 391.864C36.8836 388.863 9.50343 317.966 17.6344 289.795C25.7933 261.539 94.1662 229.145 97.0697 227.781C97.4539 227.611 97.9218 227.763 98.1046 228.153C98.2843 228.541 98.117 229.003 97.7297 229.185C97.0263 229.514 27.0887 262.642 19.1219 290.222C11.1365 317.892 39.2139 390.57 39.4959 391.303C39.6508 391.703 39.4554 392.148 39.0557 392.307L38.7738 392.36Z" fill="#FFB700"/>
</svg>
