<svg width="466" height="403" viewBox="0 0 466 403" fill="none" xmlns="http://www.w3.org/2000/svg">
<path d="M255.751 82.4526C255.751 82.4526 341.987 123.093 319.846 174.811C297.706 226.525 244.915 158.853 244.915 158.853L255.751 82.4526Z" fill="#FFB700"/>
<path d="M466 343.015H0V326.481H466V343.015Z" fill="#2E2865"/>
<path d="M208.552 303.195H256.77L257.418 197.952H202.935L208.552 303.195Z" fill="#9364ED"/>
<path d="M298.238 213.434C298.238 213.434 409.744 242.827 416.259 285.423C422.766 328.022 348.829 338.297 311.39 340.954C273.948 343.616 257.418 327.194 257.418 327.194L236.3 197.952L298.238 213.434Z" fill="#9364ED"/>
<path d="M162.928 213.434C162.928 213.434 51.4184 242.827 44.9073 285.423C38.3963 328.023 120.235 338.297 157.674 340.955C195.116 343.616 199.625 323.676 199.625 323.676L224.866 197.952L162.928 213.434Z" fill="#9364ED"/>
<path d="M163.987 216.301C163.987 216.301 162.345 101.449 188.343 86.5688C215.903 70.7917 255.344 74.04 265.536 91.3873C275.724 108.735 280.982 211.151 280.982 211.151C280.982 211.151 216.508 224.969 163.987 216.301Z" fill="#FFB700"/>
<path d="M220.53 163.794C196.895 163.794 178.046 160.229 176.645 159.955C174.693 159.577 173.419 157.69 173.797 155.738C174.178 153.782 176.069 152.508 178.017 152.886C178.615 153.001 238.587 164.32 278.251 146.306C280.063 145.481 282.198 146.292 283.019 148.096C283.84 149.907 283.041 152.043 281.23 152.868C262.427 161.406 239.873 163.794 220.53 163.794Z" fill="#E2209E"/>
<path d="M214.206 196.879C186.84 196.879 168.02 191.196 166.742 190.8C164.847 190.209 163.785 188.193 164.372 186.295C164.959 184.397 166.969 183.327 168.877 183.922C169.378 184.076 219.147 199.032 274.351 179.582C276.22 178.927 278.284 179.906 278.943 181.782C279.602 183.659 278.619 185.715 276.742 186.378C253.91 194.419 232.206 196.879 214.206 196.879Z" fill="#E2209E"/>
<path d="M303.389 326.24C303.389 326.24 279.664 343.436 279.044 345.65C278.425 347.865 268.993 393.284 262.147 398.744C255.301 404.2 248.963 400.566 248.963 400.566C248.963 400.566 233.6 299.201 234.972 295.521C236.348 291.844 279.48 283.291 279.48 283.291L303.389 326.24Z" fill="white"/>
<path d="M220.07 133.994C200.122 133.994 187.1 130.115 186.193 129.838C184.295 129.254 183.225 127.245 183.805 125.343C184.389 123.449 186.391 122.372 188.299 122.952C188.66 123.06 224.712 133.702 268.82 118.645C270.704 117.997 272.749 119.005 273.394 120.889C274.038 122.772 273.03 124.818 271.15 125.459C251.876 132.038 234.23 133.994 220.07 133.994Z" fill="#E2209E"/>
<path d="M252.589 401.65L241.317 292.442L226.584 294.725L239.289 396.716C239.765 400.526 243.312 403.18 247.104 402.554L252.589 401.65Z" fill="white"/>
<path d="M156.964 325.268C156.964 325.268 180.69 342.46 181.309 344.675C181.925 346.894 191.364 392.309 198.206 397.769C205.052 403.228 211.394 399.594 211.394 399.594C211.394 399.594 226.757 298.226 225.381 294.549C224.009 290.869 180.873 282.316 180.873 282.316L156.964 325.268Z" fill="white"/>
<path d="M207.764 400.674L219.039 291.466L233.772 293.749L221.175 394.847C220.638 399.147 216.634 402.14 212.359 401.434L207.764 400.674Z" fill="white"/>
<path d="M217.693 274.176L181.309 344.675L130.38 324.681L151.653 274.176H217.693Z" fill="#9364ED"/>
<path d="M241.179 277.572L280.984 348.071L327.992 328.077L306.719 277.572H241.179Z" fill="#9364ED"/>
<path d="M118.758 246.688L118.575 246.695C118.081 246.731 117.88 246.922 117.768 247.066C117.015 248.045 116.825 248.921 117.17 249.821C118.694 253.75 129.382 256.894 135.937 258.356C130.978 253.811 122.421 246.688 118.758 246.688ZM138.853 260.765C136.581 260.373 117.977 256.89 115.496 250.469C115.092 249.436 114.92 247.815 116.342 245.968C116.835 245.33 117.563 244.959 118.449 244.898C124.236 244.52 137.932 257.708 139.484 259.217C139.765 259.494 139.833 259.922 139.657 260.275C139.498 260.578 139.188 260.765 138.853 260.765Z" fill="white"/>
<path d="M207.829 273.233L207.584 273.197C207.152 273.078 163.649 261.115 104.444 257.557C103.951 257.528 103.569 257.103 103.598 256.602C103.63 256.109 104.037 255.695 104.552 255.76C163.958 259.332 207.635 271.342 208.07 271.465C208.549 271.598 208.83 272.095 208.697 272.57C208.585 272.97 208.222 273.233 207.829 273.233Z" fill="white"/>
<path d="M248.956 278.473C248.585 278.473 248.243 278.246 248.106 277.878C247.94 277.41 248.181 276.895 248.649 276.726C249.128 276.55 297.173 259.332 356.615 255.76C357.109 255.695 357.537 256.109 357.57 256.602C357.598 257.103 357.217 257.528 356.723 257.557C297.555 261.115 249.741 278.246 249.262 278.415L248.956 278.473Z" fill="white"/>
<path d="M342.354 246.565C338.72 246.565 330.218 253.844 325.309 258.468C331.842 256.919 342.484 253.627 343.949 249.677C344.281 248.773 344.083 247.898 343.312 246.929C343.2 246.789 342.995 246.598 342.502 246.569L342.354 246.565ZM322.414 260.92C322.086 260.92 321.776 260.74 321.618 260.441C321.434 260.092 321.495 259.659 321.776 259.382C323.285 257.87 336.538 244.765 342.394 244.765L342.606 244.772C343.492 244.822 344.223 245.182 344.724 245.813C346.175 247.642 346.024 249.263 345.635 250.3C343.243 256.757 324.693 260.495 322.583 260.902L322.414 260.92Z" fill="white"/>
<path d="M211.084 61.5645L211.279 82.5274C211.279 82.5274 215.114 88.5199 227.387 89.4022C236.534 90.0612 239.383 85.3436 239.383 85.3436L236.995 67.0168L214.808 62.3495L211.084 61.5645Z" fill="#FD8753"/>
<path d="M211.106 60.2863C211.164 60.8589 211.387 61.5323 211.733 62.303C216.522 72.7322 233.07 76.9385 238.349 77.3599L236.995 67.017L211.106 60.2863Z" fill="black"/>
<path d="M241.23 19.1927C241.23 19.1927 252.474 45.3739 248.275 60.0166C244.072 74.6594 230.718 72.2681 222.742 69.3835C214.765 66.4953 211.081 61.5688 211.081 61.5688C211.081 61.5688 203.597 64.0536 198.642 57.0779C193.69 50.0987 196.816 42.1435 201.094 40.3429C205.369 38.5422 210.425 41.6502 210.425 41.6502L206.496 34.0407C206.496 34.0407 223.462 -4.42083 241.23 19.1927Z" fill="#FD8753"/>
<path d="M210.425 41.6499C210.425 41.6499 221.614 44.0951 229.613 31.7248C237.607 19.3545 236.974 14.2119 236.974 14.2119L244.54 27.234C244.54 27.234 246.42 18.3173 242.934 12.5589C239.444 6.80406 235.713 7.92401 235.713 7.92401L210.861 13.7185L204.026 33.457L210.425 41.6499Z" fill="white"/>
<path d="M239.83 52.4282L239.549 52.3851C239.081 52.2302 238.818 51.7224 238.969 51.2506C240.514 46.4897 236.999 41.2823 236.967 41.2283C236.686 40.8213 236.79 40.2595 237.197 39.9822C237.615 39.7013 238.173 39.8022 238.451 40.2128C238.616 40.454 242.495 46.2124 240.687 51.8052C240.561 52.1869 240.208 52.4282 239.83 52.4282Z" fill="black"/>
<path d="M209.165 53.9517L208.503 53.6599L201.509 46.0541C201.171 45.6868 201.196 45.1178 201.563 44.7793C201.927 44.4479 202.496 44.4731 202.831 44.8332L209.828 52.4391C210.163 52.8065 210.138 53.3755 209.774 53.714L209.165 53.9517Z" fill="black"/>
<path d="M201.681 51.8418C201.238 51.8418 200.849 51.514 200.788 51.0639C200.72 50.5705 201.065 50.1131 201.559 50.0483L206.474 49.3677C207.007 49.2993 207.425 49.6485 207.49 50.1383C207.559 50.6317 207.213 51.0855 206.719 51.1539L201.804 51.831L201.681 51.8418Z" fill="black"/>
<path d="M245.192 31.21L245.008 31.1919L240.388 30.3096C239.852 30.2088 239.506 29.6938 239.607 29.1608C239.704 28.6314 240.219 28.2893 240.752 28.3793L245.376 29.2616C245.909 29.3625 246.258 29.8775 246.154 30.4105C246.067 30.8823 245.657 31.21 245.192 31.21Z" fill="black"/>
<path d="M225.874 33.9463C225.511 33.9463 225.158 33.7446 224.988 33.3917C224.751 32.9055 224.956 32.3185 225.442 32.0809L233.106 28.3535C233.588 28.1086 234.182 28.3175 234.42 28.8037C234.658 29.2934 234.453 29.8805 233.966 30.1182L226.303 33.8454L225.874 33.9463Z" fill="black"/>
<path d="M245.022 41.9233C244.597 41.9233 244.201 41.6461 244.079 41.2139L242.706 36.4782C242.555 35.9596 242.854 35.4123 243.376 35.261C243.891 35.117 244.446 35.4122 244.594 35.9344L245.966 40.6701C246.117 41.1923 245.818 41.736 245.296 41.8873L245.022 41.9233Z" fill="black"/>
<path d="M229.987 42.9282C229.562 42.9282 229.17 42.6508 229.044 42.2187L227.675 37.4831C227.524 36.9645 227.823 36.4171 228.342 36.2659C228.864 36.1218 229.411 36.4171 229.559 36.9393L230.931 41.6714C231.082 42.1936 230.783 42.7409 230.261 42.8886L229.987 42.9282Z" fill="black"/>
<path d="M268.672 117.78C268.672 117.78 277.052 109.71 286.801 123.409C296.553 137.105 274.308 131.364 274.308 131.364L268.672 117.78Z" fill="#FD8753"/>
<path d="M272.777 169.743C272.777 169.743 282.072 191.599 297.723 180.835C313.374 170.071 299.747 146.63 299.747 146.63L272.777 169.743Z" fill="#FD8753"/>
<path d="M233.715 58.5434C234.392 59.3861 235.288 60.218 236.362 60.1424C237.402 60.0667 238.141 59.2564 238.602 58.5254L233.715 58.5434ZM236.225 61.9502C233.247 61.9502 231.334 58.2157 231.251 58.0537L231.288 57.1785L232.051 56.75L240.031 56.7175L240.762 57.0885L240.892 57.8988C240.842 58.0536 239.624 61.7053 236.495 61.943L236.225 61.9502Z" fill="black"/>
<path d="M250.933 401.679C250.472 401.679 250.079 401.326 250.036 400.862L240.28 297.401C240.233 296.908 240.593 296.468 241.09 296.421C241.58 296.371 242.023 296.738 242.073 297.235L251.829 400.692C251.872 401.186 251.512 401.625 251.015 401.676L250.933 401.679Z" fill="#5E1DBB"/>
<path d="M207.764 401.575C207.137 401.492 206.802 401.031 206.874 400.541L222.435 297.185C222.507 296.695 222.929 296.335 223.462 296.429C223.951 296.501 224.29 296.962 224.218 297.451L208.653 400.808C208.588 401.254 208.203 401.575 207.764 401.575Z" fill="#5E1DBB"/>
<path d="M182.749 348.971L182.249 348.819C181.838 348.542 181.727 347.98 182.004 347.57L190.471 334.994C190.748 334.58 191.302 334.472 191.717 334.749C192.127 335.027 192.239 335.585 191.962 335.999L183.495 348.575L182.749 348.971Z" fill="#5E1DBB"/>
<path d="M277.935 351.401L277.15 350.948L269.961 338.278C269.717 337.843 269.868 337.295 270.3 337.05C270.736 336.798 271.283 336.953 271.528 337.385L278.716 350.058C278.961 350.49 278.81 351.038 278.378 351.283L277.935 351.401Z" fill="#5E1DBB"/>
<path d="M196.906 53.8008C196.906 53.8008 191.476 51.4239 188.386 41.9922C185.3 32.5605 194.897 32.1355 194.897 32.1355C194.897 32.1355 190.532 13.6863 211.967 6.36133C233.402 -0.960037 237.359 -1.30218 242.102 2.01458C246.852 5.33495 245.207 23.4889 245.207 23.4889C245.207 23.4889 244.331 12.505 238.098 12.8868C231.867 13.2685 221.107 24.9618 221.107 24.9618L210.426 41.6501C210.426 41.6501 194.728 35.5064 196.906 53.8008Z" fill="white"/>
<path d="M214.07 120.046C214.07 120.046 205.409 112.282 196.157 126.319C186.902 140.361 208.927 133.824 208.927 133.824L214.07 120.046Z" fill="#FD8753"/>
<path d="M214.553 52.2198C215.457 52.245 216.483 52.1046 217.635 51.8309C222.951 50.5957 230.679 46.8323 237.309 46.465C245.365 45.9968 252.135 47.711 252.135 47.711C252.135 47.711 257.771 48.5033 258.009 41.2828C258.254 34.0262 256.785 24.5225 245.073 22.3113C234.713 20.3198 218.993 24.2668 212.212 29.0385C211.351 29.5967 210.634 30.2089 210.098 30.8391C205.225 36.3238 209.572 52.0433 214.553 52.2198Z" fill="#5E1DBB"/>
<path d="M251.098 44.6355C251.098 44.6355 255.527 45.3449 255.787 40.0114C256.046 34.6779 254.976 27.6195 245.753 25.7324C236.534 23.8418 221.963 27.3422 218.067 31.2892C214.17 35.2361 217.469 46.9618 221.391 47.1815C225.32 47.4048 233.012 43.5874 239.39 43.4146C245.768 43.2453 251.098 44.6355 251.098 44.6355Z" fill="white"/>
<path d="M209.906 35.938C209.906 35.938 202.977 35.8011 199.772 38.9126C196.567 42.0277 196.978 47.3252 196.978 47.3252C196.978 47.3252 198.058 42.3626 202.21 41.4659C205.79 40.6953 209.582 43.7779 209.582 43.7779L209.906 35.938Z" fill="#5E1DBB"/>
<path d="M308.559 135.956L307.983 135.747C299.257 128.52 289.285 133.172 288.86 133.37C288.417 133.59 287.877 133.399 287.661 132.949C287.441 132.502 287.629 131.966 288.079 131.75C288.187 131.696 299.498 126.373 309.132 134.361C309.514 134.678 309.568 135.247 309.251 135.628L308.559 135.956Z" fill="#E2209E"/>
<path d="M214.553 52.2198C215.457 52.245 216.483 52.1046 217.635 51.8309C216.166 50.6929 213.278 47.9163 211.884 42.7664C210.35 37.1665 211.61 31.2532 212.212 29.0385C211.351 29.5967 210.634 30.2089 210.098 30.8391C205.225 36.3238 209.572 52.0433 214.553 52.2198Z" fill="#4A1799"/>
<path d="M195.847 82.859C195.847 82.859 118.762 105.961 118.056 166.599C117.429 220.535 184.791 203.354 200.511 191.171C216.23 178.984 201.544 152.63 201.544 152.63L177.412 130.345L195.847 82.859Z" fill="#FFB700"/>
<path d="M215.679 171.306C215.679 171.306 209.111 194.131 192.267 185.351C175.421 176.567 186.091 151.646 186.091 151.646L215.679 171.306Z" fill="#FD8753"/>
<path d="M246.179 179.308C230.002 180.295 216.083 167.975 215.093 151.801C214.106 135.628 226.426 121.706 242.599 120.715C258.776 119.729 272.699 132.049 273.685 148.225C274.672 164.399 262.352 178.321 246.179 179.308ZM241.775 107.164C218.121 108.612 200.097 128.977 201.545 152.63C202.989 176.283 223.35 194.268 247.007 192.824C270.657 191.379 288.645 171.05 287.201 147.397C285.757 123.744 265.424 105.72 241.775 107.164Z" fill="#5E1DBB"/>
<path d="M137.201 156.487L136.646 156.296C136.254 155.986 136.185 155.421 136.495 155.032C146.86 141.837 176.192 142.384 177.434 142.406C177.931 142.42 178.324 142.831 178.313 143.328C178.302 143.825 177.942 144.192 177.391 144.207C177.103 144.217 147.717 143.663 137.907 156.141L137.201 156.487Z" fill="#E2209E"/>
<path d="M140.759 139.413C140.298 139.413 139.873 139.463 139.498 139.564C138.785 139.755 138.303 140.137 138.008 140.727C137.719 141.311 137.838 141.624 137.975 141.833C139.34 143.922 147.526 144.491 153.911 144.473C150.129 142.283 144.335 139.413 140.759 139.413ZM152.715 146.284C147.122 146.284 138.407 145.787 136.466 142.816C136.077 142.218 135.746 141.232 136.394 139.924C136.924 138.862 137.81 138.156 139.027 137.825C144.749 136.28 156.943 144.195 157.458 144.534C157.786 144.75 157.937 145.15 157.833 145.524C157.732 145.902 157.397 146.169 157.008 146.187C156.237 146.223 154.671 146.284 152.715 146.284Z" fill="#E2209E"/>
<path d="M222.313 179.409C221.442 179.409 220.566 179.092 219.875 178.458C218.409 177.112 218.319 174.832 219.666 173.37L265.031 124.094C266.382 122.635 268.654 122.538 270.12 123.885C271.582 125.232 271.672 127.511 270.325 128.973L224.964 178.246C224.251 179.017 223.285 179.409 222.313 179.409Z" fill="#5E1DBB"/>
<path d="M270.509 176.463C269.684 176.463 268.852 176.182 268.179 175.606L217.153 132.221C215.636 130.932 215.453 128.66 216.738 127.144C218.024 125.635 220.307 125.444 221.816 126.733L272.842 170.121C274.355 171.407 274.539 173.679 273.253 175.195C272.544 176.034 271.524 176.463 270.509 176.463Z" fill="#5E1DBB"/>
<path d="M291.158 139.587C291.158 139.587 304.937 130.205 296.881 125.83C288.832 121.458 260.619 132.168 261.948 141.567C263.281 150.97 291.158 139.587 291.158 139.587Z" fill="#FD8753"/>
<path d="M295.934 152.526C295.934 152.526 309.709 143.141 301.657 138.769C293.604 134.393 265.392 145.103 266.721 154.506C268.053 163.906 295.934 152.526 295.934 152.526Z" fill="#FD8753"/>
<path d="M292.776 167.107C296.474 166.498 300.018 165.054 302.888 162.645C305.449 160.488 307.213 157.704 304.037 155.19C297.674 150.163 271.46 155.248 271.201 163.646C271.01 169.908 285.429 168.32 292.776 167.107Z" fill="#FD8753"/>
<path d="M273.902 144.797C273.552 144.797 273.221 144.596 273.073 144.257C272.875 143.8 273.084 143.27 273.541 143.069L291.234 135.402C291.685 135.2 292.218 135.412 292.419 135.866C292.617 136.324 292.408 136.853 291.951 137.055L274.258 144.722L273.902 144.797Z" fill="black"/>
<path d="M278.186 159.646C277.837 159.646 277.506 159.444 277.358 159.105C277.163 158.648 277.369 158.119 277.826 157.92L295.519 150.25C295.976 150.052 296.509 150.261 296.707 150.718C296.902 151.172 296.697 151.701 296.239 151.903L278.546 159.574L278.186 159.646Z" fill="black"/>
<path d="M193.766 143.609C193.766 143.609 178.947 135.974 186.409 130.651C193.867 125.332 223.174 132.528 222.997 142.021C222.817 151.514 193.766 143.609 193.766 143.609Z" fill="#FD8753"/>
<path d="M190.6 157.035C190.6 157.035 175.785 149.396 183.246 144.074C190.705 138.755 220.012 145.95 219.835 155.443C219.655 164.936 190.6 157.035 190.6 157.035Z" fill="#FD8753"/>
<path d="M195.509 171.122C191.764 170.968 188.069 169.966 184.928 167.921C182.123 166.095 180.031 163.545 182.883 160.664C188.584 154.899 215.226 156.757 216.501 165.061C217.455 171.252 202.949 171.432 195.509 171.122Z" fill="#FD8753"/>
<path d="M211.416 146.688L211.164 146.652L192.668 141.189C192.189 141.048 191.915 140.548 192.055 140.073C192.196 139.597 192.7 139.327 193.172 139.464L211.668 144.923C212.147 145.064 212.42 145.564 212.28 146.043C212.165 146.436 211.805 146.688 211.416 146.688Z" fill="black"/>
<path d="M208.966 161.95L208.714 161.911L190.215 156.451C189.743 156.311 189.469 155.81 189.61 155.331C189.75 154.856 190.233 154.589 190.73 154.722L209.222 160.186C209.697 160.326 209.975 160.827 209.831 161.302C209.715 161.694 209.359 161.95 208.966 161.95Z" fill="black"/>
<path d="M227.895 90.606C218.402 90.606 210.753 83.2774 210.649 83.173C210.292 82.8273 210.285 82.2583 210.634 81.8981C210.984 81.5452 211.553 81.5416 211.909 81.8873C212.475 82.4383 225.932 95.2984 238.803 84.6495C239.189 84.3361 239.754 84.3866 240.071 84.7683C240.388 85.1537 240.334 85.7191 239.952 86.036C235.883 89.4032 231.734 90.606 227.895 90.606Z" fill="#E2209E"/>
<path d="M162.914 204.362C162.42 204.362 162.021 203.97 162.014 203.476C162.006 202.979 162.402 202.569 162.899 202.562C163.076 202.562 180.506 202.205 192.444 194.823C192.873 194.563 193.427 194.689 193.687 195.114C193.946 195.536 193.816 196.09 193.395 196.349C181.025 204.002 163.659 204.352 162.928 204.362H162.914Z" fill="#E2209E"/>
<path d="M279.742 190.468C279.278 190.468 278.881 190.108 278.845 189.64L277.956 178.847C277.916 178.35 278.284 177.914 278.781 177.875C279.281 177.839 279.71 178.202 279.753 178.699L280.639 189.492C280.678 189.989 280.311 190.421 279.814 190.465L279.742 190.468Z" fill="#E2209E"/>
</svg>
