<svg width="40" height="52" viewBox="0 0 40 52" fill="none" xmlns="http://www.w3.org/2000/svg">
<path d="M32.9304 4.97707H29.1784C28.7155 3.66807 27.8585 2.53447 26.7257 1.73257C25.5925 0.93023 24.2386 0.49857 22.8503 0.49707H17.2503C15.862 0.498633 14.5081 0.93027 13.3749 1.73257C12.2421 2.53452 11.3851 3.66807 10.9222 4.97707H7.1702C5.3882 4.97707 3.6788 5.68488 2.4186 6.94547C1.1581 8.20567 0.450195 9.91497 0.450195 11.6971V44.7371C0.450195 46.5191 1.15801 48.2285 2.4186 49.4887C3.6788 50.7489 5.3881 51.4571 7.1702 51.4571H32.9302C34.7122 51.4571 36.4216 50.7489 37.6818 49.4887C38.9423 48.2285 39.6502 46.5192 39.6502 44.7371V11.6971C39.6502 9.91507 38.9424 8.20567 37.6818 6.94547C36.4216 5.68497 34.7123 4.97707 32.9302 4.97707H32.9304ZM15.0104 7.21687C15.0104 6.62312 15.2463 6.05317 15.6663 5.63327C16.0866 5.21296 16.6561 4.97702 17.2503 4.97702H22.8503C23.4444 4.97702 24.014 5.21296 24.4343 5.63327C24.8542 6.05319 25.0901 6.62311 25.0901 7.21687V8.33677L15.0101 8.33716L15.0104 7.21687ZM35.1704 44.7369L35.17 44.7373C35.17 45.331 34.9341 45.901 34.5141 46.3209C34.0938 46.7412 33.5243 46.9771 32.9301 46.9771H7.17015C6.576 46.9771 6.00645 46.7412 5.58615 46.3209C5.16623 45.9009 4.93028 45.331 4.93028 44.7373V11.6973C4.93028 11.1031 5.16623 10.5336 5.58615 10.1133C6.00646 9.69334 6.57599 9.4574 7.17015 9.4574H10.5303V10.5773C10.5303 11.1714 10.7663 11.741 11.1862 12.1613C11.6065 12.5812 12.176 12.8172 12.7702 12.8172H27.3302C27.9243 12.8172 28.4939 12.5812 28.9142 12.1613C29.3341 11.741 29.5701 11.1715 29.5701 10.5773V9.4574H32.9303C33.5244 9.4574 34.094 9.69334 34.5143 10.1133C34.9342 10.5336 35.1701 11.1031 35.1701 11.6973L35.1704 44.7369Z" fill="white"/>
<path d="M30.3374 15.6172H9.75738C8.95738 15.6172 8.21788 16.0441 7.81758 16.7375C7.41758 17.4305 7.41758 18.2844 7.81758 18.9773C8.21797 19.6703 8.95738 20.0972 9.75738 20.0972H30.3374C31.1378 20.0972 31.8772 19.6702 32.2772 18.9773C32.6776 18.2843 32.6776 17.4304 32.2772 16.7375C31.8772 16.0441 31.1377 15.6172 30.3374 15.6172Z" fill="white"/>
<path d="M16.8976 29.0576H9.75738C8.95738 29.0576 8.21788 29.4846 7.81758 30.1775C7.41758 30.8705 7.41758 31.7244 7.81758 32.4173C8.21797 33.1107 8.95738 33.5376 9.75738 33.5376H16.8976C17.698 33.5376 18.4374 33.1107 18.8374 32.4173C19.2374 31.7243 19.2374 30.8704 18.8374 30.1775C18.4374 29.4846 17.6979 29.0576 16.8976 29.0576Z" fill="white"/>
<path d="M30.3374 22.3369H9.75738C8.95738 22.3369 8.21788 22.7639 7.81758 23.4568C7.41758 24.1498 7.41758 25.0037 7.81758 25.6966C8.21797 26.3896 8.95738 26.8165 9.75738 26.8165H30.3374C31.1378 26.8165 31.8772 26.3896 32.2772 25.6966C32.6776 25.0036 32.6776 24.1497 32.2772 23.4568C31.8772 22.7638 31.1377 22.3369 30.3374 22.3369Z" fill="white"/>
<path d="M26.7705 28.6543C25.2525 28.6571 23.7975 29.2606 22.7228 30.3332C21.6486 31.4055 21.0419 32.8594 21.0361 34.3773V34.5398C21.0369 36.4941 22.0334 38.3132 23.6795 39.3668L22.0666 42.3125C21.7514 42.834 21.6623 43.4617 21.8202 44.0504C21.9776 44.6391 22.3686 45.1383 22.9022 45.4324C23.4357 45.7269 24.0663 45.791 24.6483 45.6102C25.2303 45.4293 25.7135 45.0191 25.9866 44.4742L27.3307 42.0605L28.3893 43.0965H28.3889C28.965 43.6343 29.7815 43.8296 30.5385 43.6113C31.2959 43.3929 31.8823 42.7925 32.0834 42.0304C32.2845 41.2682 32.0701 40.457 31.5193 39.8933L30.5115 38.9023V38.9019C31.7892 37.8156 32.5263 36.223 32.5275 34.5453V34.3773C32.5213 32.8554 31.9119 31.398 30.8326 30.325C29.7533 29.252 28.2924 28.6512 26.7705 28.6543ZM25.5162 34.3773C25.5162 33.6816 26.0803 33.1171 26.7764 33.1171C27.4721 33.1171 28.0362 33.6816 28.0362 34.3773V34.5398C28.0362 35.2355 27.4722 35.7996 26.7764 35.7996C26.0803 35.7996 25.5162 35.2356 25.5162 34.5398V34.3773Z" fill="white"/>
</svg>
