<svg width="58" height="57" viewBox="0 0 58 57" fill="none" xmlns="http://www.w3.org/2000/svg">
<path d="M23.1513 26.0417V31.3043H15.5201V32.5543C15.5201 34.4731 13.9639 36.0293 12.0451 36.0293C10.1264 36.0293 8.57017 34.4731 8.57017 32.5543V31.3043H0.657715V8.81055H23.1514V14.3543C20.4514 14.9293 18.4264 17.3293 18.4264 20.1981C18.4264 23.0606 20.4576 25.4606 23.1514 26.0419L23.1513 26.0417Z" fill="white"/>
<path d="M27.8758 44.91C27.8758 46.8287 26.3196 48.385 24.4009 48.385H23.1508V56.2974H0.657104V33.8037H6.20088C6.77587 36.5037 9.17585 38.5287 12.0446 38.5287C14.9134 38.5287 17.3134 36.5037 17.8884 33.8037H23.1509V41.4349H24.401C26.3197 41.4349 27.876 42.9911 27.876 44.9099L27.8758 44.91Z" fill="white"/>
<path d="M48.1445 33.8042V56.298H25.6508V50.7542C28.3508 50.1792 30.3758 47.7792 30.3758 44.9104C30.3758 42.0416 28.3508 39.6416 25.6508 39.0666V33.8041H33.282V32.5541C33.282 30.6353 34.8382 29.0791 36.7569 29.0791C38.6757 29.0791 40.2319 30.6353 40.2319 32.5541V33.8041L48.1445 33.8042Z" fill="white"/>
<path d="M57.4072 6.71027L51.5135 27.8474L43.5885 25.635L43.8385 24.735C44.2635 23.2162 43.3697 21.6412 41.8509 21.2162C40.3322 20.7912 38.7572 21.685 38.3322 23.2038L38.0822 24.11L30.3697 21.9601L32.0385 15.9664C31.2135 15.5476 30.5323 14.8976 30.0636 14.0726C29.4448 12.9726 29.2886 11.6977 29.6261 10.4789C30.2386 8.27263 32.3261 6.86646 34.5261 7.02886L36.2573 0.816406L57.4072 6.71027Z" fill="white"/>
</svg>
