<svg width="1440" height="400" viewBox="0 0 1440 400" fill="none" xmlns="http://www.w3.org/2000/svg">
<rect width="1439" height="400" fill="white"/>
<path d="M0 0C107.074 3.66667 272.06 137.486 467.324 277C774.077 496.171 1439 319.532 1440 232.392V232C1440 232.131 1440 232.261 1440 232.392V400H0V0Z" fill="url(#paint0_linear_807_45565)"/>
<g clip-path="url(#clip0_807_45565)">
<path d="M470.563 280.634L476.071 281.738L478.961 277.033" stroke="white" stroke-opacity="0.42" stroke-width="1.5" stroke-linecap="round" stroke-linejoin="round"/>
<path d="M469.356 289.074L465.617 280.775C465.419 280.335 465.405 279.837 465.58 279.39C465.755 278.944 466.103 278.586 466.549 278.395L479.985 272.633C480.43 272.442 480.936 272.434 481.391 272.61C481.846 272.786 482.214 273.132 482.412 273.572L486.151 281.871C486.349 282.311 486.363 282.809 486.188 283.256C486.013 283.702 485.665 284.06 485.219 284.251L471.783 290.013C471.338 290.204 470.832 290.212 470.377 290.036C469.921 289.86 469.554 289.514 469.356 289.074Z" stroke="white" stroke-opacity="0.42" stroke-width="1.5"/>
</g>
<g clip-path="url(#clip1_807_45565)">
<path d="M87.4092 295.02L97.1561 296.974L102.271 288.647" stroke="white" stroke-opacity="0.42" stroke-width="1.5" stroke-linecap="round" stroke-linejoin="round"/>
<path d="M85.2718 309.957L78.6545 295.27C78.3035 294.491 78.28 293.61 78.5893 292.82C78.8985 292.03 79.5151 291.396 80.3034 291.058L104.082 280.861C104.87 280.522 105.766 280.508 106.571 280.82C107.377 281.131 108.027 281.744 108.378 282.523L114.995 297.21C115.346 297.989 115.37 298.87 115.06 299.66C114.751 300.45 114.135 301.084 113.346 301.422L89.5676 311.619C88.7793 311.957 87.8838 311.972 87.0782 311.66C86.2726 311.349 85.6228 310.736 85.2718 309.957Z" stroke="white" stroke-opacity="0.42" stroke-width="1.5"/>
</g>
<g clip-path="url(#clip2_807_45565)">
<path d="M35.3799 203.555L41.5537 204.792L44.7935 199.518" stroke="white" stroke-opacity="0.42" stroke-width="1.5" stroke-linecap="round" stroke-linejoin="round"/>
<path d="M34.0259 213.016L29.8344 203.713C29.6121 203.22 29.5972 202.661 29.7931 202.161C29.9889 201.661 30.3795 201.259 30.8788 201.045L45.9406 194.586C46.4399 194.372 47.0071 194.362 47.5174 194.56C48.0277 194.757 48.4393 195.146 48.6616 195.639L52.8531 204.942C53.0754 205.435 53.0903 205.994 52.8944 206.494C52.6985 206.994 52.308 207.396 51.8087 207.61L36.7469 214.069C36.2476 214.283 35.6804 214.293 35.1701 214.095C34.6598 213.898 34.2482 213.509 34.0259 213.016Z" stroke="white" stroke-opacity="0.42" stroke-width="1.5"/>
</g>
<g clip-path="url(#clip3_807_45565)">
<path d="M76.2246 160.062L87.9548 162.396L94.1648 152.181" stroke="white" stroke-opacity="0.42" stroke-width="1.5" stroke-linecap="round" stroke-linejoin="round"/>
<path d="M73.5639 178.344L65.6778 160.417C65.2595 159.466 65.2363 158.388 65.6135 157.42C65.9906 156.452 66.737 155.673 67.6886 155.255L96.3929 142.646C97.3445 142.228 98.4233 142.205 99.392 142.582C100.361 142.959 101.14 143.705 101.558 144.656L109.444 162.583C109.863 163.534 109.886 164.612 109.509 165.58C109.131 166.548 108.385 167.327 107.433 167.745L78.7291 180.354C77.7775 180.772 76.6987 180.795 75.73 180.418C74.7613 180.041 73.9822 179.295 73.5639 178.344Z" stroke="white" stroke-opacity="0.42" stroke-width="1.5"/>
</g>
<g clip-path="url(#clip4_807_45565)">
<path d="M57.2695 61.878L62.7819 62.975L65.7002 58.1747" stroke="white" stroke-opacity="0.42" stroke-width="1.5" stroke-linecap="round" stroke-linejoin="round"/>
<path d="M56.0194 70.4692L52.3134 62.0444C52.1169 61.5975 52.106 61.0909 52.2832 60.636C52.4604 60.1811 52.8112 59.8152 53.2584 59.6188L66.7475 53.6934C67.1946 53.497 67.7016 53.4861 68.1568 53.6632C68.612 53.8403 68.9782 54.1909 69.1748 54.6377L72.8807 63.0625C73.0772 63.5094 73.0881 64.016 72.9109 64.4709C72.7337 64.9258 72.3829 65.2917 71.9357 65.4882L58.4467 71.4135C57.9995 71.6099 57.4925 71.6208 57.0373 71.4437C56.5821 71.2666 56.2159 70.9161 56.0194 70.4692Z" stroke="white" stroke-opacity="0.42" stroke-width="1.5"/>
</g>
<defs>
<linearGradient id="paint0_linear_807_45565" x1="37" y1="160.619" x2="1440" y2="400.119" gradientUnits="userSpaceOnUse">
<stop stop-color="#F45C6B"/>
<stop offset="1" stop-color="#9A4B78"/>
</linearGradient>
<clipPath id="clip0_807_45565">
<rect width="21.9286" height="21.8443" fill="white" transform="matrix(0.919076 -0.394148 0.410805 0.911753 461.32 275.687)"/>
</clipPath>
<clipPath id="clip1_807_45565">
<rect width="38.8085" height="38.6594" fill="white" transform="matrix(0.919076 -0.394148 0.410805 0.911753 71.0498 286.264)"/>
</clipPath>
<clipPath id="clip2_807_45565">
<rect width="24.5819" height="24.4874" fill="white" transform="matrix(0.919076 -0.394148 0.410805 0.911753 25.0176 198.009)"/>
</clipPath>
<clipPath id="clip3_807_45565">
<rect width="47.0274" height="47.0053" fill="white" transform="matrix(0.915561 -0.402178 0.402647 0.915355 56.5693 149.443)"/>
</clipPath>
<clipPath id="clip4_807_45565">
<rect width="22.0996" height="22.0893" fill="white" transform="matrix(0.915561 -0.402178 0.402647 0.915355 48.0332 56.8877)"/>
</clipPath>
</defs>
</svg>
