<svg width="80" height="81" viewBox="0 0 80 81" fill="none" xmlns="http://www.w3.org/2000/svg">
<path fill-rule="evenodd" clip-rule="evenodd" d="M16.8565 50.3974L25.9727 66.5048C26.4133 67.2834 26.1365 68.2816 25.3579 68.7222L22.2575 70.4767C21.4789 70.9173 20.4807 70.6405 20.0401 69.862L10.924 53.7545C10.4834 52.976 10.7601 51.9777 11.5387 51.5372L14.6392 49.7826C15.4182 49.3411 16.416 49.6179 16.8565 50.3974ZM27.0168 47.0501L19.6775 51.3018L26.1114 62.6706L27.4395 61.9041L41.9869 65.8023C44.0798 66.363 46.0977 66.0983 47.9423 64.9621L67.9971 52.6124C70.8529 50.8539 69.5918 43.1571 61.0011 48.1597L49.9498 54.5963C49.3346 54.9548 48.7065 55.2083 48.0632 55.3664C47.1493 56.9017 45.4847 57.4556 43.7613 57.2029C41.0725 56.8096 38.8962 55.9284 36.3368 55.2423C35.8015 55.099 35.4837 54.5494 35.627 54.0141C35.7703 53.4789 36.3198 53.161 36.8551 53.3043C39.331 53.9677 41.4591 54.8383 44.0524 55.2182C45.5944 55.4436 46.9105 54.4927 47.3105 52.9994C47.7551 51.34 46.7364 49.7039 45.1025 49.1739C40.6999 48.3797 36.3833 46.5386 33.74 45.6819C31.3672 44.9136 29.1739 45.7998 27.0168 47.0498L27.0168 47.0501ZM59.9436 10.6055L61.3544 14.3202C61.3972 14.4314 61.4959 14.5037 61.6151 14.5095L65.5839 14.7028C65.854 14.7162 65.9647 15.0559 65.754 15.2256L62.6566 17.7148C62.5633 17.7894 62.5258 17.9055 62.5571 18.0206L63.5999 21.8546C63.6704 22.1153 63.3821 22.3251 63.1553 22.1774L59.8307 20.0015C59.7307 19.9363 59.6088 19.9363 59.5088 20.0015L56.1843 22.1774C55.9584 22.3256 55.6691 22.1153 55.7396 21.8546L56.7825 18.0206C56.8137 17.9055 56.7767 17.7894 56.6829 17.7148L53.5855 15.2256C53.3748 15.0564 53.4855 14.7162 53.7556 14.7028L57.7244 14.5095C57.8436 14.5037 57.9423 14.4323 57.9851 14.3202L59.3959 10.6055C59.4896 10.3542 59.8481 10.3542 59.9436 10.6055ZM45.1196 10.6055L46.5304 14.3202C46.5732 14.4323 46.6719 14.5037 46.7911 14.5095L50.7599 14.7028C51.03 14.7162 51.1407 15.0559 50.93 15.2256L47.8326 17.7148C47.7393 17.7894 47.7018 17.9055 47.7331 18.0206L48.7759 21.8546C48.8464 22.1153 48.5581 22.3251 48.3313 22.1774L45.0067 20.0015C44.9067 19.9363 44.7848 19.9363 44.6848 20.0015L41.3603 22.1774C41.1344 22.3256 40.8451 22.1153 40.9156 21.8546L41.9585 18.0206C41.9897 17.9055 41.9518 17.7894 41.8589 17.7148L38.7615 15.2256C38.5508 15.0564 38.6615 14.7162 38.9316 14.7028L42.9004 14.5095C43.0196 14.5037 43.1183 14.4323 43.1611 14.3202L44.5719 10.6055C44.6656 10.3542 45.0245 10.3542 45.1196 10.6055ZM30.2956 10.6055L31.7055 14.3202C31.7483 14.4314 31.847 14.5037 31.9662 14.5095L35.935 14.7028C36.2051 14.7162 36.3158 15.0559 36.1051 15.2256L33.0077 17.7148C32.9144 17.7894 32.8769 17.9055 32.9081 18.0206L33.951 21.8546C34.0215 22.1153 33.7331 22.3251 33.5064 22.1774L30.1818 20.0015C30.0818 19.9363 29.9599 19.9363 29.8599 20.0015L26.5353 22.1774C26.3094 22.3256 26.0202 22.1153 26.0907 21.8546L27.1336 18.0206C27.1648 17.9055 27.1269 17.7894 27.034 17.7148L23.9366 15.2256C23.7259 15.0564 23.8366 14.7162 24.1067 14.7028L28.0755 14.5095C28.1947 14.5037 28.2934 14.4323 28.3362 14.3202L29.747 10.6055C29.8421 10.3542 30.2006 10.3542 30.2956 10.6055ZM44.8454 24.5381C47.4222 24.5381 49.51 26.6269 49.51 29.2028C49.51 31.7796 47.4212 33.8674 44.8454 33.8674C42.2686 33.8674 40.1807 31.7786 40.1807 29.2028C40.1807 26.6269 42.2695 24.5381 44.8454 24.5381ZM36.3999 43.3575C36.0039 43.3575 35.7092 43.0017 35.7833 42.612C36.5967 38.3473 40.3445 35.124 44.8459 35.124C49.3472 35.124 53.0955 38.3481 53.9084 42.612C53.9825 43.0012 53.6878 43.3575 53.2919 43.3575H36.3999ZM30.0214 23.8432C32.5972 23.8432 34.686 25.932 34.686 28.5079C34.686 31.0847 32.5972 33.1726 30.0214 33.1726C27.4446 33.1726 25.3567 31.0838 25.3567 28.5079C25.3567 25.932 27.4455 23.8432 30.0214 23.8432ZM21.5762 42.6626H33.7374C34.0646 40.4894 35.0079 38.5341 36.3767 36.9671C34.7221 35.3943 32.4847 34.4292 30.0222 34.4292C25.5208 34.4292 21.7725 37.6533 20.9596 41.9172C20.8846 42.3069 21.1802 42.6626 21.5762 42.6626ZM59.6699 23.8432C62.2467 23.8432 64.3346 25.932 64.3346 28.5079C64.3346 31.0847 62.2458 33.1726 59.6699 33.1726C57.094 33.1726 55.0052 31.0838 55.0052 28.5079C55.0052 25.932 57.0936 23.8432 59.6699 23.8432ZM55.9543 42.6626H68.1154C68.5114 42.6626 68.806 42.3068 68.7319 41.9171C67.9185 37.6524 64.1708 34.4291 59.6694 34.4291C57.206 34.4291 54.969 35.3943 53.3149 36.9671C54.6837 38.534 55.627 40.4894 55.9543 42.6626ZM14.5851 52.4889C13.9807 52.5778 13.561 53.1394 13.6499 53.7442C13.7387 54.3496 14.3003 54.7683 14.9052 54.6795C15.5096 54.5907 15.9293 54.0291 15.8404 53.4242C15.7516 52.8193 15.19 52.401 14.5851 52.4889Z" fill="white"/>
</svg>
