<svg width="27" height="28" viewBox="0 0 27 28" fill="none" xmlns="http://www.w3.org/2000/svg">
<path d="M13.4612 2.68506C7.00793 2.68506 1.77539 7.97432 1.77539 14.4976C1.77539 21.0208 7.00793 26.3101 13.4612 26.3101C19.9145 26.3101 25.147 21.0208 25.147 14.4976C25.147 7.97432 19.9145 2.68506 13.4612 2.68506ZM19.0772 11.5893C19.085 11.7132 19.085 11.8424 19.085 11.9689C19.085 15.8396 16.1688 20.2983 10.8397 20.2983C9.19641 20.2983 7.67308 19.8158 6.38973 18.9853C6.62449 19.0116 6.84881 19.0222 7.08879 19.0222C8.44518 19.0222 9.69201 18.5581 10.6858 17.7724C9.41291 17.746 8.34345 16.9022 7.97827 15.7421C8.42431 15.808 8.82601 15.808 9.2851 15.6894C8.62966 15.5548 8.04054 15.1949 7.61782 14.671C7.1951 14.1471 6.96485 13.4914 6.96619 12.8153V12.7784C7.34963 12.9973 7.80089 13.1317 8.27302 13.1502C7.87613 12.8828 7.55063 12.5206 7.3254 12.0956C7.10017 11.6706 6.98216 11.196 6.98184 10.7139C6.98184 10.1681 7.1227 9.66973 7.37572 9.2373C8.10322 10.1426 9.01103 10.883 10.0401 11.4104C11.0693 11.9378 12.1967 12.2404 13.3491 12.2985C12.9395 10.3078 14.4107 8.69678 16.1792 8.69678C17.0139 8.69678 17.7651 9.0501 18.2947 9.61963C18.9494 9.4957 19.5754 9.24785 20.1336 8.91562C19.9171 9.59326 19.4632 10.1654 18.8607 10.5267C19.445 10.4634 20.0084 10.2999 20.5301 10.0705C20.1362 10.6559 19.6432 11.1753 19.0772 11.5893Z" fill="#1D9BF0"/>
</svg>
