<svg width="42" height="43" viewBox="0 0 42 43" fill="none" xmlns="http://www.w3.org/2000/svg">
<path fill-rule="evenodd" clip-rule="evenodd" d="M34.6005 14.8241C34.6123 15.1301 34.6163 15.436 34.6163 15.7421C34.6163 25.0209 28.0891 35.7328 16.153 35.7328C12.4865 35.7328 9.07715 34.5642 6.20459 32.5749C6.71237 32.6306 7.22806 32.6724 7.75166 32.6724C10.7917 32.6724 13.5917 31.5453 15.8128 29.6534C12.9732 29.6117 10.5754 27.5667 9.74848 24.7844C10.1455 24.8679 10.5543 24.9098 10.9724 24.9098C11.5619 24.9098 12.1343 24.8264 12.683 24.6595C9.71152 24.0195 7.47338 21.1817 7.47338 17.7734C7.47338 17.7317 7.47338 17.7177 7.47338 17.6899C8.34913 18.2046 9.35147 18.5244 10.4158 18.5661C8.67224 17.3002 7.5261 15.144 7.5261 12.7095C7.5261 11.4297 7.84528 10.2193 8.40713 9.17597C11.6068 13.4328 16.3905 16.2291 21.7834 16.5212C21.6726 16.0065 21.6159 15.4641 21.6159 14.9215C21.6159 11.0403 24.5214 7.89624 28.1062 7.89624C29.9724 7.89624 31.658 8.74495 32.841 10.1083C34.3222 9.80221 35.7097 9.21798 36.9653 8.41112C36.4786 10.0527 35.4511 11.4296 34.1085 12.2921C35.4221 12.1252 36.6751 11.7498 37.8371 11.1934C36.9653 12.5984 35.8679 13.8363 34.6005 14.8241Z" fill="white"/>
</svg>
